<?xml version="1.0" encoding="UTF-8"?>
<svg version="1.1" xmlns="http://www.w3.org/2000/svg" width="238" height="96">
<path d="M0 0 C13.96636446 -0.34343519 28.04698929 -0.15519486 40 8.0625 C43.35818921 11.3157458 44.3622051 13.60656178 44.5625 18.1875 C44.45286438 23.72044447 42.95660296 26.44211343 39.06640625 30.28515625 C34.15120838 34.36412008 28.75822681 37.26484226 23 40 C23.01160156 40.69222656 23.02320313 41.38445313 23.03515625 42.09765625 C23.11225356 50.45720731 22.61723102 58.66738129 22 67 C17.38 67 12.76 67 8 67 C7.80497718 64.08365878 7.61870672 61.16720455 7.4375 58.25 C7.38142578 57.425 7.32535156 56.6 7.26757812 55.75 C7.21923828 54.95078125 7.17089844 54.1515625 7.12109375 53.328125 C7.0739624 52.5949707 7.02683105 51.86181641 6.97827148 51.10644531 C7.00086207 48.91642774 7.38512544 47.09512813 8 45 C7.30777344 45.18175781 6.61554688 45.36351562 5.90234375 45.55078125 C-2.34957509 47.67083945 -10.63658115 49.38901358 -19 51 C-18.505 51.495 -18.505 51.495 -18 52 C-17.92686433 54.53049402 -17.90752473 57.03304837 -17.9375 59.5625 C-17.94201172 60.27341797 -17.94652344 60.98433594 -17.95117188 61.71679688 C-17.96299136 63.47790013 -17.98092737 65.23896036 -18 67 C-19.93674185 67.19517554 -21.87444009 67.38087873 -23.8125 67.5625 C-24.89144531 67.66691406 -25.97039062 67.77132812 -27.08203125 67.87890625 C-30 68 -30 68 -33 67 C-33 62.05 -33 57.1 -33 52 C-35.97 52 -38.94 52 -42 52 C-41.96744792 49.78645833 -41.93489583 47.57291667 -41.90234375 45.359375 C-41.90967629 43.02564794 -41.90967629 43.02564794 -42.56640625 40.953125 C-43 39 -43 39 -42 35 C-39.03 35 -36.06 35 -33 35 C-33 26.09 -33 17.18 -33 8 C-28.05 8 -23.1 8 -18 8 C-18 16.91 -18 25.82 -18 35 C-13.483125 34.7834375 -13.483125 34.7834375 -8.875 34.5625 C-7.93769043 34.51939697 -7.00038086 34.47629395 -6.03466797 34.43188477 C-4.89989014 34.3747229 -4.89989014 34.3747229 -3.7421875 34.31640625 C-2.9776123 34.27974854 -2.21303711 34.24309082 -1.42529297 34.20532227 C1.40161906 33.96599943 4.20157644 33.46640393 7 33 C7.33 24.75 7.66 16.5 8 8 C12.62 8 17.24 8 22 8 C22.82382873 14.38467264 23.10945493 20.56648218 23 27 C23 27.66 23 28.32 23 29 C24.60781893 28.2368139 26.21113138 27.46412942 27.8125 26.6875 C28.70582031 26.25824219 29.59914063 25.82898438 30.51953125 25.38671875 C32.86152248 24.07741657 34.42240672 23.15881186 36 21 C36.36146457 18.71669899 36.36146457 18.71669899 36.1875 16.3125 C36.16042969 15.50425781 36.13335937 14.69601563 36.10546875 13.86328125 C36.05326172 12.94095703 36.05326172 12.94095703 36 12 C35.14921875 11.58041016 35.14921875 11.58041016 34.28125 11.15234375 C32.8056396 10.40695836 31.34540268 9.62995711 29.90625 8.81640625 C22.69371677 5.05792708 15.62506544 3.93498364 7.64257812 2.98852539 C6.79888672 2.88531982 5.95519531 2.78211426 5.0859375 2.67578125 C4.3232959 2.59239502 3.5606543 2.50900879 2.77490234 2.4230957 C2.18918457 2.28347412 1.6034668 2.14385254 1 2 C0.505 1.01 0.505 1.01 0 0 Z M-26 13 C-26.33 15.64 -26.66 18.28 -27 21 C-26.01 21.495 -26.01 21.495 -25 22 C-25 19.03 -25 16.06 -25 13 C-25.33 13 -25.66 13 -26 13 Z M14 13 C14 15.97 14 18.94 14 22 C14.66 22 15.32 22 16 22 C16 19.03 16 16.06 16 13 C15.34 13 14.68 13 14 13 Z M-26 33 C-25 35 -25 35 -25 35 Z M-4 40 C-4 40.33 -4 40.66 -4 41 C-2.35 41 -0.7 41 1 41 C1 40.67 1 40.34 1 40 C-0.65 40 -2.3 40 -4 40 Z M-17 42 C-17 42.33 -17 42.66 -17 43 C-15.02 43 -13.04 43 -11 43 C-10.67 42.34 -10.34 41.68 -10 41 C-12.42797311 41 -14.62907005 41.50085685 -17 42 Z M-24 42 C-25.98 42.33 -27.96 42.66 -30 43 C-30 43.33 -30 43.66 -30 44 C-27.69 44 -25.38 44 -23 44 C-23.33 43.34 -23.66 42.68 -24 42 Z M-26 53 C-26.33 55.64 -26.66 58.28 -27 61 C-26.01 61.495 -26.01 61.495 -25 62 C-25 59.03 -25 56.06 -25 53 C-25.33 53 -25.66 53 -26 53 Z M14 53 C14 55.97 14 58.94 14 62 C14.66 62 15.32 62 16 62 C16 59.03 16 56.06 16 53 C15.34 53 14.68 53 14 53 Z " fill="#0F0D0A" transform="translate(113,2)"/>
<path d="M0 0 C6.32024273 4.37555266 9.14249717 15.51161166 12.29345703 22.51635742 C13.19437019 24.51524313 14.10302804 26.51049958 15.01171875 28.50585938 C15.58641762 29.78103373 16.16065342 31.0564169 16.734375 32.33203125 C17.25354492 33.48034424 17.77271484 34.62865723 18.30761719 35.81176758 C19.4375 38.6875 19.4375 38.6875 19.4375 41.6875 C20.0975 41.6875 20.7575 41.6875 21.4375 41.6875 C21.79070312 40.53121094 22.14390625 39.37492187 22.5078125 38.18359375 C24.71594187 31.57603193 27.53555459 25.23011405 30.37060547 18.8737793 C31.00260031 17.44876034 31.62686891 16.02029156 32.24365234 14.58862305 C33.1433143 12.50058037 34.06491427 10.42355861 34.9921875 8.34765625 C35.26320282 7.70812515 35.53421814 7.06859406 35.81344604 6.40968323 C37.12805025 3.53245247 38.18848112 1.85370657 40.84033203 0.08374023 C43.4375 -0.3125 43.4375 -0.3125 46.11889648 0.6784668 C49.06879399 3.23450624 49.57384283 5.06791144 50.53515625 8.83203125 C50.86193359 10.06759766 51.18871094 11.30316406 51.52539062 12.57617188 C51.85090966 13.88395315 52.17577759 15.19189666 52.5 16.5 C53.15691809 19.02750861 53.81446899 21.55485284 54.47265625 24.08203125 C54.95387939 25.96825195 54.95387939 25.96825195 55.44482422 27.89257812 C56.43076883 31.66176726 57.48911583 35.40279704 58.57421875 39.14453125 C59.95724635 43.93193448 61.1912732 48.68098866 62.1875 53.5625 C62.42984375 54.73554687 62.6721875 55.90859375 62.921875 57.1171875 C63.09203125 57.96539062 63.2621875 58.81359375 63.4375 59.6875 C59.8075 59.6875 56.1775 59.6875 52.4375 59.6875 C50.78362989 56.37975978 49.85124096 53.59452517 49.00878906 50.03759766 C48.36960765 47.4082129 47.65570204 44.80594383 46.9296875 42.19921875 C46.66542969 41.24595703 46.40117187 40.29269531 46.12890625 39.31054688 C45.57903232 37.33336859 45.02690374 35.35681612 44.47265625 33.38085938 C44.21097656 32.43404297 43.94929688 31.48722656 43.6796875 30.51171875 C43.4410498 29.65666748 43.20241211 28.80161621 42.95654297 27.9206543 C42.4375 25.6875 42.4375 25.6875 42.4375 22.6875 C41.7775 22.6875 41.1175 22.6875 40.4375 22.6875 C40.06625 23.88503906 39.695 25.08257812 39.3125 26.31640625 C37.10519953 32.92924013 34.26156932 39.25720117 31.4375 45.625 C30.89827958 46.86777004 30.35921602 48.11060814 29.8203125 49.35351562 C29.30210937 50.52462891 28.78390625 51.69574219 28.25 52.90234375 C27.78207031 53.96573975 27.31414062 55.02913574 26.83203125 56.12475586 C25.4375 58.6875 25.4375 58.6875 22.4375 60.6875 C20.0625 61.3125 20.0625 61.3125 17.4375 60.6875 C12.75433987 55.06516689 10.12606364 47.78892979 7.3125 41.125 C6.88324219 40.12275391 6.45398438 39.12050781 6.01171875 38.08789062 C4.81453987 35.29017567 3.62538685 32.48916948 2.4375 29.6875 C1.43961539 27.35325233 0.43868791 25.02033327 -0.5625 22.6875 C-2.01890234 26.94001717 -3.29344016 31.20965198 -4.47265625 35.546875 C-4.82615733 36.83984773 -5.17967338 38.13281636 -5.53320312 39.42578125 C-6.08239916 41.44237972 -6.63088815 43.4591686 -7.17895508 45.47607422 C-7.71261658 47.43765362 -8.24877927 49.3985367 -8.78515625 51.359375 C-9.10234619 52.5256543 -9.41953613 53.69193359 -9.74633789 54.89355469 C-10.5625 57.6875 -10.5625 57.6875 -11.5625 59.6875 C-15.1925 59.6875 -18.8225 59.6875 -22.5625 59.6875 C-20.33021891 47.59597743 -16.97047074 35.81567314 -13.41870117 24.0559082 C-12.35741171 20.51597333 -11.37159387 16.982176 -10.53125 13.3828125 C-10.36689453 12.69767578 -10.20253906 12.01253906 -10.03320312 11.30664062 C-9.59008092 9.42934699 -9.16928713 7.54682297 -8.75 5.6640625 C-7.5625 2.6875 -7.5625 2.6875 -5.09765625 0.75390625 C-2.5625 -0.3125 -2.5625 -0.3125 0 0 Z " fill="#0F0E0A" transform="translate(172.5625,9.3125)"/>
<path d="M0 0 C1.44440208 0.00068733 1.44440208 0.00068733 2.91798401 0.00138855 C4.93744145 0.00439225 6.95689698 0.01222155 8.97631836 0.0246582 C12.08129983 0.043057 15.18598501 0.04516665 18.29101562 0.04492188 C20.25651302 0.04983239 22.22200838 0.05565867 24.1875 0.0625 C25.11968857 0.06361282 26.05187714 0.06472565 27.01231384 0.06587219 C27.86732986 0.07225204 28.72234589 0.0786319 29.60327148 0.08520508 C30.35857651 0.08901688 31.11388153 0.09282867 31.89207458 0.09675598 C33.62890625 0.23046875 33.62890625 0.23046875 34.62890625 1.23046875 C34.62890625 4.86046875 34.62890625 8.49046875 34.62890625 12.23046875 C18.78890625 12.56046875 2.94890625 12.89046875 -13.37109375 13.23046875 C-13.37109375 16.86046875 -13.37109375 20.49046875 -13.37109375 24.23046875 C-12.22632568 24.23981445 -11.08155762 24.24916016 -9.90209961 24.25878906 C-5.63201795 24.29883074 -1.36264605 24.36462827 2.90698242 24.43798828 C4.75063928 24.46611597 6.59441488 24.48737114 8.43823242 24.50146484 C11.09745722 24.52300866 13.75526659 24.56971545 16.4140625 24.62109375 C17.63948509 24.62293671 17.63948509 24.62293671 18.8896637 24.62481689 C24.58328706 24.76870159 27.92701179 25.98304192 32.62890625 29.23046875 C37.18059867 34.14150531 38.00290429 38.08272713 37.8984375 44.59765625 C37.39642668 49.50135612 35.72748464 53.3155241 32.05444336 56.66716003 C26.05196237 60.79785726 20.82551317 60.8901272 13.69140625 60.71875 C12.57072754 60.71167526 11.45004883 60.70460052 10.29541016 60.6973114 C6.73921089 60.66947043 3.18462434 60.60674737 -0.37109375 60.54296875 C-2.79164382 60.51787275 -5.21221874 60.49506187 -7.6328125 60.47460938 C-13.54618805 60.41967686 -19.45836809 60.33347239 -25.37109375 60.23046875 C-25.37109375 56.60046875 -25.37109375 52.97046875 -25.37109375 49.23046875 C-24.00380127 49.21588623 -22.63650879 49.20130371 -21.2277832 49.1862793 C-16.14906827 49.12825412 -11.07079472 49.0510209 -5.99243164 48.96801758 C-3.79556448 48.9347882 -1.59861235 48.90675009 0.59838867 48.8840332 C3.75866868 48.85045121 6.91817146 48.79813241 10.078125 48.7421875 C11.05851242 48.73579758 12.03889984 48.72940765 13.04899597 48.7228241 C19.86453744 48.62978765 19.86453744 48.62978765 25.62890625 45.23046875 C26.01583206 42.0705746 26.05950753 40.09167131 24.62890625 37.23046875 C21.0248271 36.02910903 17.7130479 36.07623892 13.9609375 36.0546875 C12.41209598 36.03147594 10.86326783 36.00735807 9.31445312 35.98242188 C6.88329284 35.94743587 4.45262064 35.91803097 2.02124023 35.90454102 C-14.82206167 35.79290498 -14.82206167 35.79290498 -21.37109375 31.23046875 C-26.26667849 26.08382839 -26.66729765 21.80936419 -26.5859375 14.95703125 C-26.20637625 10.14005397 -24.49122725 7.38260606 -21.18359375 3.98046875 C-14.62267007 -0.10188376 -7.4915789 -0.05863807 0 0 Z " fill="#100F0A" transform="translate(27.37109375,8.76953125)"/>
<path d="M0 0 C4.95 0 9.9 0 15 0 C15 8.91 15 17.82 15 27 C16.32 27 17.64 27 19 27 C19.33 28.32 19.66 29.64 20 31 C18.35 32.32 16.7 33.64 15 35 C17.31 35.66 19.62 36.32 22 37 C21.375 38.875 21.375 38.875 20 41 C16.875 42.25 16.875 42.25 14 43 C14.495 43.495 14.495 43.495 15 44 C15.07313567 46.53049402 15.09247527 49.03304837 15.0625 51.5625 C15.05798828 52.27341797 15.05347656 52.98433594 15.04882812 53.71679688 C15.03700864 55.47790013 15.01907263 57.23896036 15 59 C13.06325815 59.19517554 11.12555991 59.38087873 9.1875 59.5625 C8.10855469 59.66691406 7.02960938 59.77132812 5.91796875 59.87890625 C3 60 3 60 0 59 C0 54.05 0 49.1 0 44 C-2.97 44 -5.94 44 -9 44 C-8.96744792 41.78645833 -8.93489583 39.57291667 -8.90234375 37.359375 C-8.90967629 35.02564794 -8.90967629 35.02564794 -9.56640625 32.953125 C-10 31 -10 31 -9 27 C-6.03 27 -3.06 27 0 27 C0 18.09 0 9.18 0 0 Z M7 5 C6.67 7.64 6.34 10.28 6 13 C6.99 13.495 6.99 13.495 8 14 C8 11.03 8 8.06 8 5 C7.67 5 7.34 5 7 5 Z M7 25 C8 27 8 27 8 27 Z M9 34 C7.02 34.33 5.04 34.66 3 35 C3 35.33 3 35.66 3 36 C5.31 36 7.62 36 10 36 C9.67 35.34 9.34 34.68 9 34 Z M7 45 C6.67 47.64 6.34 50.28 6 53 C6.99 53.495 6.99 53.495 8 54 C8 51.03 8 48.06 8 45 C7.67 45 7.34 45 7 45 Z " fill="#110E0A" transform="translate(80,10)"/>
<path d="M0 0 C9.57 0 19.14 0 29 0 C29 1.98 29 3.96 29 6 C30.32 6 31.64 6 33 6 C33.33 4.02 33.66 2.04 34 0 C35.32 0 36.64 0 38 0 C39.35808067 -0.01078237 40.71615391 -0.02253572 42.07421875 -0.03515625 C43.61197832 -0.0444119 45.14973878 -0.05352224 46.6875 -0.0625 C47.47189453 -0.07087891 48.25628906 -0.07925781 49.06445312 -0.08789062 C51.04316717 -0.09644168 53.02196544 -0.0525514 55 0 C56 1 56 1 56.0625 3.5625 C56.041875 4.366875 56.02125 5.17125 56 6 C57.32 6 58.64 6 60 6 C60 4.02 60 2.04 60 0 C63.63 0 67.26 0 71 0 C73 4 73 4 73 6 C74.32 4.02 75.64 2.04 77 0 C80 1 80 1 82 4 C82.33 2.68 82.66 1.36 83 0 C83.99 0 84.98 0 86 0 C86 1.98 86 3.96 86 6 C87.65 6 89.3 6 91 6 C91 6.99 91 7.98 91 9 C85.85238449 9.08995833 81.046678 9.13957245 76 8 C75.67 8.33 75.34 8.66 75 9 C71.15402433 9.32049797 68.49028148 8.59555725 65 7 C65 7.66 65 8.32 65 9 C63.37509046 9.02698189 61.75005367 9.04638757 60.125 9.0625 C58.76761719 9.07990234 58.76761719 9.07990234 57.3828125 9.09765625 C55 9 55 9 53 8 C53 6.02 53 4.04 53 2 C52.34 2.33 51.68 2.66 51 3 C50.34227572 6.02934491 50.34227572 6.02934491 50 9 C49.01 8.67 48.02 8.34 47 8 C46.505 5.525 46.505 5.525 46 3 C44.02 3 42.04 3 40 3 C39.67 3.66 39.34 4.32 39 5 C40.98 5.33 42.96 5.66 45 6 C45 6.99 45 7.98 45 9 C37.66666667 9 30.33333333 9 23 9 C23 8.34 23 7.68 23 7 C21.68 7 20.36 7 19 7 C19 7.66 19 8.32 19 9 C18.34 9 17.68 9 17 9 C17 6.69 17 4.38 17 2 C16.01 2 15.02 2 14 2 C14 4.31 14 6.62 14 9 C13.01 9 12.02 9 11 9 C11 6.69 11 4.38 11 2 C10.01 2.33 9.02 2.66 8 3 C8.185625 3.61875 8.37125 4.2375 8.5625 4.875 C9 7 9 7 8 9 C5.36 9 2.72 9 0 9 C0 6.03 0 3.06 0 0 Z M19 2 C19 2.66 19 3.32 19 4 C20.32 4 21.64 4 23 4 C23 3.34 23 2.68 23 2 C21.68 2 20.36 2 19 2 Z M65 2 C65 2.66 65 3.32 65 4 C66.32 4 67.64 4 69 4 C68.67 3.34 68.34 2.68 68 2 C67.01 2 66.02 2 65 2 Z M77 3 C78 5 78 5 78 5 Z " fill="#060606" transform="translate(2,79)"/>
<path d="M0 0 C4.95 0 9.9 0 15 0 C15 8.91 15 17.82 15 27 C12.69 27.33 10.38 27.66 8 28 C7.67 27.34 7.34 26.68 7 26 C6.67 26.66 6.34 27.32 6 28 C4.35 28 2.7 28 1 28 C-0.35700647 25.28598706 -0.1123861 23.15153684 -0.09765625 20.1171875 C-0.09443359 18.95058594 -0.09121094 17.78398437 -0.08789062 16.58203125 C-0.07951172 15.35871094 -0.07113281 14.13539062 -0.0625 12.875 C-0.05798828 11.64394531 -0.05347656 10.41289062 -0.04882812 9.14453125 C-0.03701341 6.09633361 -0.0190775 3.04816084 0 0 Z M7 5 C6.67 7.64 6.34 10.28 6 13 C6.99 13.495 6.99 13.495 8 14 C8 11.03 8 8.06 8 5 C7.67 5 7.34 5 7 5 Z " fill="#A4292F" transform="translate(80,10)"/>
<path d="M0 0 C1.49536133 1.15356445 1.49536133 1.15356445 3 3 C3.2487793 5.54370117 3.2487793 5.54370117 3.07421875 8.54296875 C3.01943359 9.61611328 2.96464844 10.68925781 2.90820312 11.79492188 C2.83537109 12.91447266 2.76253906 14.03402344 2.6875 15.1875 C2.62626953 16.31865234 2.56503906 17.44980469 2.50195312 18.61523438 C2.34860123 21.4109573 2.17610758 24.2056182 2 27 C-2.62 27 -7.24 27 -12 27 C-12.19502282 24.08365878 -12.38129328 21.16720455 -12.5625 18.25 C-12.61857422 17.425 -12.67464844 16.6 -12.73242188 15.75 C-12.78076172 14.95078125 -12.82910156 14.1515625 -12.87890625 13.328125 C-12.9260376 12.5949707 -12.97316895 11.86181641 -13.02172852 11.10644531 C-13 9 -13 9 -12 5 C-8.04 4.01 -4.08 3.02 0 2 C0 1.34 0 0.68 0 0 Z M-6 13 C-6 15.97 -6 18.94 -6 22 C-5.34 22 -4.68 22 -4 22 C-4 19.03 -4 16.06 -4 13 C-4.66 13 -5.32 13 -6 13 Z " fill="#BA282E" transform="translate(133,42)"/>
<path d="M0 0 C4.62 0 9.24 0 14 0 C16.21621622 17.17567568 16.21621622 17.17567568 13 22 C8.29610889 23.71872944 5.12290525 24 0 24 C0 16.08 0 8.16 0 0 Z M6 5 C6 7.97 6 10.94 6 14 C6.66 14 7.32 14 8 14 C8 11.03 8 8.06 8 5 C7.34 5 6.68 5 6 5 Z " fill="#B1292E" transform="translate(121,10)"/>
<path d="M0 0 C5.07198888 -0.07413521 10.14366268 -0.12859451 15.21606445 -0.16479492 C16.94170627 -0.17988516 18.66730972 -0.20035975 20.39282227 -0.22631836 C22.87265488 -0.26269209 25.35198064 -0.27972359 27.83203125 -0.29296875 C28.60400345 -0.30845261 29.37597565 -0.32393646 30.17134094 -0.33988953 C35.54769033 -0.34158031 35.54769033 -0.34158031 38.01049805 1.51831055 C38.33703369 2.00726807 38.66356934 2.49622559 39 3 C39.33 2.01 39.66 1.02 40 0 C40.66 0 41.32 0 42 0 C42 2.97 42 5.94 42 9 C38 7 38 7 37 6 C36.67 6.99 36.34 7.98 36 9 C34.58376784 9.05447047 33.16691809 9.09300508 31.75 9.125 C30.96109375 9.14820312 30.1721875 9.17140625 29.359375 9.1953125 C26.79268059 8.9828378 25.2083933 8.28654105 23 7 C23 7.66 23 8.32 23 9 C22.360625 8.814375 21.72125 8.62875 21.0625 8.4375 C20.0415625 8.2209375 20.0415625 8.2209375 19 8 C18.67 8.33 18.34 8.66 18 9 C15.125 9.3125 15.125 9.3125 12 9 C9.73599988 6.73599988 9.01741456 5.05224368 8 2 C8 3.98 8 5.96 8 8 C6.68 8 5.36 8 4 8 C4 6.02 4 4.04 4 2 C3.34 2 2.68 2 2 2 C2 4.31 2 6.62 2 9 C1.34 9 0.68 9 0 9 C0 6.03 0 3.06 0 0 Z M13 2 C12.67 3.32 12.34 4.64 12 6 C13.65 6 15.3 6 17 6 C17.33 5.34 17.66 4.68 18 4 C17.67 3.34 17.34 2.68 17 2 C15.68 2 14.36 2 13 2 Z M23 2 C23 2.66 23 3.32 23 4 C24.32 4 25.64 4 27 4 C27 3.34 27 2.68 27 2 C25.68 2 24.36 2 23 2 Z M29 5 C30 7 30 7 30 7 Z " fill="#040404" transform="translate(184,79)"/>
<path d="M0 0 C1.08410156 -0.00257812 2.16820313 -0.00515625 3.28515625 -0.0078125 C5.9375 0.125 5.9375 0.125 6.9375 1.125 C7.01063567 3.65549402 7.02997527 6.15804837 7 8.6875 C6.99548828 9.39841797 6.99097656 10.10933594 6.98632812 10.84179688 C6.97450864 12.60290013 6.95657263 14.36396036 6.9375 16.125 C5.00075815 16.32017554 3.06305991 16.50587873 1.125 16.6875 C-0.49341797 16.84412109 -0.49341797 16.84412109 -2.14453125 17.00390625 C-5.0625 17.125 -5.0625 17.125 -8.0625 16.125 C-8.0625 11.175 -8.0625 6.225 -8.0625 1.125 C-5.31744537 -0.24752731 -3.05922588 -0.00729255 0 0 Z M-1.0625 2.125 C-1.3925 4.765 -1.7225 7.405 -2.0625 10.125 C-1.0725 10.62 -1.0725 10.62 -0.0625 11.125 C-0.0625 8.155 -0.0625 5.185 -0.0625 2.125 C-0.3925 2.125 -0.7225 2.125 -1.0625 2.125 Z " fill="#AB2D32" transform="translate(88.0625,52.875)"/>
<path d="M0 0 C0.99 0 1.98 0 3 0 C3 0.99 3 1.98 3 3 C3.99 3 4.98 3 6 3 C6 2.01 6 1.02 6 0 C9.63 0 13.26 0 17 0 C17 2 17 4 17 6 C17.598125 5.01 18.19625 4.02 18.8125 3 C19.534375 2.01 20.25625 1.02 21 0 C21.99 0 22.98 0 24 0 C25.6875 2.5 25.6875 2.5 27 5 C27.33 3.35 27.66 1.7 28 0 C28.99 0 29.98 0 31 0 C31 1.98 31 3.96 31 6 C32.65 6 34.3 6 36 6 C36 6.99 36 7.98 36 9 C32.37 9 28.74 9 25 9 C25 8.34 25 7.68 25 7 C23.35 7 21.7 7 20 7 C20 7.66 20 8.32 20 9 C15.38 9 10.76 9 6 9 C6 7.68 6 6.36 6 5 C5.01 5 4.02 5 3 5 C3 6.32 3 7.64 3 9 C2.01 9 1.02 9 0 9 C0 6.03 0 3.06 0 0 Z M22 3 C23 5 23 5 23 5 Z " fill="#050506" transform="translate(96,79)"/>
<path d="M0 0 C0 0.66 0 1.32 0 2 C-1.11375 2.103125 -2.2275 2.20625 -3.375 2.3125 C-4.57125 2.539375 -5.7675 2.76625 -7 3 C-7.99 4.485 -7.99 4.485 -9 6 C-8.01 6.33 -7.02 6.66 -6 7 C-5.67 6.01 -5.34 5.02 -5 4 C2.75 2.875 2.75 2.875 5 4 C3.962937 6.84434238 3.21445751 7.87187804 0.57421875 9.44921875 C-0.37839844 9.85785156 -1.33101562 10.26648437 -2.3125 10.6875 C-3.25738281 11.10386719 -4.20226562 11.52023438 -5.17578125 11.94921875 C-7.805472 12.92762374 -10.24097736 13.5302821 -13 14 C-14.155 14.2475 -15.31 14.495 -16.5 14.75 C-20.46877623 15.03348402 -21.88431803 14.36036513 -25 12 C-24.01 12 -23.02 12 -22 12 C-18.96648307 9.57318646 -17.51248491 6.60803647 -16.34765625 2.953125 C-15 1 -15 1 -12.03125 0.13671875 C-10.28328125 -0.08564453 -10.28328125 -0.08564453 -8.5 -0.3125 C-7.3346875 -0.47363281 -6.169375 -0.63476562 -4.96875 -0.80078125 C-2 -1 -2 -1 0 0 Z " fill="#170F0B" transform="translate(136,33)"/>
<path d="M0 0 C0.66 0 1.32 0 2 0 C2.66 0.99 3.32 1.98 4 3 C4.66 2.01 5.32 1.02 6 0 C6.66 0 7.32 0 8 0 C8.33 0.66 8.66 1.32 9 2 C9.66 1.34 10.32 0.68 11 0 C15.88313426 -0.27640383 20.56567152 -0.21716424 25 2 C25 2.66 25 3.32 25 4 C25.66 4 26.32 4 27 4 C27 2.68 27 1.36 27 0 C27.66 0 28.32 0 29 0 C29 2.97 29 5.94 29 9 C25 7 25 7 22 5 C22 6.32 22 7.64 22 9 C20.68 9 19.36 9 18 9 C16.75863281 9.03480469 16.75863281 9.03480469 15.4921875 9.0703125 C14.62851563 9.08835937 13.76484375 9.10640625 12.875 9.125 C12.00617188 9.14820312 11.13734375 9.17140625 10.2421875 9.1953125 C8 9 8 9 6 7 C5.67 7.66 5.34 8.32 5 9 C3.68 8.34 2.36 7.68 1 7 C0.67 7.66 0.34 8.32 0 9 C-0.66 9 -1.32 9 -2 9 C-1.125 1.125 -1.125 1.125 0 0 Z M13 2 C12.67 3.32 12.34 4.64 12 6 C13.65 6 15.3 6 17 6 C16.67 4.68 16.34 3.36 16 2 C15.01 2 14.02 2 13 2 Z " fill="#040404" transform="translate(154,79)"/>
<path d="M0 0 C2.475 0.495 2.475 0.495 5 1 C4.67 1.66 4.34 2.32 4 3 C4.08744368 4.87862875 4.24175542 6.75455181 4.4375 8.625 C4.59025391 10.12933594 4.59025391 10.12933594 4.74609375 11.6640625 C4.82988281 12.43492188 4.91367188 13.20578125 5 14 C5.928125 13.7215625 5.928125 13.7215625 6.875 13.4375 C9 13 9 13 11 14 C11.33 13.01 11.66 12.02 12 11 C12.35430394 14.18873549 12.25953249 15.61589191 10.4375 18.3125 C7.185351 20.56398777 4.86806995 20.29754384 1 20 C0.09761253 17.29283758 -0.11851302 15.76223232 -0.09765625 12.98828125 C-0.09443359 12.23095703 -0.09121094 11.47363281 -0.08789062 10.69335938 C-0.07951172 9.90767578 -0.07113281 9.12199219 -0.0625 8.3125 C-0.05798828 7.51521484 -0.05347656 6.71792969 -0.04882812 5.89648438 C-0.0370585 3.93095743 -0.01912348 1.96546915 0 0 Z " fill="#BA272D" transform="translate(122,12)"/>
<path d="M0 0 C-0.99 0.33 -1.98 0.66 -3 1 C-4.36952673 3.73905345 -4.12621361 5.97087332 -4 9 C-3.67 9.66 -3.34 10.32 -3 11 C-2.67 9.35 -2.34 7.7 -2 6 C-0.35 6 1.3 6 3 6 C3 9.96 3 13.92 3 18 C1.35 17.67 -0.3 17.34 -2 17 C-2 16.34 -2 15.68 -2 15 C-2.66 15 -3.32 15 -4 15 C-4 16.65 -4 18.3 -4 20 C-0.37 20 3.26 20 7 20 C7.33 20.66 7.66 21.32 8 22 C3.38 22 -1.24 22 -6 22 C-6.19502282 19.08365878 -6.38129328 16.16720455 -6.5625 13.25 C-6.61857422 12.425 -6.67464844 11.6 -6.73242188 10.75 C-6.78076172 9.95078125 -6.82910156 9.1515625 -6.87890625 8.328125 C-6.9260376 7.5949707 -6.97316895 6.86181641 -7.02172852 6.10644531 C-6.99874705 3.87853472 -6.74174388 2.10127368 -6 0 C-3.50907189 -1.24546405 -2.58919267 -0.7767578 0 0 Z M0 8 C0 10.97 0 13.94 0 17 C0.66 17 1.32 17 2 17 C2 14.03 2 11.06 2 8 C1.34 8 0.68 8 0 8 Z " fill="#912429" transform="translate(127,47)"/>
<path d="M0 0 C0.66 0.33 1.32 0.66 2 1 C2 1.99 2 2.98 2 4 C2.66 4 3.32 4 4 4 C4.66 2.68 5.32 1.36 6 0 C6.33 4.95 6.66 9.9 7 15 C6.01 15 5.02 15 4 15 C4 14.34 4 13.68 4 13 C2.68 13.33 1.36 13.66 0 14 C0 14.66 0 15.32 0 16 C-0.99 16 -1.98 16 -3 16 C-3 11.05 -3 6.1 -3 1 C-2.01 0.67 -1.02 0.34 0 0 Z " fill="#BD272C" transform="translate(85,19)"/>
<path d="M0 0 C0 0.66 0 1.32 0 2 C1.98 2 3.96 2 6 2 C4.66666667 3.33333333 3.33333333 4.66666667 2 6 C5.3 6 8.6 6 12 6 C12.33 6.66 12.66 7.32 13 8 C10.27498092 8.90833969 8.37766029 9.18359985 5.55078125 9.31640625 C4.27944336 9.37924805 4.27944336 9.37924805 2.98242188 9.44335938 C1.66081055 9.50233398 1.66081055 9.50233398 0.3125 9.5625 C-0.58017578 9.60568359 -1.47285156 9.64886719 -2.39257812 9.69335938 C-4.59490108 9.79935353 -6.79733473 9.90142051 -9 10 C-8.3671875 4.296875 -8.3671875 4.296875 -5.0625 1.625 C-2 0 -2 0 0 0 Z " fill="#150F0C" transform="translate(83,44)"/>
<path d="M0 0 C4.62 0 9.24 0 14 0 C16.21621622 17.17567568 16.21621622 17.17567568 13 22 C8.29610889 23.71872944 5.12290525 24 0 24 C0 16.08 0 8.16 0 0 Z M1 1 C0.9730499 3.93756119 0.95318526 6.87487555 0.9375 9.8125 C0.92912109 10.64587891 0.92074219 11.47925781 0.91210938 12.33789062 C0.90888672 13.14033203 0.90566406 13.94277344 0.90234375 14.76953125 C0.89710693 15.50792236 0.89187012 16.24631348 0.88647461 17.00708008 C0.92476787 19.21057409 0.92476787 19.21057409 2 22 C6.8750747 22.43572147 6.8750747 22.43572147 11.21875 20.53125 C13.82316537 16.83023869 13.4399867 13.65623008 13.25 9.25 C13.23195312 8.45722656 13.21390625 7.66445313 13.1953125 6.84765625 C13.14833082 4.89791652 13.07659044 2.94880122 13 1 C9.04 1 5.08 1 1 1 Z " fill="#922D31" transform="translate(121,10)"/>
<path d="M0 0 C3.3 0 6.6 0 10 0 C10 0.99 10 1.98 10 3 C11.32 3 12.64 3 14 3 C14 2.01 14 1.02 14 0 C14.99 0.33 15.98 0.66 17 1 C17 3.31 17 5.62 17 8 C13 8 13 8 11.25 6.5 C10.63125 5.7575 10.63125 5.7575 10 5 C10 6.32 10 7.64 10 9 C9.34 9 8.68 9 8 9 C8 6.69 8 4.38 8 2 C7.01 2 6.02 2 5 2 C5 4.31 5 6.62 5 9 C4.01 9 3.02 9 2 9 C2 6.69 2 4.38 2 2 C1.34 2 0.68 2 0 2 C0 1.34 0 0.68 0 0 Z " fill="#040405" transform="translate(132,79)"/>
<path d="M0 0 C3 0 3 0 4.6875 1.625 C6.43650303 4.78986263 6.56218304 6.41608315 6 10 C4.54270769 12.51484125 2.85235863 14.76393851 1 17 C0.01 16.34 -0.98 15.68 -2 15 C-1.34 10.05 -0.68 5.1 0 0 Z " fill="#141210" transform="translate(151,13)"/>
<path d="M0 0 C4.29 0 8.58 0 13 0 C13 0.33 13 0.66 13 1 C9.37 1.33 5.74 1.66 2 2 C1.67 2.99 1.34 3.98 1 5 C2.32 5 3.64 5 5 5 C5 4.34 5 3.68 5 3 C6.32 3.33 7.64 3.66 9 4 C9 6.64 9 9.28 9 12 C8.01 12.495 8.01 12.495 7 13 C6.67 11.35 6.34 9.7 6 8 C3.90948181 9.05413634 3.90948181 9.05413634 2 11 C1.29875226 14.18596662 1.29875226 14.18596662 1.25 17.6875 C1.19328125 18.86699219 1.1365625 20.04648437 1.078125 21.26171875 C1.03945312 22.61716797 1.03945312 22.61716797 1 24 C0.67 24 0.34 24 0 24 C0 16.08 0 8.16 0 0 Z " fill="#A92B2F" transform="translate(81,11)"/>
<path d="M0 0 C-0.33 6.6 -0.66 13.2 -1 20 C-4.96 19.67 -8.92 19.34 -13 19 C-13 17.35 -13 15.7 -13 14 C-12.34 14 -11.68 14 -11 14 C-10.67 14.66 -10.34 15.32 -10 16 C-8.34178227 16.37309899 -6.67422986 16.70700977 -5 17 C-4.67 17.33 -4.34 17.66 -4 18 C-4.05220703 16.55367187 -4.05220703 16.55367187 -4.10546875 15.078125 C-4.13253906 13.81484375 -4.15960938 12.5515625 -4.1875 11.25 C-4.23970703 9.37054688 -4.23970703 9.37054688 -4.29296875 7.453125 C-4.07788137 4.91796178 -3.54311391 0 0 0 Z " fill="#AE3033" transform="translate(136,48)"/>
<path d="M0 0 C1.134375 0.020625 2.26875 0.04125 3.4375 0.0625 C4.50296953 3.2589086 4.51177838 5.71997276 4.4375 9.0625 C-2.3125 9.1875 -2.3125 9.1875 -4.5625 8.0625 C-4.60491723 5.72955225 -4.60342937 3.39547433 -4.5625 1.0625 C-3.5625 0.0625 -3.5625 0.0625 0 0 Z M-2.5625 3.0625 C-2.5625 4.0525 -2.5625 5.0425 -2.5625 6.0625 C-0.9125 6.0625 0.7375 6.0625 2.4375 6.0625 C1.798125 5.93875 1.15875 5.815 0.5 5.6875 C-0.180625 5.48125 -0.86125 5.275 -1.5625 5.0625 C-1.8925 4.4025 -2.2225 3.7425 -2.5625 3.0625 Z " fill="#050505" transform="translate(231.5625,78.9375)"/>
<path d="M0 0 C1.65 0 3.3 0 5 0 C5 3.96 5 7.92 5 12 C3.35 11.67 1.7 11.34 0 11 C0 10.34 0 9.68 0 9 C-0.99 9 -1.98 9 -3 9 C-3 7.02 -3 5.04 -3 3 C-2.34 3.66 -1.68 4.32 -1 5 C-0.67 3.35 -0.34 1.7 0 0 Z M2 2 C2 4.97 2 7.94 2 11 C2.66 11 3.32 11 4 11 C4 8.03 4 5.06 4 2 C3.34 2 2.68 2 2 2 Z " fill="#A8242A" transform="translate(125,53)"/>
<path d="M0 0 C3.125 0.375 3.125 0.375 6 1 C5.67 1.99 5.34 2.98 5 4 C3.07421875 4.66015625 3.07421875 4.66015625 0.6875 5.0625 C-2.55886568 5.62591884 -5.10699985 6.40454683 -8 8 C-8 6.33333333 -8 4.66666667 -8 3 C-6.35 3.33 -4.7 3.66 -3 4 C-2.67 3.34 -2.34 2.68 -2 2 C-1.34 1.34 -0.68 0.68 0 0 Z " fill="#0B0703" transform="translate(136,32)"/>
<path d="M0 0 C0.99 0.33 1.98 0.66 3 1 C1.95285594 3.91704415 1.18809437 4.88969775 -1.53125 6.484375 C-2.5109375 6.90203125 -3.490625 7.3196875 -4.5 7.75 C-5.4796875 8.17796875 -6.459375 8.6059375 -7.46875 9.046875 C-10 10 -10 10 -12 10 C-11.67 9.01 -11.34 8.02 -11 7 C-9.68 7 -8.36 7 -7 7 C-7 6.34 -7 5.68 -7 5 C-6.34 5 -5.68 5 -5 5 C-4.67 4.34 -4.34 3.68 -4 3 C-3.34 3.33 -2.68 3.66 -2 4 C-1.34 2.68 -0.68 1.36 0 0 Z " fill="#2F0F0D" transform="translate(138,36)"/>
<path d="M0 0 C0.33 0.66 0.66 1.32 1 2 C2.65 2 4.3 2 6 2 C6.33 1.34 6.66 0.68 7 0 C7.556875 0.165 8.11375 0.33 8.6875 0.5 C11.18691249 1.04041351 13.45045662 1.07082065 16 1 C15.67 1.99 15.34 2.98 15 4 C12.69 3.67 10.38 3.34 8 3 C8 3.99 8 4.98 8 6 C8.66 6.33 9.32 6.66 10 7 C9.01 7.33 8.02 7.66 7 8 C6.67 7.34 6.34 6.68 6 6 C6.33 5.01 6.66 4.02 7 3 C4.36 3 1.72 3 -1 3 C-0.67 2.01 -0.34 1.02 0 0 Z " fill="#2E0C09" transform="translate(80,36)"/>
<path d="M0 0 C0.99 0 1.98 0 3 0 C5 3 5 3 4.625 6.1875 C4.41875 7.115625 4.2125 8.04375 4 9 C3.01 9 2.02 9 1 9 C0.67 6.03 0.34 3.06 0 0 Z " fill="#1A1917" transform="translate(151,13)"/>
<path d="M0 0 C1.98 0 3.96 0 6 0 C6.33 1.32 6.66 2.64 7 4 C5.35 4.33 3.7 4.66 2 5 C3.32 5.66 4.64 6.32 6 7 C4.02 7 2.04 7 0 7 C-0.93423645 3.98968256 -1.04449911 3.13349732 0 0 Z " fill="#0E0E10" transform="translate(106,80)"/>
<path d="M0 0 C4.95 0 9.9 0 15 0 C14.01 1.485 14.01 1.485 13 3 C11.02013918 2.88652381 9.04108402 2.7589065 7.0625 2.625 C5.96035156 2.55539062 4.85820313 2.48578125 3.72265625 2.4140625 C2.82417969 2.27742187 1.92570312 2.14078125 1 2 C0.67 1.34 0.34 0.68 0 0 Z " fill="#060201" transform="translate(113,2)"/>
<path d="M0 0 C4.73943655 5.60115228 5.24322543 10.94646251 5 18 C1.44282388 12.66423581 0.78316521 6.26532165 0 0 Z " fill="#080704" transform="translate(220,50)"/>
<path d="M0 0 C-3.52679099 2.35119399 -5.02879485 2.21443452 -9.1875 2.125 C-10.27417969 2.10695312 -11.36085938 2.08890625 -12.48046875 2.0703125 C-13.72763672 2.03550781 -13.72763672 2.03550781 -15 2 C-10.22972849 -1.18018101 -5.48771498 -1.49664954 0 0 Z " fill="#411915" transform="translate(96,51)"/>
<path d="M0 0 C0 0.66 0 1.32 0 2 C1.65 2 3.3 2 5 2 C5 2.66 5 3.32 5 4 C1.04 4 -2.92 4 -7 4 C-6.01 3.67 -5.02 3.34 -4 3 C-4 2.34 -4 1.68 -4 1 C-2 0 -2 0 0 0 Z " fill="#AF3138" transform="translate(89,32)"/>
<path d="M0 0 C0 0.66 0 1.32 0 2 C-2.82445592 2.94148531 -4.14171618 3.07311695 -7.01171875 2.87890625 C-7.76904297 2.83056641 -8.52636719 2.78222656 -9.30664062 2.73242188 C-10.09232422 2.67634766 -10.87800781 2.62027344 -11.6875 2.5625 C-12.48478516 2.51029297 -13.28207031 2.45808594 -14.10351562 2.40429688 C-16.06936522 2.27480978 -18.03473665 2.13809959 -20 2 C-20 1.67 -20 1.34 -20 1 C-17.4167588 0.83178895 -14.83342301 0.66537483 -12.25 0.5 C-11.52039062 0.45230469 -10.79078125 0.40460937 -10.0390625 0.35546875 C-6.68189836 0.14183103 -3.36563724 0 0 0 Z " fill="#1B1915" transform="translate(53,34)"/>
<path d="M0 0 C0 0.66 0 1.32 0 2 C-1.43640171 2.19573608 -2.87419504 2.38127816 -4.3125 2.5625 C-5.11300781 2.66691406 -5.91351563 2.77132812 -6.73828125 2.87890625 C-9 3 -9 3 -12 2 C-12 1.67 -12 1.34 -12 1 C-10.37681021 0.63762737 -8.7513642 0.28534843 -7.125 -0.0625 C-6.22007812 -0.25972656 -5.31515625 -0.45695312 -4.3828125 -0.66015625 C-2 -1 -2 -1 0 0 Z " fill="#2C0F0C" transform="translate(136,33)"/>
<path d="M0 0 C2.64 0 5.28 0 8 0 C8 2.31 8 4.62 8 7 C5.525 6.01 5.525 6.01 3 5 C4.32 3.68 5.64 2.36 7 1 C5.02 1.33 3.04 1.66 1 2 C0.67 1.34 0.34 0.68 0 0 Z " fill="#0D0D0D" transform="translate(65,80)"/>
<path d="M0 0 C2.0625 0.4375 2.0625 0.4375 4 1 C3.67 2.98 3.34 4.96 3 7 C2.01 6.67 1.02 6.34 0 6 C-0.38218767 4.34385343 -0.71395102 2.67542976 -1 1 C-0.67 0.67 -0.34 0.34 0 0 Z " fill="#030303" transform="translate(49,81)"/>
<path d="M0 0 C1.98 0 3.96 0 6 0 C4.68 0.33 3.36 0.66 2 1 C2 1.66 2 2.32 2 3 C3.32 3.66 4.64 4.32 6 5 C4.02 5.33 2.04 5.66 0 6 C0 4.02 0 2.04 0 0 Z " fill="#121213" transform="translate(19,80)"/>
<path d="M0 0 C1.32 0.33 2.64 0.66 4 1 C4 1.99 4 2.98 4 4 C5.32 4.66 6.64 5.32 8 6 C5.6875 6.25 5.6875 6.25 3 6 C1.02389614 3.95575462 0 2.8823175 0 0 Z " fill="#080706" transform="translate(187,64)"/>
<path d="M0 0 C1.231394 3.69418201 0.64432764 6.2056261 0 10 C-0.99 9.67 -1.98 9.34 -3 9 C-1.125 2.25 -1.125 2.25 0 0 Z " fill="#1B1A15" transform="translate(13,21)"/>
<path d="M0 0 C0.66 0 1.32 0 2 0 C2.33 0.99 2.66 1.98 3 3 C3.66 3 4.32 3 5 3 C5 3.99 5 4.98 5 6 C4.01 6.33 3.02 6.66 2 7 C0.5393715 4.35261084 0 3.10551666 0 0 Z " fill="#0B0B0B" transform="translate(160,79)"/>
<path d="M0 0 C1.65 0 3.3 0 5 0 C6.80411967 2.75924185 7.0127245 3.88972103 6.625 7.25 C6.41875 8.1575 6.2125 9.065 6 10 C5.67 10 5.34 10 5 10 C4.57682292 7.98177083 4.15364583 5.96354167 3.73046875 3.9453125 C3.07691162 1.62953451 3.07691162 1.62953451 0 0 Z " fill="#080704" transform="translate(49,44)"/>
<path d="M0 0 C2.475 0.495 2.475 0.495 5 1 C4.34 2.98 3.68 4.96 3 7 C2.34 7 1.68 7 1 7 C0.67 4.69 0.34 2.38 0 0 Z " fill="#BF2D2F" transform="translate(122,12)"/>
<path d="M0 0 C2.31 0 4.62 0 7 0 C7.33 0.66 7.66 1.32 8 2 C5.36 2.33 2.72 2.66 0 3 C0 2.01 0 1.02 0 0 Z " fill="#09090A" transform="translate(228,79)"/>
<path d="M0 0 C0.8971875 0.5259375 0.8971875 0.5259375 1.8125 1.0625 C0.843125 1.18625 -0.12625 1.31 -1.125 1.4375 C-2.135625 1.64375 -3.14625 1.85 -4.1875 2.0625 C-4.5175 2.7225 -4.8475 3.3825 -5.1875 4.0625 C-5.8475 4.0625 -6.5075 4.0625 -7.1875 4.0625 C-6.375 2.125 -6.375 2.125 -5.1875 0.0625 C-2.1875 -0.9375 -2.1875 -0.9375 0 0 Z " fill="#090806" transform="translate(172.1875,9.9375)"/>
<path d="" fill="#000000" transform="translate(0,0)"/>
</svg>
