<?xml version="1.0" encoding="UTF-8"?>
<svg version="1.1" xmlns="http://www.w3.org/2000/svg" width="357" height="125">
<path d="M0 0 C2.08617763 1.53910308 4.16723077 3.08385585 6.234375 4.6484375 C6.08276367 6.45776367 6.08276367 6.45776367 5.234375 8.6484375 C1.81919717 10.88003832 -1.90253422 12.45945241 -5.61987305 14.13208008 C-7.43851433 14.95433166 -9.24188512 15.8100879 -11.04492188 16.66601562 C-12.19412109 17.19259766 -13.34332031 17.71917969 -14.52734375 18.26171875 C-15.57881592 18.74423096 -16.63028809 19.22674316 -17.71362305 19.72387695 C-21.21329133 20.78405164 -23.24368368 20.48167653 -26.765625 19.6484375 C-37.15968848 18.71744995 -45.03227014 19.67081942 -53.765625 25.6484375 C-56.45472016 28.03668724 -57.61825134 29.20631653 -58.765625 32.6484375 C-59.425625 32.6484375 -60.085625 32.6484375 -60.765625 32.6484375 C-64.03259898 42.70216101 -65.40983564 51.6211298 -61.51953125 61.67578125 C-60.765625 63.6484375 -60.765625 63.6484375 -59.765625 67.6484375 C-54.815625 65.3384375 -49.865625 63.0284375 -44.765625 60.6484375 C-46.085625 58.6684375 -47.405625 56.6884375 -48.765625 54.6484375 C-50.21678891 49.77667294 -49.64525253 46.34750632 -47.765625 41.6484375 C-43.82267563 36.91841186 -39.44511663 34.73945484 -33.953125 32.2734375 C-33.11434814 31.88623535 -32.27557129 31.4990332 -31.41137695 31.10009766 C-25.48029136 28.3769889 -19.50590162 25.74991121 -13.50170898 23.19213867 C-10.19873541 21.77179728 -6.98005196 20.27077441 -3.80078125 18.58984375 C-3.16374268 18.25484863 -2.5267041 17.91985352 -1.87036133 17.57470703 C-0.12440843 16.64393051 1.61010496 15.69178602 3.34375 14.73828125 C6.234375 13.6484375 6.234375 13.6484375 8.4375 14.19140625 C16.21054664 20.4943332 19.75896495 33.10745252 21.234375 42.6484375 C21.75150789 52.37451378 21.71386404 61.41957815 18.234375 70.6484375 C17.94433594 71.42445312 17.65429688 72.20046875 17.35546875 73 C14.12207562 80.87378579 9.56149771 87.9238979 3.234375 93.6484375 C2.68394531 94.19113281 2.13351563 94.73382813 1.56640625 95.29296875 C-9.51153383 105.77703988 -24.68330683 110.75756812 -39.79296875 110.62109375 C-54.32448588 109.91266069 -67.99886654 104.54221554 -78.765625 94.6484375 C-78.60961914 92.84130859 -78.60961914 92.84130859 -77.765625 90.6484375 C-73.84962671 88.02917807 -69.48027036 86.23331543 -65.203125 84.2734375 C-64.03458984 83.70238281 -62.86605469 83.13132812 -61.66210938 82.54296875 C-51.95846937 78.04415765 -51.95846937 78.04415765 -47.35546875 79.30078125 C-46.17082031 79.74550781 -44.98617187 80.19023438 -43.765625 80.6484375 C-34.54322706 81.05075687 -27.66068443 79.23967049 -19.765625 74.6484375 C-18.775625 74.3184375 -17.785625 73.9884375 -16.765625 73.6484375 C-15.75646467 71.88251863 -15.75646467 71.88251863 -14.765625 69.6484375 C-14.105625 68.6790625 -13.445625 67.7096875 -12.765625 66.7109375 C-8.63538954 60.38651445 -6.98883994 54.07836387 -8.3046875 46.57421875 C-9.48394611 41.73211143 -10.90987066 37.28782336 -12.765625 32.6484375 C-16.725625 34.2984375 -20.685625 35.9484375 -24.765625 37.6484375 C-23.775625 39.1025 -23.775625 39.1025 -22.765625 40.5859375 C-20.31888276 44.90268988 -19.86975984 48.77883379 -20.765625 53.6484375 C-23.92983172 59.54040863 -27.04896172 62.58555319 -33.21484375 65 C-39.42529774 67.49688077 -45.50227537 70.21721039 -51.578125 73.0234375 C-52.61549805 73.4987793 -53.65287109 73.97412109 -54.72167969 74.46386719 C-59.34000437 76.58424815 -63.94649317 78.72044591 -68.51171875 80.953125 C-69.19967529 81.28650879 -69.88763184 81.61989258 -70.59643555 81.96337891 C-72.38153305 82.83310584 -74.1598169 83.71677959 -75.9375 84.6015625 C-78.765625 85.6484375 -78.765625 85.6484375 -80.96875 85.58984375 C-87.42607779 82.2067655 -89.96355008 71.85837048 -92.00390625 65.41015625 C-96.21909605 50.12739119 -94.18650031 34.03022151 -87.140625 19.8984375 C-83.57417225 13.81717832 -78.92226525 8.44337097 -73.765625 3.6484375 C-73.105625 3.6484375 -72.445625 3.6484375 -71.765625 3.6484375 C-71.765625 2.9884375 -71.765625 2.3284375 -71.765625 1.6484375 C-48.79039529 -12.73726864 -23.21434251 -15.93282514 0 0 Z " fill="#FB0251" transform="translate(96.765625,12.3515625)"/>
<path d="M0 0 C1.33321289 0.08701172 1.33321289 0.08701172 2.69335938 0.17578125 C9.18953293 0.67360973 9.18953293 0.67360973 11.96020508 2.12524414 C12.5714624 2.41391357 13.18271973 2.70258301 13.8125 3 C14.5240625 2.54496094 15.235625 2.08992188 15.96875 1.62109375 C20.10890825 -0.73902393 23.65603004 -0.24056275 28.3125 0.0625 C29.15425781 0.09021484 29.99601562 0.11792969 30.86328125 0.14648438 C36.00218321 0.43377732 39.20805376 1.000451 42.8125 5 C44.62218216 8.71021974 45.06128192 11.67680305 45.05541992 15.78417969 C45.06003487 17.49054596 45.06003487 17.49054596 45.06474304 19.23138428 C45.05396477 21.05817719 45.05396477 21.05817719 45.04296875 22.921875 C45.04251053 24.17760315 45.04205231 25.4333313 45.0415802 26.72711182 C45.03856239 29.37664457 45.03176806 32.02582678 45.01831055 34.67529297 C45.00125183 38.07733154 44.99749846 41.47922173 44.99825573 44.88129807 C44.99791933 48.12400514 44.98909002 51.36668088 44.98046875 54.609375 C44.97935593 55.83533386 44.9782431 57.06129272 44.97709656 58.32440186 C44.97071671 59.44937073 44.96433685 60.5743396 44.95776367 61.73339844 C44.95395187 62.72869568 44.95014008 63.72399292 44.94621277 64.74945068 C44.8125 67 44.8125 67 43.8125 68 C41.30113896 68.09975032 38.82346585 68.13882183 36.3125 68.125 C35.60996094 68.12886719 34.90742188 68.13273437 34.18359375 68.13671875 C28.93911378 68.12661378 28.93911378 68.12661378 27.8125 67 C27.71896837 65.31198015 27.69505209 63.62004793 27.69897461 61.92944336 C27.69905014 60.84839828 27.69912567 59.76735321 27.69920349 58.65354919 C27.70436478 57.4775264 27.70952606 56.3015036 27.71484375 55.08984375 C27.7162587 53.89267227 27.71767365 52.69550079 27.71913147 51.46205139 C27.72475021 47.62050934 27.73730589 43.77902457 27.75 39.9375 C27.75501259 37.34049563 27.75957591 34.74349035 27.76367188 32.14648438 C27.77472573 25.76430321 27.79148208 19.3821557 27.8125 13 C25.8325 12.67 23.8525 12.34 21.8125 12 C21.81472061 12.68682358 21.81694122 13.37364716 21.81922913 14.08128357 C21.84127895 21.20205162 21.85640533 28.32281004 21.86743164 35.44360352 C21.87247383 38.10441481 21.87930736 40.76522332 21.88793945 43.42602539 C21.90001009 47.24105516 21.90572929 51.05604844 21.91015625 54.87109375 C21.91531754 56.06899033 21.92047882 57.2668869 21.92579651 58.50108337 C21.92587204 59.6021492 21.92594757 60.70321503 21.92602539 61.83764648 C21.928246 62.81249496 21.93046661 63.78734344 21.93275452 64.79173279 C21.8125 67 21.8125 67 20.8125 68 C18.30113896 68.09975032 15.82346585 68.13882183 13.3125 68.125 C12.60996094 68.12886719 11.90742188 68.13273437 11.18359375 68.13671875 C5.93911378 68.12661378 5.93911378 68.12661378 4.8125 67 C4.7189081 65.28134591 4.69505389 63.55884256 4.69897461 61.83764648 C4.69905014 60.73658066 4.69912567 59.63551483 4.69920349 58.50108337 C4.70436478 57.3031868 4.70952606 56.10529022 4.71484375 54.87109375 C4.7162587 53.65172623 4.71767365 52.4323587 4.71913147 51.17604065 C4.72475033 47.2631693 4.73730604 43.35035419 4.75 39.4375 C4.75501257 36.79231853 4.7595759 34.14713617 4.76367188 31.50195312 C4.77472589 25.00128274 4.79148236 18.50064539 4.8125 12 C2.8325 12.33 0.8525 12.66 -1.1875 13 C-1.5175 31.15 -1.8475 49.3 -2.1875 68 C-7.1375 68 -12.0875 68 -17.1875 68 C-19.31544516 65.87205484 -18.61885506 61.25366191 -18.75 58.3125 C-18.7910083 57.40072998 -18.8320166 56.48895996 -18.87426758 55.54956055 C-19.20979648 47.13910822 -19.32895124 38.72907566 -19.375 30.3125 C-19.38797119 29.04897705 -19.40094238 27.7854541 -19.41430664 26.48364258 C-19.43299611 7.6882641 -19.43299611 7.6882641 -14.19921875 2.375 C-9.6790992 -0.94982246 -5.37511252 -0.54501508 0 0 Z " fill="#F90553" transform="translate(310.1875,27)"/>
<path d="M0 0 C3 1 3 1 4.71875 3.73828125 C12.42721774 19.20593034 16.42238545 35.61339921 10.91015625 52.5859375 C10.60980469 53.38257813 10.30945313 54.17921875 10 55 C9.70996094 55.77601562 9.41992188 56.55203125 9.12109375 57.3515625 C5.88770062 65.22534829 1.32712271 72.2754604 -5 78 C-5.55042969 78.54269531 -6.10085937 79.08539063 -6.66796875 79.64453125 C-17.74590883 90.12860238 -32.91768183 95.10913062 -48.02734375 94.97265625 C-62.55886088 94.26422319 -76.23324154 88.89377804 -87 79 C-86.84399414 77.19287109 -86.84399414 77.19287109 -86 75 C-82.08400171 72.38074057 -77.71464536 70.58487793 -73.4375 68.625 C-72.26896484 68.05394531 -71.10042969 67.48289062 -69.89648438 66.89453125 C-60.19284437 62.39572015 -60.19284437 62.39572015 -55.58984375 63.65234375 C-54.40519531 64.09707031 -53.22054687 64.54179688 -52 65 C-42.77760206 65.40231937 -35.89505943 63.59123299 -28 59 C-27.01 58.67 -26.02 58.34 -25 58 C-23.99083967 56.23408113 -23.99083967 56.23408113 -23 54 C-22.34 53.030625 -21.68 52.06125 -21 51.0625 C-17.57741386 45.82166498 -16.6597671 41.38711697 -16.375 35.1875 C-16.33632812 34.49462891 -16.29765625 33.80175781 -16.2578125 33.08789062 C-16.16426432 31.39232985 -16.08107636 29.69620288 -16 28 C-15.34 28 -14.68 28 -14 28 C-11.36736314 33.26527373 -12.40119071 41.23479787 -13.61328125 46.83203125 C-15.90537237 53.243828 -19.85348644 58.5531056 -25 63 C-27.75390625 64.25 -27.75390625 64.25 -30 65 C-30 65.66 -30 66.32 -30 67 C-21.23244988 66.71206732 -15.00862858 66.08413357 -8.71875 59.67578125 C1.89753253 47.59458961 3.64896663 34.88936546 3.15820312 19.3359375 C2.84285246 14.67964873 1.7984437 10.24383964 0.65625 5.72265625 C0 3 0 3 0 0 Z " fill="#FB0353" transform="translate(105,28)"/>
<path d="M0 0 C0.70253906 0.00386719 1.40507812 0.00773437 2.12890625 0.01171875 C2.83144531 0.00785156 3.53398437 0.00398438 4.2578125 0 C9.50229247 0.01010497 9.50229247 0.01010497 10.62890625 1.13671875 C10.71648628 3.13636857 10.73587201 5.13907985 10.7265625 7.140625 C10.72333984 8.35556641 10.72011719 9.57050781 10.71679688 10.82226562 C10.70841797 12.10166016 10.70003906 13.38105469 10.69140625 14.69921875 C10.68689453 15.98248047 10.68238281 17.26574219 10.67773438 18.58789062 C10.6659017 21.77087897 10.64941693 24.95377637 10.62890625 28.13671875 C14.58890625 27.64171875 14.58890625 27.64171875 18.62890625 27.13671875 C18.62105103 26.06973755 18.62105103 26.06973755 18.61303711 24.98120117 C18.59226607 21.762216 18.57924567 18.54324492 18.56640625 15.32421875 C18.55802734 14.20466797 18.54964844 13.08511719 18.54101562 11.93164062 C18.53618164 10.32192383 18.53618164 10.32192383 18.53125 8.6796875 C18.52339478 7.19505005 18.52339478 7.19505005 18.51538086 5.68041992 C18.62890625 3.13671875 18.62890625 3.13671875 19.62890625 0.13671875 C24.90890625 0.13671875 30.18890625 0.13671875 35.62890625 0.13671875 C35.65145984 8.72477986 35.66982282 17.31281811 35.68071842 25.90090084 C35.68594661 29.88829075 35.69304309 33.87565942 35.7043457 37.86303711 C35.71517686 41.70796989 35.72118357 45.5528822 35.72378349 49.39782906 C35.72563733 50.86790858 35.72925716 52.33798693 35.73463631 53.80805779 C35.7418498 55.86026342 35.74289706 57.91238342 35.74243164 59.96459961 C35.74465225 61.13486191 35.74687286 62.30512421 35.74916077 63.510849 C35.62890625 66.13671875 35.62890625 66.13671875 34.62890625 67.13671875 C32.09841223 67.20985442 29.59585788 67.22919402 27.06640625 67.19921875 C26.0000293 67.19245117 26.0000293 67.19245117 24.91210938 67.18554688 C23.15100612 67.17372739 21.38994589 67.15579138 19.62890625 67.13671875 C18.3502901 64.57948646 18.51554016 62.76934773 18.53125 59.91015625 C18.53447266 58.87890625 18.53769531 57.84765625 18.54101562 56.78515625 C18.54939453 55.70492187 18.55777344 54.6246875 18.56640625 53.51171875 C18.57091797 52.42375 18.57542969 51.33578125 18.58007812 50.21484375 C18.59188849 47.52208086 18.60835847 44.82942687 18.62890625 42.13671875 C15.98890625 41.80671875 13.34890625 41.47671875 10.62890625 41.13671875 C10.63676147 42.26484985 10.63676147 42.26484985 10.64477539 43.41577148 C10.66547852 46.80191217 10.67854502 50.18803959 10.69140625 53.57421875 C10.69978516 54.75822266 10.70816406 55.94222656 10.71679688 57.16210938 C10.72163086 58.84916992 10.72163086 58.84916992 10.7265625 60.5703125 C10.73441772 62.1335022 10.73441772 62.1335022 10.74243164 63.72827148 C10.62890625 66.13671875 10.62890625 66.13671875 9.62890625 67.13671875 C7.11754521 67.23646907 4.6398721 67.27554058 2.12890625 67.26171875 C1.42636719 67.26558594 0.72382813 67.26945312 0 67.2734375 C-5.24447997 67.26333253 -5.24447997 67.26333253 -6.37109375 66.13671875 C-6.47044523 64.11721666 -6.49908883 62.0942096 -6.50048828 60.07226562 C-6.50364044 58.77421997 -6.5067926 57.47617432 -6.51004028 56.13879395 C-6.5082505 54.71101854 -6.50619955 53.28324344 -6.50390625 51.85546875 C-6.50457933 50.40197737 -6.50554939 48.94848611 -6.50680542 47.49499512 C-6.50828221 44.44505748 -6.50612845 41.39514909 -6.50146484 38.34521484 C-6.49576755 34.42741316 -6.49904666 30.50967997 -6.50503731 26.5918808 C-6.50864344 23.58941121 -6.5075041 20.58695798 -6.50490952 17.58448792 C-6.50424039 16.13953137 -6.50506817 14.69457336 -6.50738907 13.24961853 C-6.5099164 11.23346992 -6.50538427 9.21731613 -6.50048828 7.20117188 C-6.49969269 6.05169067 -6.49889709 4.90220947 -6.49807739 3.71789551 C-6.26960078 -0.9263131 -4.13263382 0.00796269 0 0 Z " fill="#FD0153" transform="translate(220.37109375,27.86328125)"/>
<path d="M0 0 C0.98033203 0.01933594 1.96066406 0.03867187 2.97070312 0.05859375 C7.61340321 0.26661697 10.20488299 0.46878338 14.03515625 3.24609375 C15.93427915 5.99533737 16.77678231 7.79260054 17.3125 11.0625 C17.46460938 11.89910156 17.61671875 12.73570313 17.7734375 13.59765625 C17.9375 16 17.9375 16 16.9375 20 C11.9875 20 7.0375 20 1.9375 20 C1.6075 18.02 1.2775 16.04 0.9375 14 C-2.0325 13.505 -2.0325 13.505 -5.0625 13 C-5.0625 17.29 -5.0625 21.58 -5.0625 26 C-3.41701172 26.03867187 -3.41701172 26.03867187 -1.73828125 26.078125 C-0.28381552 26.1344269 1.17061003 26.19177377 2.625 26.25 C3.34623047 26.26417969 4.06746094 26.27835938 4.81054688 26.29296875 C9.69651791 26.51607245 12.46575877 27.26417455 15.9375 31 C18.6256001 36.54663919 18.26811022 41.89231008 18.25 47.9375 C18.26611328 49.00935547 18.28222656 50.08121094 18.29882812 51.18554688 C18.30517086 61.42906548 18.30517086 61.42906548 14.9375 66 C10.44783846 70.13153678 4.82006569 69.47933172 -0.9375 69.4375 C-1.90558594 69.45748047 -2.87367188 69.47746094 -3.87109375 69.49804688 C-10.12440298 69.49379292 -14.03427921 68.8147435 -19.0625 65 C-21.72665303 61.63513822 -21.29747371 57.97723912 -21.25 53.8125 C-21.24355469 52.56082031 -21.23710937 51.30914062 -21.23046875 50.01953125 C-21.0625 47 -21.0625 47 -20.0625 46 C-17.53200598 45.92686433 -15.02945163 45.90752473 -12.5 45.9375 C-11.78908203 45.94201172 -11.07816406 45.94652344 -10.34570312 45.95117188 C-8.58459987 45.96299136 -6.82353964 45.98092737 -5.0625 46 C-5.0625 49.3 -5.0625 52.6 -5.0625 56 C-2.7525 56 -0.4425 56 1.9375 56 C1.9375 51.38 1.9375 46.76 1.9375 42 C-1.0325 42.1546875 -1.0325 42.1546875 -4.0625 42.3125 C-10.21848869 42.31921318 -14.62042507 41.43041594 -19.0625 37 C-22.07721517 32.06907666 -21.43083333 26.73167225 -21.4375 21.125 C-21.46199219 20.04863281 -21.48648438 18.97226562 -21.51171875 17.86328125 C-21.5340969 11.81372181 -21.48317322 7.56753944 -17.0625 3 C-11.74014336 -0.90035296 -6.29848463 -0.32427842 0 0 Z " fill="#F80452" transform="translate(161.0625,27)"/>
<path d="M0 0 C0.12375 0.928125 0.2475 1.85625 0.375 2.8125 C0.67419514 4.99792535 1.02871417 7.12800822 1.51171875 9.28125 C2.82081554 15.29752463 3.21435917 21.11415025 3.25 27.25 C3.259104 28.00643799 3.26820801 28.76287598 3.27758789 29.54223633 C3.25169132 34.35529955 2.53407146 38.39224745 1 43 C0.75121094 43.81984375 0.50242188 44.6396875 0.24609375 45.484375 C-2.6817815 53.68808344 -7.99491098 61.67486625 -15.3125 66.625 C-20.47967317 68.55174254 -25.5195956 68.82001956 -31 69 C-31 67.68 -31 66.36 -31 65 C-30.13375 64.649375 -29.2675 64.29875 -28.375 63.9375 C-21.5780782 60.03556341 -18.16166216 54.55283788 -15.6796875 47.19921875 C-14.39819766 41.16737863 -14.70183382 35.1372538 -15 29 C-15.99 29 -16.98 29 -18 29 C-18.47985967 27.72942818 -18.9588593 26.45853152 -19.4375 25.1875 C-19.70433594 24.47980469 -19.97117188 23.77210937 -20.24609375 23.04296875 C-20.86225186 21.37327604 -21.43719235 19.68842296 -22 18 C-27.94 20.475 -27.94 20.475 -34 23 C-33.34 23.969375 -32.68 24.93875 -32 25.9375 C-29.48683524 30.25589579 -29.6021488 34.12632275 -30 39 C-31.485 39.495 -31.485 39.495 -33 40 C-33 40.66 -33 41.32 -33 42 C-33.66 42 -34.32 42 -35 42 C-35 42.66 -35 43.32 -35 44 C-37.35438733 45.42944945 -38.48032433 46.08661261 -41.25 45.625 C-41.8275 45.41875 -42.405 45.2125 -43 45 C-41.19354839 39.32258065 -41.19354839 39.32258065 -39.875 37.125 C-38.49361286 33.77020265 -38.87982238 30.60532853 -39 27 C-41.31 27 -43.62 27 -46 27 C-46.33 28.32 -46.66 29.64 -47 31 C-47.66 31 -48.32 31 -49 31 C-49.12375 32.051875 -49.2475 33.10375 -49.375 34.1875 C-49.91140782 37.45958771 -50.63880035 40.00536076 -52 43 C-54.9375 41.875 -54.9375 41.875 -58 40 C-59.71656776 35.27943865 -58.83299627 31.58249069 -57 27 C-53.05705063 22.26997436 -48.67949163 20.09101734 -43.1875 17.625 C-42.34872314 17.23779785 -41.50994629 16.8505957 -40.64575195 16.45166016 C-34.71482032 13.72862208 -28.73877138 11.10734475 -22.73828125 8.54150391 C-16.93711824 6.03953173 -11.36438924 3.16234362 -5.79296875 0.1875 C-3 -1 -3 -1 0 0 Z " fill="#DE132C" transform="translate(106,27)"/>
<path d="M0 0 C0.88042969 -0.00926514 1.76085938 -0.01853027 2.66796875 -0.02807617 C3.50714844 -0.02396729 4.34632812 -0.0198584 5.2109375 -0.015625 C5.9642334 -0.01336914 6.7175293 -0.01111328 7.49365234 -0.00878906 C9.91167998 0.2848088 11.48628886 1.11535061 13.625 2.25 C15.61610401 2.63290462 17.61600513 2.97604615 19.625 3.25 C19.625 3.58 19.625 3.91 19.625 4.25 C18.31789063 4.25386719 18.31789063 4.25386719 16.984375 4.2578125 C7.14137362 4.57739047 -1.12184335 6.60158818 -8.6484375 13.26171875 C-10.58177827 15.23158595 -10.58177827 15.23158595 -11.375 18.25 C-12.035 18.25 -12.695 18.25 -13.375 18.25 C-16.66211753 28.36571288 -17.95789805 37.18933153 -14.109375 47.30078125 C-13.25069322 49.57994193 -12.76235485 51.84839996 -12.375 54.25 C-10.395 54.25 -8.415 54.25 -6.375 54.25 C-6.045 54.91 -5.715 55.57 -5.375 56.25 C-6.27992187 56.64832031 -6.27992187 56.64832031 -7.203125 57.0546875 C-8.00234375 57.40789062 -8.8015625 57.76109375 -9.625 58.125 C-10.41390625 58.47304687 -11.2028125 58.82109375 -12.015625 59.1796875 C-14.36731522 60.20405348 -14.36731522 60.20405348 -16.484375 61.4453125 C-18.375 62.25 -18.375 62.25 -21.375 61.25 C-21.375 61.91 -21.375 62.57 -21.375 63.25 C-22.695 63.25 -24.015 63.25 -25.375 63.25 C-25.87 64.24 -25.87 64.24 -26.375 65.25 C-32.125 63.625 -32.125 63.625 -34.375 60.25 C-34.375 58.25 -34.375 56.25 -34.375 54.25 C-35.035 53.26 -35.695 52.27 -36.375 51.25 C-37.51891486 43.63109534 -37.48157431 35.7603501 -37.5625 28.0625 C-37.57555176 27.33208496 -37.58860352 26.60166992 -37.60205078 25.84912109 C-37.60822471 22.09272651 -37.51262646 20.45643969 -35.375 17.25 C-34.715 17.25 -34.055 17.25 -33.375 17.25 C-33.045 15.93 -32.715 14.61 -32.375 13.25 C-31.715 13.25 -31.055 13.25 -30.375 13.25 C-30.045 12.26 -29.715 11.27 -29.375 10.25 C-20.51907503 0.67602706 -12.58569683 0.08464197 0 0 Z " fill="#DE132B" transform="translate(49.375,26.75)"/>
<path d="M0 0 C0 3.63 0 7.26 0 11 C-2 7 -2 7 -2 4 C-4.97 4.66 -7.94 5.32 -11 6 C-11 6.99 -11 7.98 -11 9 C-11.66 9.33 -12.32 9.66 -13 10 C-12.505 10.99 -12.505 10.99 -12 12 C-12.94875 12.433125 -13.8975 12.86625 -14.875 13.3125 C-18.20041937 14.79302201 -18.20041937 14.79302201 -20 18 C-22.2421875 18.84375 -22.2421875 18.84375 -24.875 19.5 C-28.59101493 20.43177688 -31.0510437 21.53110635 -34 24 C-33.01 25.2065625 -33.01 25.2065625 -32 26.4375 C-29.27790404 30.43438034 -29.62661728 34.33271604 -30 39 C-31.485 39.495 -31.485 39.495 -33 40 C-33 40.66 -33 41.32 -33 42 C-33.66 42 -34.32 42 -35 42 C-35 42.66 -35 43.32 -35 44 C-37.35438733 45.42944945 -38.48032433 46.08661261 -41.25 45.625 C-41.8275 45.41875 -42.405 45.2125 -43 45 C-41.19354839 39.32258065 -41.19354839 39.32258065 -39.875 37.125 C-38.49361286 33.77020265 -38.87982238 30.60532853 -39 27 C-41.31 27 -43.62 27 -46 27 C-46.33 28.32 -46.66 29.64 -47 31 C-47.66 31 -48.32 31 -49 31 C-49.12375 32.051875 -49.2475 33.10375 -49.375 34.1875 C-49.91140782 37.45958771 -50.63880035 40.00536076 -52 43 C-54.9375 41.875 -54.9375 41.875 -58 40 C-59.71656776 35.27943865 -58.83299627 31.58249069 -57 27 C-53.05705063 22.26997436 -48.67949163 20.09101734 -43.1875 17.625 C-42.34872314 17.23779785 -41.50994629 16.8505957 -40.64575195 16.45166016 C-34.71482032 13.72862208 -28.73877138 11.10734475 -22.73828125 8.54150391 C-16.93711824 6.03953173 -11.36438924 3.16234362 -5.79296875 0.1875 C-3 -1 -3 -1 0 0 Z " fill="#CD0623" transform="translate(106,27)"/>
<path d="M0 0 C1 1 1 1 1.25 4.75 C1.21514403 8.66084004 0.20330823 10.73910383 -2 14 C-2.70670728 16.69254991 -2.70670728 16.69254991 -3 19 C-0.69 18.67 1.62 18.34 4 18 C4 17.34 4 16.68 4 16 C4.66 16 5.32 16 6 16 C6 15.34 6 14.68 6 14 C6.66 14.33 7.32 14.66 8 15 C4.6156864 19.79444427 2.00999401 22.28065171 -3.49609375 24.40234375 C-9.69860372 26.86917647 -15.75355606 29.57658105 -21.8125 32.375 C-22.84987305 32.8503418 -23.88724609 33.32568359 -24.95605469 33.81542969 C-29.57437937 35.93581065 -34.18086817 38.07200841 -38.74609375 40.3046875 C-39.43405029 40.63807129 -40.12200684 40.97145508 -40.83081055 41.31494141 C-42.61590805 42.18466834 -44.3941919 43.06834209 -46.171875 43.953125 C-49.07545708 45.02793163 -50.1893501 45.17337811 -53 44 C-53.33 42.68 -53.66 41.36 -54 40 C-53.34 40 -52.68 40 -52 40 C-52.144375 39.41992188 -52.28875 38.83984375 -52.4375 38.2421875 C-53.50889428 33.73340325 -54.23945936 29.66945753 -54 25 C-51.221279 28.12606112 -50.78827822 29.87142536 -51 34 C-50.67 34.99 -50.34 35.98 -50 37 C-45.98195309 37.84098656 -42.98196457 38.05404945 -39 37 C-39 36.34 -39 35.68 -39 35 C-37.63875 34.8453125 -37.63875 34.8453125 -36.25 34.6875 C-32.87873774 33.97434837 -31.61792551 33.11123025 -29 31 C-27.35202764 30.28837557 -25.68834592 29.60968047 -24 29 C-25.98 28.67 -27.96 28.34 -30 28 C-26.9377256 25.51372483 -23.8542946 23.90010596 -20.25 22.3125 C-19.26515625 21.87550781 -18.2803125 21.43851563 -17.265625 20.98828125 C-16.14414063 20.49908203 -16.14414063 20.49908203 -15 20 C-15.99 18.35 -16.98 16.7 -18 15 C-16.68 15.33 -15.36 15.66 -14 16 C-12.68 12.37 -11.36 8.74 -10 5 C-9.34 5 -8.68 5 -8 5 C-7.814375 4.0409375 -7.814375 4.0409375 -7.625 3.0625 C-7.41875 2.381875 -7.2125 1.70125 -7 1 C-4.51588385 -0.24205807 -2.74800896 -0.14092354 0 0 Z " fill="#E73950" transform="translate(67,53)"/>
<path d="M0 0 C5.28 0 10.56 0 16 0 C16.02255359 8.58806111 16.04091657 17.17609936 16.05181217 25.76418209 C16.05704036 29.751572 16.06413684 33.73894067 16.07543945 37.72631836 C16.08627061 41.57125114 16.09227732 45.41616345 16.09487724 49.26111031 C16.09673108 50.73118983 16.10035091 52.20126818 16.10573006 53.67133904 C16.11294355 55.72354467 16.11399081 57.77566467 16.11352539 59.82788086 C16.115746 60.99814316 16.11796661 62.16840546 16.12025452 63.37413025 C16 66 16 66 15 67 C12.46950598 67.07313567 9.96695163 67.09247527 7.4375 67.0625 C6.37112305 67.05573242 6.37112305 67.05573242 5.28320312 67.04882812 C3.52209987 67.03700864 1.76103964 67.01907263 0 67 C-1.27861615 64.44276771 -1.11336609 62.63262898 -1.09765625 59.7734375 C-1.09443359 58.7421875 -1.09121094 57.7109375 -1.08789062 56.6484375 C-1.07951172 55.56820312 -1.07113281 54.48796875 -1.0625 53.375 C-1.05798828 52.28703125 -1.05347656 51.1990625 -1.04882812 50.078125 C-1.03701776 47.38536211 -1.02054778 44.69270812 -1 42 C-3.64 41.67 -6.28 41.34 -9 41 C-8.99214478 42.1281311 -8.99214478 42.1281311 -8.98413086 43.27905273 C-8.96342773 46.66519342 -8.95036123 50.05132084 -8.9375 53.4375 C-8.92912109 54.62150391 -8.92074219 55.80550781 -8.91210938 57.02539062 C-8.90727539 58.71245117 -8.90727539 58.71245117 -8.90234375 60.43359375 C-8.89448853 61.99678345 -8.89448853 61.99678345 -8.88647461 63.59155273 C-9 66 -9 66 -10 67 C-12.51136104 67.09975032 -14.98903415 67.13882183 -17.5 67.125 C-18.20253906 67.12886719 -18.90507812 67.13273437 -19.62890625 67.13671875 C-24.87338622 67.12661378 -24.87338622 67.12661378 -26 66 C-26.09333705 64.40389018 -26.11745372 62.80366572 -26.11352539 61.20483398 C-26.11344986 60.18385117 -26.11337433 59.16286835 -26.11329651 58.11094666 C-26.10813522 57.0005452 -26.10297394 55.89014374 -26.09765625 54.74609375 C-26.0962413 53.61551041 -26.09482635 52.48492706 -26.09336853 51.32008362 C-26.08775019 47.69252935 -26.07519458 44.06503576 -26.0625 40.4375 C-26.05748736 37.98502693 -26.05292405 35.5325529 -26.04882812 33.08007812 C-26.0377748 27.05336455 -26.02101884 21.02668661 -26 15 C-25.67 15 -25.34 15 -25 15 C-25 31.5 -25 48 -25 65 C-20.38 65 -15.76 65 -11 65 C-11.01160156 63.20691406 -11.02320313 61.41382813 -11.03515625 59.56640625 C-11.04453229 57.23177187 -11.05363269 54.89713637 -11.0625 52.5625 C-11.07087891 51.37849609 -11.07925781 50.19449219 -11.08789062 48.97460938 C-11.09111328 47.84990234 -11.09433594 46.72519531 -11.09765625 45.56640625 C-11.10551147 44.00321655 -11.10551147 44.00321655 -11.11352539 42.40844727 C-11 40 -11 40 -10 39 C-8.0390625 38.83203125 -8.0390625 38.83203125 -5.625 38.8125 C-4.43777344 38.79123047 -4.43777344 38.79123047 -3.2265625 38.76953125 C-1 39 -1 39 2 41 C2.34057617 43.43017578 2.34057617 43.43017578 2.29296875 46.4453125 C2.28330078 47.52167969 2.27363281 48.59804687 2.26367188 49.70703125 C2.23853516 50.83496094 2.21339844 51.96289062 2.1875 53.125 C2.16719727 54.82849609 2.16719727 54.82849609 2.14648438 56.56640625 C2.11104658 59.37780485 2.05723836 62.18896075 2 65 C5.96 65 9.92 65 14 65 C14 44.21 14 23.42 14 2 C10.04 2 6.08 2 2 2 C2 10.58 2 19.16 2 28 C1.01 27.67 0.02 27.34 -1 27 C-1.02898816 23.06251542 -1.04679464 19.12505821 -1.0625 15.1875 C-1.07087891 14.06794922 -1.07925781 12.94839844 -1.08789062 11.79492188 C-1.09272461 10.18520508 -1.09272461 10.18520508 -1.09765625 8.54296875 C-1.10551147 7.0583313 -1.10551147 7.0583313 -1.11352539 5.54370117 C-1 3 -1 3 0 0 Z " fill="#E71B5C" transform="translate(240,28)"/>
<path d="M0 0 C2.08617763 1.53910308 4.16723077 3.08385585 6.234375 4.6484375 C6.05078125 6.5078125 6.05078125 6.5078125 5.234375 8.6484375 C2.94921875 9.9140625 2.94921875 9.9140625 0.171875 10.8984375 C-0.74722656 11.23359375 -1.66632813 11.56875 -2.61328125 11.9140625 C-3.32355469 12.15640625 -4.03382812 12.39875 -4.765625 12.6484375 C-5.260625 11.6584375 -5.260625 11.6584375 -5.765625 10.6484375 C-5.105625 10.6484375 -4.445625 10.6484375 -3.765625 10.6484375 C-3.930625 9.5553125 -4.095625 8.4621875 -4.265625 7.3359375 C-4.765625 3.6484375 -4.765625 3.6484375 -4.765625 0.6484375 C-6.085625 -0.0115625 -7.405625 -0.6715625 -8.765625 -1.3515625 C-8.765625 -2.0115625 -8.765625 -2.6715625 -8.765625 -3.3515625 C-9.78140625 -3.485625 -10.7971875 -3.6196875 -11.84375 -3.7578125 C-15.45736464 -4.3048936 -18.95584626 -5.03133698 -22.515625 -5.8515625 C-28.59569176 -7.18605253 -34.55605056 -7.98405707 -40.765625 -8.3515625 C-41.095625 -7.3615625 -41.425625 -6.3715625 -41.765625 -5.3515625 C-43.68375 -5.75375 -43.68375 -5.75375 -45.640625 -6.1640625 C-51.67712521 -6.86975131 -55.69187469 -4.32220388 -60.765625 -1.3515625 C-63.50885714 0.17019336 -64.55034981 0.6484375 -67.765625 0.6484375 C-67.848125 1.2259375 -67.930625 1.8034375 -68.015625 2.3984375 C-68.9890061 5.3185808 -70.44175775 6.66631543 -72.765625 8.6484375 C-73.755625 8.9784375 -74.745625 9.3084375 -75.765625 9.6484375 C-77.47149075 11.27496066 -79.1433796 12.93850316 -80.765625 14.6484375 C-81.425625 14.3184375 -82.085625 13.9884375 -82.765625 13.6484375 C-81.3140701 11.97586395 -79.85418091 10.31051992 -78.390625 8.6484375 C-77.57851562 7.7203125 -76.76640625 6.7921875 -75.9296875 5.8359375 C-75.21554688 5.1140625 -74.50140625 4.3921875 -73.765625 3.6484375 C-73.105625 3.6484375 -72.445625 3.6484375 -71.765625 3.6484375 C-71.765625 2.9884375 -71.765625 2.3284375 -71.765625 1.6484375 C-48.79039529 -12.73726864 -23.21434251 -15.93282514 0 0 Z " fill="#ED1259" transform="translate(96.765625,12.3515625)"/>
<path d="M0 0 C1.33321289 0.08701172 1.33321289 0.08701172 2.69335938 0.17578125 C6.98144766 0.50439508 9.96869757 1.06110389 13.8125 3 C14.8025 3 15.7925 3 16.8125 3 C15.4375 4.5 15.4375 4.5 13.8125 6 C13.1525 6 12.4925 6 11.8125 6 C11.8125 5.34 11.8125 4.68 11.8125 4 C7.58503729 2.97367957 3.59253557 2.8663753 -0.75 2.875 C-2.70099609 2.87113281 -2.70099609 2.87113281 -4.69140625 2.8671875 C-8.55108147 2.96090525 -8.55108147 2.96090525 -12.1875 4 C-13.97129415 6.98352894 -13.97129415 6.98352894 -15.1875 10 C-15.8475 10 -16.5075 10 -17.1875 10 C-17.15720703 11.12792969 -17.12691406 12.25585938 -17.09570312 13.41796875 C-16.98174779 17.68223686 -16.87061681 21.94657504 -16.76025391 26.2109375 C-16.71249803 28.0416863 -16.66401914 29.87241641 -16.61474609 31.703125 C-16.30753205 43.13901087 -16.11468295 54.55963244 -16.1875 66 C-12.2275 66 -8.2675 66 -4.1875 66 C-4.19273682 64.40494629 -4.19797363 62.80989258 -4.20336914 61.16650391 C-4.2214265 55.26628172 -4.23293473 49.36606198 -4.24243164 43.46582031 C-4.24747017 40.90884999 -4.25430107 38.35188257 -4.26293945 35.79492188 C-4.27502602 32.12629483 -4.28073301 28.45770577 -4.28515625 24.7890625 C-4.29289818 23.0655809 -4.29289818 23.0655809 -4.30079651 21.30728149 C-4.30087204 20.2463327 -4.30094757 19.18538391 -4.30102539 18.09228516 C-4.303246 17.15518707 -4.30546661 16.21808899 -4.30775452 15.25259399 C-4.1875 13 -4.1875 13 -3.1875 11 C-0.8775 11 1.4325 11 3.8125 11 C3.8125 11.33 3.8125 11.66 3.8125 12 C2.1625 12.33 0.5125 12.66 -1.1875 13 C-1.5175 31.15 -1.8475 49.3 -2.1875 68 C-7.1375 68 -12.0875 68 -17.1875 68 C-19.31544516 65.87205484 -18.61885506 61.25366191 -18.75 58.3125 C-18.7910083 57.40072998 -18.8320166 56.48895996 -18.87426758 55.54956055 C-19.20979648 47.13910822 -19.32895124 38.72907566 -19.375 30.3125 C-19.38797119 29.04897705 -19.40094238 27.7854541 -19.41430664 26.48364258 C-19.43299611 7.6882641 -19.43299611 7.6882641 -14.19921875 2.375 C-9.6790992 -0.94982246 -5.37511252 -0.54501508 0 0 Z " fill="#E52060" transform="translate(310.1875,27)"/>
<path d="M0 0 C0.66 0 1.32 0 2 0 C4.63263686 5.26527373 3.59880929 13.23479787 2.38671875 18.83203125 C0.09462763 25.243828 -3.85348644 30.5531056 -9 35 C-11.75390625 36.25 -11.75390625 36.25 -14 37 C-14 37.66 -14 38.32 -14 39 C-9.05 38.67 -4.1 38.34 1 38 C-3.6172783 42.6172783 -11.65865801 42.41663323 -17.875 42.4375 C-19.08990112 42.44330078 -19.08990112 42.44330078 -20.3293457 42.44921875 C-29.32370674 42.28231846 -37.52524057 39.83504497 -46 37 C-44.375 35.875 -44.375 35.875 -42 35 C-39.98679245 35.62565152 -37.98768163 36.29745735 -36 37 C-26.79104662 37.42553221 -19.87495651 35.57954249 -12 31 C-11.01 30.67 -10.02 30.34 -9 30 C-7.99083967 28.23408113 -7.99083967 28.23408113 -7 26 C-6.34 25.030625 -5.68 24.06125 -5 23.0625 C-1.57741386 17.82166498 -0.6597671 13.38711697 -0.375 7.1875 C-0.33632812 6.49462891 -0.29765625 5.80175781 -0.2578125 5.08789062 C-0.16426432 3.39232985 -0.08107636 1.69620288 0 0 Z " fill="#FA374F" transform="translate(89,56)"/>
<path d="M0 0 C0.33 0 0.66 0 1 0 C1 16.5 1 33 1 50 C5.62 50 10.24 50 15 50 C14.98839844 48.20691406 14.97679687 46.41382813 14.96484375 44.56640625 C14.95546771 42.23177187 14.94636731 39.89713637 14.9375 37.5625 C14.92912109 36.37849609 14.92074219 35.19449219 14.91210938 33.97460938 C14.90888672 32.84990234 14.90566406 31.72519531 14.90234375 30.56640625 C14.89448853 29.00321655 14.89448853 29.00321655 14.88647461 27.40844727 C15 25 15 25 16 24 C17.47648876 23.90176004 18.95775417 23.87026481 20.4375 23.875 C21.64212891 23.87113281 21.64212891 23.87113281 22.87109375 23.8671875 C25 24 25 24 27 25 C27 33.58 27 42.16 27 51 C31.62 51 36.24 51 41 51 C41 51.33 41 51.66 41 52 C36.05 52 31.1 52 26 52 C24.72138385 49.44276771 24.88663391 47.63262898 24.90234375 44.7734375 C24.90556641 43.7421875 24.90878906 42.7109375 24.91210938 41.6484375 C24.92048828 40.56820312 24.92886719 39.48796875 24.9375 38.375 C24.94201172 37.28703125 24.94652344 36.1990625 24.95117188 35.078125 C24.96298224 32.38536211 24.97945222 29.69270812 25 27 C22.36 26.67 19.72 26.34 17 26 C17.00785522 27.1281311 17.00785522 27.1281311 17.01586914 28.27905273 C17.03657227 31.66519342 17.04963877 35.05132084 17.0625 38.4375 C17.07087891 39.62150391 17.07925781 40.80550781 17.08789062 42.02539062 C17.09272461 43.71245117 17.09272461 43.71245117 17.09765625 45.43359375 C17.10551147 46.99678345 17.10551147 46.99678345 17.11352539 48.59155273 C17 51 17 51 16 52 C13.48863896 52.09975032 11.01096585 52.13882183 8.5 52.125 C7.79746094 52.12886719 7.09492188 52.13273437 6.37109375 52.13671875 C1.12661378 52.12661378 1.12661378 52.12661378 0 51 C-0.09333705 49.40389018 -0.11745372 47.80366572 -0.11352539 46.20483398 C-0.11344986 45.18385117 -0.11337433 44.16286835 -0.11329651 43.11094666 C-0.10813522 42.0005452 -0.10297394 40.89014374 -0.09765625 39.74609375 C-0.0962413 38.61551041 -0.09482635 37.48492706 -0.09336853 36.32008362 C-0.08775019 32.69252935 -0.07519458 29.06503576 -0.0625 25.4375 C-0.05748736 22.98502693 -0.05292405 20.5325529 -0.04882812 18.08007812 C-0.0377748 12.05336455 -0.02101884 6.02668661 0 0 Z " fill="#CF2255" transform="translate(214,43)"/>
<path d="M0 0 C2.87114795 2.62148291 3.92618594 4.53633165 4.12698364 8.51797485 C4.12777924 9.52089569 4.12857483 10.52381653 4.12939453 11.55712891 C4.13254669 12.69485748 4.13569885 13.83258606 4.13894653 15.00479126 C4.1369223 16.23297577 4.13489807 17.46116028 4.1328125 18.7265625 C4.13424759 20.61439957 4.13424759 20.61439957 4.13571167 22.54037476 C4.13639259 25.2017561 4.13504499 27.8630458 4.13037109 30.52441406 C4.12466239 33.94219434 4.12796226 37.35989629 4.13394356 40.77767372 C4.13841558 44.03147284 4.13528973 47.28526236 4.1328125 50.5390625 C4.13483673 51.77129547 4.13686096 53.00352844 4.13894653 54.27310181 C4.13579437 55.40452606 4.13264221 56.53595032 4.12939453 57.70166016 C4.12859894 58.70298981 4.12780334 59.70431946 4.12698364 60.73599243 C4 63 4 63 3 64 C0.46950598 64.07313567 -2.03304837 64.09247527 -4.5625 64.0625 C-5.27341797 64.05798828 -5.98433594 64.05347656 -6.71679688 64.04882812 C-8.47790013 64.03700864 -10.23896036 64.01907263 -12 64 C-12.33 62.35 -12.66 60.7 -13 59 C-12.67 59.99 -12.34 60.98 -12 62 C-7.38 62 -2.76 62 2 62 C1.89185057 54.50674015 1.77973484 47.01355971 1.66066074 39.52046585 C1.60552632 36.04101916 1.55212175 32.56156393 1.50268555 29.08203125 C1.44575876 25.08063803 1.38128113 21.07939731 1.31640625 17.078125 C1.29969376 15.83009094 1.28298126 14.58205688 1.26576233 13.29620361 C1.24581711 12.13530212 1.22587189 10.97440063 1.20532227 9.77832031 C1.18977798 8.75683899 1.1742337 7.73535767 1.15821838 6.68292236 C1.01804572 4.30600272 0.67606948 2.27433101 0 0 Z " fill="#D12057" transform="translate(351,31)"/>
<path d="M0 0 C2.375 0.25 2.375 0.25 5 1 C6.94746449 3.94751382 7.22748966 6.26535169 7.125 9.75 C7.10695313 10.54921875 7.08890625 11.3484375 7.0703125 12.171875 C7.03550781 13.07679687 7.03550781 13.07679687 7 14 C6.01 14.33 5.02 14.66 4 15 C4 15.66 4 16.32 4 17 C3.34 17 2.68 17 2 17 C2 17.66 2 18.32 2 19 C-0.35438733 20.42944945 -1.48032433 21.08661261 -4.25 20.625 C-5.11625 20.315625 -5.11625 20.315625 -6 20 C-4.96889867 16.74806503 -3.85089648 13.67197226 -2.4375 10.5625 C-0.99126284 6.97834703 -0.3908469 3.83029966 0 0 Z " fill="#DB1533" transform="translate(69,52)"/>
<path d="M0 0 C0 3.63 0 7.26 0 11 C-2 7 -2 7 -2 4 C-4.97 4.66 -7.94 5.32 -11 6 C-11 6.99 -11 7.98 -11 9 C-11.99 9.495 -11.99 9.495 -13 10 C-12.67 10.66 -12.34 11.32 -12 12 C-19.29533679 15.8134715 -19.29533679 15.8134715 -22 16 C-23.75 14.5625 -23.75 14.5625 -25 13 C-23.35 12.34 -21.7 11.68 -20 11 C-20 9.68 -20 8.36 -20 7 C-17.23682377 5.62978206 -14.46341522 4.28169824 -11.6875 2.9375 C-10.90181641 2.54755859 -10.11613281 2.15761719 -9.30664062 1.75585938 C-8.54931641 1.39169922 -7.79199219 1.02753906 -7.01171875 0.65234375 C-6.31522217 0.31195068 -5.61872559 -0.02844238 -4.90112305 -0.37915039 C-3 -1 -3 -1 0 0 Z " fill="#B50F22" transform="translate(106,27)"/>
<path d="M0 0 C4.4943787 0.01505655 8.72069815 0.22535956 13.14453125 1.1328125 C13.14453125 1.4628125 13.14453125 1.7928125 13.14453125 2.1328125 C11.83742188 2.13667969 11.83742188 2.13667969 10.50390625 2.140625 C0.66090487 2.46020297 -7.6023121 4.48440068 -15.12890625 11.14453125 C-17.06224702 13.11439845 -17.06224702 13.11439845 -17.85546875 16.1328125 C-18.51546875 16.1328125 -19.17546875 16.1328125 -19.85546875 16.1328125 C-22.25930874 24.54209129 -22.25930874 24.54209129 -23.85546875 33.1328125 C-24.18546875 33.1328125 -24.51546875 33.1328125 -24.85546875 33.1328125 C-24.90970513 31.21646033 -24.94836838 29.29966325 -24.98046875 27.3828125 C-25.00367187 26.31546875 -25.026875 25.248125 -25.05078125 24.1484375 C-24.85762641 21.16612682 -24.27225286 19.69216443 -22.85546875 17.1328125 C-23.15351882 14.93534119 -23.15351882 14.93534119 -23.85546875 13.1328125 C-22.86546875 12.8028125 -21.87546875 12.4728125 -20.85546875 12.1328125 C-19.5888262 10.93661422 -19.5888262 10.93661422 -18.04296875 8.3203125 C-14.73992065 4.24295935 -10.28897478 3.3068868 -5.40234375 1.89453125 C-3.09121519 1.20331949 -2.26870645 0.16239162 0 0 Z " fill="#B80D24" transform="translate(55.85546875,28.8671875)"/>
<path d="M0 0 C0.88880859 -0.00926514 1.77761719 -0.01853027 2.69335938 -0.02807617 C3.53576172 -0.02396729 4.37816406 -0.0198584 5.24609375 -0.015625 C6.38389282 -0.01224121 6.38389282 -0.01224121 7.54467773 -0.00878906 C9.5625 0.25 9.5625 0.25 12.5625 2.25 C11.386875 2.353125 10.21125 2.45625 9 2.5625 C5.98425691 2.92610023 3.51601945 3.55951683 0.75 4.8125 C-2.4375 6.25 -2.4375 6.25 -5.4375 6.25 C-5.4375 5.59 -5.4375 4.93 -5.4375 4.25 C-4.1175 4.25 -2.7975 4.25 -1.4375 4.25 C-1.4375 3.26 -1.4375 2.27 -1.4375 1.25 C-13.52898969 3.13929526 -21.28486986 5.58465068 -29.6875 14.6875 C-31.79247611 17.76978645 -33.07592068 20.77797275 -34.4375 24.25 C-35.57393966 20.84068103 -35.30497764 20.24664544 -34 17.0625 C-33.71253906 16.34707031 -33.42507812 15.63164063 -33.12890625 14.89453125 C-32.78666016 14.08048828 -32.78666016 14.08048828 -32.4375 13.25 C-31.7775 13.25 -31.1175 13.25 -30.4375 13.25 C-30.1075 12.26 -29.7775 11.27 -29.4375 10.25 C-20.56412312 0.65716013 -12.60943346 0.0843779 0 0 Z " fill="#C80018" transform="translate(49.4375,26.75)"/>
<path d="M0 0 C1.33321289 0.08701172 1.33321289 0.08701172 2.69335938 0.17578125 C6.98144766 0.50439508 9.96869757 1.06110389 13.8125 3 C14.8025 3 15.7925 3 16.8125 3 C15.4375 4.5 15.4375 4.5 13.8125 6 C13.1525 6 12.4925 6 11.8125 6 C11.8125 5.34 11.8125 4.68 11.8125 4 C7.58503729 2.97367957 3.59253557 2.8663753 -0.75 2.875 C-2.70099609 2.87113281 -2.70099609 2.87113281 -4.69140625 2.8671875 C-8.55108147 2.96090525 -8.55108147 2.96090525 -12.1875 4 C-13.97129415 6.98352894 -13.97129415 6.98352894 -15.1875 10 C-15.8475 10 -16.5075 10 -17.1875 10 C-17.1875 28.81 -17.1875 47.62 -17.1875 67 C-17.5175 67 -17.8475 67 -18.1875 67 C-18.94326335 54.77282865 -19.31471725 42.56346135 -19.375 30.3125 C-19.38789063 29.04905762 -19.40078125 27.78561523 -19.4140625 26.48388672 C-19.4339958 7.68927897 -19.4339958 7.68927897 -14.19921875 2.375 C-9.6790992 -0.94982246 -5.37511252 -0.54501508 0 0 Z " fill="#CB2E5E" transform="translate(310.1875,27)"/>
<path d="M0 0 C1 1 1 1 1.3125 4.8125 C1.26842879 7.89197567 1.15485428 8.78205694 -0.6875 11.375 C-3.05955194 13.04184731 -5.25521995 14.08507332 -8 15 C-8.66 14.34 -9.32 13.68 -10 13 C-9.4591195 4.6163522 -9.4591195 4.6163522 -7 1 C-4.51588385 -0.24205807 -2.74800896 -0.14092354 0 0 Z " fill="#EC727A" transform="translate(67,53)"/>
<path d="M0 0 C0.74955438 2.9982175 1.41070989 5.96936513 2 9 C4.31 8.01 6.62 7.02 9 6 C8.35330586 7.34313399 7.68096422 8.67391178 7 10 C6.608125 10.9075 6.21625 11.815 5.8125 12.75 C5.214375 13.4925 4.61625 14.235 4 15 C0.3125 15.3125 0.3125 15.3125 -3 15 C-3 15.66 -3 16.32 -3 17 C-4.26691507 17.67408308 -5.53870749 18.33900497 -6.8125 19 C-7.52019531 19.37125 -8.22789063 19.7425 -8.95703125 20.125 C-11 21 -11 21 -14 21 C-14 21.66 -14 22.32 -14 23 C-14.99 23.33 -15.98 23.66 -17 24 C-17.99 23.34 -18.98 22.68 -20 22 C-15.05 19.69 -10.1 17.38 -5 15 C-5.99 13.35 -6.98 11.7 -8 10 C-6.68 10.33 -5.36 10.66 -4 11 C-2.68 7.37 -1.36 3.74 0 0 Z " fill="#D4283F" transform="translate(57,58)"/>
<path d="M0 0 C5.82250933 5.82250933 6.41083544 17.82795926 6.4375 25.75 C6.28629948 36.1072356 3.49310845 44.76289888 -1 54 C-1.625 52.1875 -1.625 52.1875 -2 50 C-1.34 49.01 -0.68 48.02 0 47 C0.60505739 44.55371536 1.11925774 42.16287799 1.5625 39.6875 C1.69180908 38.98560547 1.82111816 38.28371094 1.9543457 37.56054688 C3.15291762 30.73259786 3.68617344 23.92582758 4 17 C3.34 16.67 2.68 16.34 2 16 C1.57663205 13.31866963 1.25906431 10.69704455 1 8 C0.81718839 6.49942139 0.62993317 4.99937511 0.4375 3.5 C0.293125 2.345 0.14875 1.19 0 0 Z " fill="#E52662" transform="translate(112,38)"/>
<path d="M0 0 C2.778721 3.12606112 3.21172178 4.87142536 3 9 C3.33 9.99 3.66 10.98 4 12 C8.01804691 12.84098656 11.01803543 13.05404945 15 12 C15 11.34 15 10.68 15 10 C15.99 10 16.98 10 18 10 C18 10.99 18 11.98 18 13 C16.68 13 15.36 13 14 13 C14 13.99 14 14.98 14 16 C12.5903653 16.70180531 11.17192359 17.38593958 9.75 18.0625 C8.96109375 18.44535156 8.1721875 18.82820313 7.359375 19.22265625 C4.74006478 20.08564091 3.55144824 19.93045933 1 19 C0.67 17.68 0.34 16.36 0 15 C0.66 15 1.32 15 2 15 C1.855625 14.41992188 1.71125 13.83984375 1.5625 13.2421875 C0.49110572 8.73340325 -0.23945936 4.66945753 0 0 Z " fill="#FB3A52" transform="translate(13,78)"/>
<path d="M0 0 C0.33 0 0.66 0 1 0 C3.20494473 17.14738271 3.20494473 17.14738271 3.00390625 23.99609375 C2.9966921 27.69695056 3.53435495 31.33304526 4 35 C2.515 35.495 2.515 35.495 1 36 C0.16180842 34.37750059 -0.6704116 32.75191503 -1.5 31.125 C-1.9640625 30.22007813 -2.428125 29.31515625 -2.90625 28.3828125 C-4 26 -4 26 -4 24 C-3.01 23.67 -2.02 23.34 -1 23 C-1 22.01 -1 21.02 -1 20 C-0.34 20 0.32 20 1 20 C0.83628906 19.16210938 0.67257813 18.32421875 0.50390625 17.4609375 C-0.02987283 13.79482693 -0.09743025 10.32760615 -0.0625 6.625 C-0.05347656 5.37976562 -0.04445313 4.13453125 -0.03515625 2.8515625 C-0.01775391 1.44003906 -0.01775391 1.44003906 0 0 Z " fill="#F50947" transform="translate(11,58)"/>
<path d="M0 0 C0.66 0.33 1.32 0.66 2 1 C0.25887458 3.67655358 -1.51612506 5.97571938 -4 8 C-8 8 -8 8 -10.2890625 7.78125 C-14.72990257 8.13958868 -18.37475711 10.40007875 -22.21484375 12.51171875 C-26.7546875 15 -26.7546875 15 -30 15 C-30 14.01 -30 13.02 -30 12 C-22.57142857 8.71428571 -22.57142857 8.71428571 -19 8 C-19 7.34 -19 6.68 -19 6 C-17.88625 5.9175 -16.7725 5.835 -15.625 5.75 C-11.94246056 5.42126213 -11.94246056 5.42126213 -10.5625 2.9375 C-10.376875 2.298125 -10.19125 1.65875 -10 1 C-9.67 2.32 -9.34 3.64 -9 5 C-5.535 4.505 -5.535 4.505 -2 4 C-2 3.34 -2 2.68 -2 2 C-1.34 2 -0.68 2 0 2 C0 1.34 0 0.68 0 0 Z " fill="#ED253C" transform="translate(73,67)"/>
<path d="M0 0 C0.70253906 0.00386719 1.40507812 0.00773437 2.12890625 0.01171875 C2.83144531 0.00785156 3.53398437 0.00398438 4.2578125 0 C9.50229247 0.01010497 9.50229247 0.01010497 10.62890625 1.13671875 C10.71638832 3.06339382 10.73587959 4.99323736 10.7265625 6.921875 C10.72333984 8.09169922 10.72011719 9.26152344 10.71679688 10.46679688 C10.70841797 11.69849609 10.70003906 12.93019531 10.69140625 14.19921875 C10.68689453 15.43478516 10.68238281 16.67035156 10.67773438 17.94335938 C10.66590233 21.00785992 10.64941798 24.07226596 10.62890625 27.13671875 C9.96890625 26.80671875 9.30890625 26.47671875 8.62890625 26.13671875 C8.62890625 18.21671875 8.62890625 10.29671875 8.62890625 2.13671875 C4.33890625 2.13671875 0.04890625 2.13671875 -4.37109375 2.13671875 C-4.37109375 6.09671875 -4.37109375 10.05671875 -4.37109375 14.13671875 C-4.70109375 14.13671875 -5.03109375 14.13671875 -5.37109375 14.13671875 C-5.5650325 11.99145776 -5.75108051 9.84548198 -5.93359375 7.69921875 C-6.09021484 5.90677734 -6.09021484 5.90677734 -6.25 4.078125 C-6.28996094 3.10746094 -6.32992187 2.13679688 -6.37109375 1.13671875 C-4.61549433 -0.61888067 -2.33526933 0.00449956 0 0 Z " fill="#DC1B58" transform="translate(220.37109375,27.86328125)"/>
<path d="M0 0 C0.33 0.99 0.66 1.98 1 3 C0.16855469 3.38671875 -0.66289063 3.7734375 -1.51953125 4.171875 C-3.14955078 4.95304687 -3.14955078 4.95304687 -4.8125 5.75 C-5.89144531 6.26046875 -6.97039063 6.7709375 -8.08203125 7.296875 C-10.98338377 8.99030164 -12.40512888 10.07606961 -14 13 C-14.35868159 15.12972821 -14.35868159 15.12972821 -14.1875 17.25 C-14.125625 18.4875 -14.06375 19.725 -14 21 C-13.34 21.33 -12.68 21.66 -12 22 C-11.67 20.68 -11.34 19.36 -11 18 C-10.34 18 -9.68 18 -9 18 C-9.62759865 20.92879371 -10.58622659 23.36095629 -12 26 C-14.4375 24.875 -14.4375 24.875 -17 23 C-18.62544446 18.23202959 -17.8442717 14.61067924 -16 10 C-11.98200023 4.55625838 -6.07983744 2.5022098 0 0 Z " fill="#BE1F37" transform="translate(65,44)"/>
<path d="M0 0 C3.44757111 1.14919037 4.42341683 2.41286798 6.1484375 5.546875 C7.97013933 10.7947133 7.84719693 16.4914493 8 22 C5 21 5 21 3.9140625 19.37890625 C2.72318897 16.27958156 2.05163247 13.18738625 1.375 9.9375 C1.11460938 8.70902344 0.85421875 7.48054688 0.5859375 6.21484375 C0 3 0 3 0 0 Z " fill="#F8044D" transform="translate(105,28)"/>
<path d="M0 0 C1.32 1.32 2.64 2.64 4 4 C4.33 2.68 4.66 1.36 5 0 C5.33 2.64 5.66 5.28 6 8 C5.01 8.66 4.02 9.32 3 10 C2.45524022 12.59270699 2.07599851 15.00451945 1.8125 17.625 C1.73064453 18.33140625 1.64878906 19.0378125 1.56445312 19.765625 C1.36419275 21.5090683 1.18050599 23.25440086 1 25 C-0.32 25 -1.64 25 -3 25 C-2.68289062 23.865625 -2.36578125 22.73125 -2.0390625 21.5625 C-0.90842964 17.03996855 -0.56820384 12.64494223 -0.375 8 C-0.33632812 7.22527344 -0.29765625 6.45054688 -0.2578125 5.65234375 C-0.16478643 3.76856585 -0.08136825 1.88431744 0 0 Z " fill="#F30444" transform="translate(109,46)"/>
<path d="M0 0 C0.66 0 1.32 0 2 0 C3 3 3 3 2.21484375 4.796875 C-0.81966617 9.43679842 -3.93584286 14.1861282 -8 18 C-8.66 18 -9.32 18 -10 18 C-10 18.66 -10 19.32 -10 20 C-11.98 20.66 -13.96 21.32 -16 22 C-15.154375 21.01 -14.30875 20.02 -13.4375 19 C-12.89351563 18.360625 -12.34953125 17.72125 -11.7890625 17.0625 C-10.59756568 15.68889668 -9.38374524 14.33434085 -8.1484375 13 C-4.34349386 8.85504012 -1.88255264 5.31544274 0 0 Z " fill="#FE284C" transform="translate(106,72)"/>
<path d="M0 0 C3.09086943 4.63630414 2.32858494 9.3597055 2.3125 14.8125 C2.32861328 15.89337891 2.34472656 16.97425781 2.36132812 18.08789062 C2.36488464 23.8814509 2.23478509 28.10941463 -1 33 C-1.66 33 -2.32 33 -3 33 C-2.52433594 31.68322266 -2.52433594 31.68322266 -2.0390625 30.33984375 C-0.38520825 24.55135388 -0.53152064 18.53963184 -0.375 12.5625 C-0.33632812 11.35400391 -0.29765625 10.14550781 -0.2578125 8.90039062 C-0.16400542 5.93374183 -0.07830754 2.96709164 0 0 Z " fill="#D61B5B" transform="translate(177,60)"/>
<path d="M0 0 C0.33 0 0.66 0 1 0 C1.18175781 1.15757813 1.36351562 2.31515625 1.55078125 3.5078125 C1.80417733 5.04695908 2.05811219 6.58601702 2.3125 8.125 C2.43044922 8.88554688 2.54839844 9.64609375 2.66992188 10.4296875 C3.45871026 15.1219671 4.70716933 18.77399838 7 23 C7 23.66 7 24.32 7 25 C5.35 24.67 3.7 24.34 2 24 C1.87625 23.113125 1.7525 22.22625 1.625 21.3125 C1.15592077 18.09371942 1.15592077 18.09371942 -0.0625 15.6875 C-1.84097792 10.58919664 -1.46062728 5.15309305 0 0 Z " fill="#DD2943" transform="translate(30,55)"/>
<path d="M0 0 C0.66 0 1.32 0 2 0 C4.50329162 5.00658324 3.76311044 13.18270273 2.328125 18.48046875 C1.5 20.375 1.5 20.375 0 23 C-0.99 22.67 -1.98 22.34 -3 22 C-2.68289062 21.00871094 -2.36578125 20.01742187 -2.0390625 18.99609375 C-0.90616541 15.03095395 -0.593831 11.18381716 -0.375 7.0625 C-0.33632812 6.37865234 -0.29765625 5.69480469 -0.2578125 4.99023438 C-0.16477588 3.32720487 -0.08136213 1.66364153 0 0 Z " fill="#D93248" transform="translate(89,56)"/>
<path d="M0 0 C0 0.66 0 1.32 0 2 C-0.66 2 -1.32 2 -2 2 C-2.33 2.99 -2.66 3.98 -3 5 C-8.22553552 5.86059544 -13.2700502 6.1827956 -18.5625 6.1875 C-19.29146484 6.19974609 -20.02042969 6.21199219 -20.77148438 6.22460938 C-25.24107188 6.23667847 -28.78778202 5.68355632 -33 4 C-31.375 2.875 -31.375 2.875 -29 2 C-28.10410156 2.31582031 -27.20820312 2.63164063 -26.28515625 2.95703125 C-19.63133314 5.06948163 -11.15372793 4.26862182 -4.75 1.4375 C-2 0 -2 0 0 0 Z " fill="#D63E57" transform="translate(76,89)"/>
<path d="M0 0 C0.33 0.99 0.66 1.98 1 3 C0.01 3.495 0.01 3.495 -1 4 C-0.67 4.66 -0.34 5.32 0 6 C-7.29533679 9.8134715 -7.29533679 9.8134715 -10 10 C-11.75 8.5625 -11.75 8.5625 -13 7 C-11.35 6.34 -9.7 5.68 -8 5 C-8 4.01 -8 3.02 -8 2 C-7.236875 2.04125 -6.47375 2.0825 -5.6875 2.125 C-2.77281584 2.22080824 -2.77281584 2.22080824 0 0 Z " fill="#C0010E" transform="translate(94,33)"/>
<path d="M0 0 C0 0.66 0 1.32 0 2 C-0.99 2 -1.98 2 -3 2 C-3 3.98 -3 5.96 -3 8 C-2.278125 8.061875 -1.55625 8.12375 -0.8125 8.1875 C2.84657625 9.24456647 4.49211602 11.20550071 7 14 C6.01 14.495 6.01 14.495 5 15 C2.46875 13.63671875 2.46875 13.63671875 -0.5 11.6875 C-1.4796875 11.05199219 -2.459375 10.41648437 -3.46875 9.76171875 C-6 8 -6 8 -8 6 C-7.9375 4 -7.9375 4 -7 2 C-4.55683729 0.74709605 -2.75474605 0 0 0 Z " fill="#E32360" transform="translate(26,101)"/>
<path d="M0 0 C1.33998047 0.08024414 1.33998047 0.08024414 2.70703125 0.16210938 C7.02215498 0.46848961 10.0087452 0.98056195 13.875 2.9375 C14.865 2.9375 15.855 2.9375 16.875 2.9375 C15.5 4.4375 15.5 4.4375 13.875 5.9375 C13.215 5.9375 12.555 5.9375 11.875 5.9375 C11.875 5.2775 11.875 4.6175 11.875 3.9375 C7.64753729 2.91117957 3.65503557 2.8038753 -0.6875 2.8125 C-2.63849609 2.80863281 -2.63849609 2.80863281 -4.62890625 2.8046875 C-8.48858147 2.89840525 -8.48858147 2.89840525 -12.125 3.9375 C-13.90879415 6.92102894 -13.90879415 6.92102894 -15.125 9.9375 C-15.455 9.9375 -15.785 9.9375 -16.125 9.9375 C-16.5 7.75 -16.5 7.75 -16.125 4.9375 C-11.12591421 -0.66605041 -7.22061913 -0.65689767 0 0 Z " fill="#E11C5A" transform="translate(310.125,27.0625)"/>
<path d="M0 0 C1.32 0.66 2.64 1.32 4 2 C0.04 3.65 -3.92 5.3 -8 7 C-8 7.66 -8 8.32 -8 9 C-8.99 9 -9.98 9 -11 9 C-11 11.31 -11 13.62 -11 16 C-11.33 16 -11.66 16 -12 16 C-12.33 14.35 -12.66 12.7 -13 11 C-14.65 10.67 -16.3 10.34 -18 10 C-15.14080624 7.7298531 -12.28063292 6.03280778 -9 4.4375 C-8.154375 4.02371094 -7.30875 3.60992187 -6.4375 3.18359375 C-5.633125 2.79300781 -4.82875 2.40242188 -4 2 C-3.319375 1.57847656 -2.63875 1.15695313 -1.9375 0.72265625 C-0.9784375 0.36494141 -0.9784375 0.36494141 0 0 Z " fill="#C71F33" transform="translate(80,43)"/>
<path d="M0 0 C0.99 0.33 1.98 0.66 3 1 C2.34 1 1.68 1 1 1 C0.79375 1.556875 0.5875 2.11375 0.375 2.6875 C-1.18214766 5.30633924 -3.12179284 6.83456775 -5.48046875 8.72265625 C-9.90478866 12.44181464 -11.94182826 16.75166207 -14 22 C-15.13643966 18.59068103 -14.86747764 17.99664544 -13.5625 14.8125 C-13.27503906 14.09707031 -12.98757812 13.38164063 -12.69140625 12.64453125 C-12.34916016 11.83048828 -12.34916016 11.83048828 -12 11 C-11.34 11 -10.68 11 -10 11 C-9.67 10.01 -9.34 9.02 -9 8 C-6.25713918 5.03474506 -3.47949662 2.08769797 0 0 Z " fill="#D0001F" transform="translate(29,29)"/>
<path d="M0 0 C2.0625 0.4375 2.0625 0.4375 4 1 C-1.13215292 4.59599831 -6.03797399 7.97291116 -12 10 C-12.99 9.67 -13.98 9.34 -15 9 C-11.77298281 4.89288721 -7.89691388 3.57851447 -3.14453125 1.83203125 C-1.05134751 1.18583512 -1.05134751 1.18583512 0 0 Z " fill="#E62360" transform="translate(92,109)"/>
<path d="M0 0 C1.5159375 0.04060547 1.5159375 0.04060547 3.0625 0.08203125 C4.031875 0.12199219 5.00125 0.16195313 6 0.203125 C7.3303125 0.25194824 7.3303125 0.25194824 8.6875 0.30175781 C11.38173155 0.82399273 12.29824377 1.64939466 14 3.75 C13.06027344 3.59660156 12.12054688 3.44320313 11.15234375 3.28515625 C6.30704669 2.59297096 1.4482211 2.40206371 -3.4375 2.1875 C-4.35982422 2.14431641 -5.28214844 2.10113281 -6.23242188 2.05664062 C-8.48816163 1.95145069 -10.74399499 1.84930893 -13 1.75 C-13 2.41 -13 3.07 -13 3.75 C-14.98 4.41 -16.96 5.07 -19 5.75 C-12.75536499 -0.83218285 -8.61215968 -0.36250162 0 0 Z " fill="#DE1758" transform="translate(161,27.25)"/>
<path d="M0 0 C-1.02480469 0.39832031 -2.04960938 0.79664063 -3.10546875 1.20703125 C-4.46623758 1.74195417 -5.82690957 2.27712349 -7.1875 2.8125 C-8.19780273 3.20405273 -8.19780273 3.20405273 -9.22851562 3.60351562 C-13.06125046 5.11791329 -16.47849595 6.83679037 -20 9 C-22.8125 9.6875 -22.8125 9.6875 -25 10 C-19.56728233 4.00615656 -8.13676898 -2.38402148 0 0 Z " fill="#DB2861" transform="translate(52,4)"/>
<path d="M0 0 C0.33 0.66 0.66 1.32 1 2 C-3.1157286 7.6997891 -7.07737367 13.05158245 -13 17 C-12.42473475 13.14129768 -10.64227602 11.10501432 -8.0625 8.25 C-7.35222656 7.45078125 -6.64195313 6.6515625 -5.91015625 5.828125 C-4 4 -4 4 -2 4 C-2 3.01 -2 2.02 -2 1 C-1.34 0.67 -0.68 0.34 0 0 Z " fill="#E4205A" transform="translate(109,92)"/>
<path d="M0 0 C0.5534764 2.07553648 1 3.84365964 1 6 C0.34 6.66 -0.32 7.32 -1 8 C-4.1834534 11.59868645 -5.43251907 15.52148307 -7 20 C-8.0943977 17.22396681 -8.00889467 16.02871263 -7.109375 13.125 C-6.66078125 12.09375 -6.2121875 11.0625 -5.75 10 C-5.31171875 8.96875 -4.8734375 7.9375 -4.421875 6.875 C-3.1514507 4.30623 -1.80731889 2.21130782 0 0 Z " fill="#DB1659" transform="translate(13,28)"/>
<path d="M0 0 C2.14576637 -0.02685938 4.29162645 -0.04633088 6.4375 -0.0625 C7.63246094 -0.07410156 8.82742187 -0.08570312 10.05859375 -0.09765625 C13 0 13 0 14 1 C16.01594582 1.23427778 18.038474 1.41336124 20.0625 1.5625 C21.16722656 1.64628906 22.27195312 1.73007813 23.41015625 1.81640625 C24.26480469 1.87699219 25.11945313 1.93757813 26 2 C26 2.33 26 2.66 26 3 C22.97892098 3.0543251 19.95883472 3.09382927 16.9375 3.125 C16.08994141 3.14175781 15.24238281 3.15851563 14.36914062 3.17578125 C9.16581799 3.21596135 4.92530179 2.69745815 0 1 C0 0.67 0 0.34 0 0 Z " fill="#FE2B58" transform="translate(54,95)"/>
<path d="M0 0 C0.98310479 2.94931437 1.08091521 4.68792581 0.9921875 7.74609375 C0.97542969 8.66583984 0.95867187 9.58558594 0.94140625 10.53320312 C0.89722023 12.46569151 0.84516627 14.39801639 0.78515625 16.33007812 C0.77097656 17.25111328 0.75679687 18.17214844 0.7421875 19.12109375 C0.7201123 19.9608374 0.69803711 20.80058105 0.67529297 21.66577148 C1.07204823 24.51793466 2.24242976 25.7702165 4 28 C4 28.99 4 29.98 4 31 C1 30 1 30 -0.1730957 28.28564453 C-1.16635496 25.54017859 -1.24280929 23.34834632 -1.23046875 20.4296875 C-1.22853516 19.36878906 -1.22660156 18.30789062 -1.22460938 17.21484375 C-1.21236328 16.11269531 -1.20011719 15.01054688 -1.1875 13.875 C-1.18685547 12.76511719 -1.18621094 11.65523437 -1.18554688 10.51171875 C-1.14043257 2.28086515 -1.14043257 2.28086515 0 0 Z " fill="#CB1E5D" transform="translate(141,34)"/>
<path d="M0 0 C1.89488952 1.89488952 1.18019112 4.57139146 1.23046875 7.08984375 C1 9 1 9 -1 11 C-1.33 8.69 -1.66 6.38 -2 4 C-3.98 4.33 -5.96 4.66 -8 5 C-7.625 3.0625 -7.625 3.0625 -7 1 C-4.51588385 -0.24205807 -2.74800896 -0.14092354 0 0 Z " fill="#D24C58" transform="translate(67,53)"/>
<path d="M0 0 C0.17942163 3.94727588 0.09350689 6.5980513 -2 10 C-2.99 9.67 -3.98 9.34 -5 9 C-5 6.36 -5 3.72 -5 1 C-3 0 -3 0 0 0 Z " fill="#DC0729" transform="translate(55,56)"/>
<path d="M0 0 C1.27368421 7.17894737 1.27368421 7.17894737 0 11 C-0.66 11 -1.32 11 -2 11 C-2.33 8.36 -2.66 5.72 -3 3 C-5.97 2.505 -5.97 2.505 -9 2 C-9 1.34 -9 0.68 -9 0 C-2.25 -1.125 -2.25 -1.125 0 0 Z " fill="#E91658" transform="translate(341,37)"/>
<path d="M0 0 C-3.0296652 2.44814179 -6.07549599 4.09452853 -9.625 5.6875 C-10.58664063 6.12449219 -11.54828125 6.56148438 -12.5390625 7.01171875 C-15 8 -15 8 -17 8 C-17 7.34 -17 6.68 -17 6 C-15.68 6 -14.36 6 -13 6 C-12.67 5.01 -12.34 4.02 -12 3 C-8.43397458 -0.85130745 -4.91551869 -0.24577593 0 0 Z " fill="#E54157" transform="translate(44,85)"/>
<path d="M0 0 C0.33 0 0.66 0 1 0 C1 6.27 1 12.54 1 19 C0.34 19 -0.32 19 -1 19 C-2.5013979 12.39384924 -1.30737687 6.58010343 0 0 Z " fill="#FE125C" transform="translate(340,74)"/>
<path d="M0 0 C6.30214697 0.33169195 10.85216936 3.67323988 16 7 C14 8 14 8 10.875 7.0625 C9.92625 6.711875 8.9775 6.36125 8 6 C8 5.34 8 4.68 8 4 C5.69 3.67 3.38 3.34 1 3 C0.67 2.01 0.34 1.02 0 0 Z " fill="#DE205B" transform="translate(80,5)"/>
<path d="M0 0 C0.99 0 1.98 0 3 0 C2.9375 1.8125 2.9375 1.8125 2 4 C-1.4960903 5.81278756 -4.03981755 7 -8 7 C-8 6.01 -8 5.02 -8 4 C-6.865625 3.525625 -5.73125 3.05125 -4.5625 2.5625 C-1.24259834 1.36377917 -1.24259834 1.36377917 0 0 Z " fill="#F3283E" transform="translate(51,75)"/>
<path d="M0 0 C0.33 0.66 0.66 1.32 1 2 C0.34 2 -0.32 2 -1 2 C-3.40383999 10.40927879 -3.40383999 10.40927879 -5 19 C-5.33 19 -5.66 19 -6 19 C-6.57251908 5.8956743 -6.57251908 5.8956743 -3 1 C-2.01 0.67 -1.02 0.34 0 0 Z " fill="#B71F36" transform="translate(37,43)"/>
<path d="M0 0 C0.77321882 2.98241547 1.41196203 5.97580475 2 9 C4.31 8.01 6.62 7.02 9 6 C7.125 9.875 7.125 9.875 6 11 C3.66702567 11.04092937 1.33294775 11.04241723 -1 11 C-2.60080151 6.99799622 -1.29279692 3.95443764 0 0 Z " fill="#D84C57" transform="translate(57,58)"/>
<path d="M0 0 C0.66 0 1.32 0 2 0 C1.7834375 0.80050781 1.7834375 0.80050781 1.5625 1.6171875 C0.09631589 7.50228763 -0.22734497 12.95009776 0 19 C-0.66 19.33 -1.32 19.66 -2 20 C-2.05392397 17.22890693 -2.09363455 14.45886182 -2.125 11.6875 C-2.14175781 10.90181641 -2.15851562 10.11613281 -2.17578125 9.30664062 C-2.18544922 8.1706543 -2.18544922 8.1706543 -2.1953125 7.01171875 C-2.20578613 6.31522217 -2.21625977 5.61872559 -2.22705078 4.90112305 C-2 3 -2 3 0 0 Z " fill="#E60236" transform="translate(14,44)"/>
<path d="M0 0 C0.33 0 0.66 0 1 0 C3.26439611 9.36085176 3.20166126 18.44349683 3 28 C2.67 28 2.34 28 2 28 C2 23.38 2 18.76 2 14 C1.34 14 0.68 14 0 14 C0 9.38 0 4.76 0 0 Z " fill="#D50025" transform="translate(106,34)"/>
<path d="M0 0 C4.42679007 1.47559669 4.91432696 3.90057368 7 8 C7 8.66 7 9.32 7 10 C5.1875 9.875 5.1875 9.875 3 9 C1.04679411 5.79116175 0 3.7794561 0 0 Z " fill="#E52054" transform="translate(105,28)"/>
<path d="M0 0 C2.22808159 -0.10853983 4.45769932 -0.18583307 6.6875 -0.25 C7.92886719 -0.29640625 9.17023438 -0.3428125 10.44921875 -0.390625 C14.53455169 0.05880657 16.09488246 1.17820323 19 4 C18.67 4.66 18.34 5.32 18 6 C15 6 15 6 13 5 C12.67 4.01 12.34 3.02 12 2 C8.04 1.67 4.08 1.34 0 1 C0 0.67 0 0.34 0 0 Z " fill="#E91058" transform="translate(158,54)"/>
<path d="M0 0 C0.99 0 1.98 0 3 0 C2.78515625 1.890625 2.78515625 1.890625 2 4 C-0.06640625 5.046875 -0.06640625 5.046875 -2.5625 5.75 C-3.80193359 6.11351562 -3.80193359 6.11351562 -5.06640625 6.484375 C-6.02353516 6.73960938 -6.02353516 6.73960938 -7 7 C-6.65625 5.07421875 -6.65625 5.07421875 -6 3 C-3.5 1.8125 -3.5 1.8125 -1 1 C-0.67 0.67 -0.34 0.34 0 0 Z " fill="#C60219" transform="translate(74,42)"/>
<path d="M0 0 C2.49361571 1.20381448 4.68143083 2.45428722 7 4 C6.75 5.875 6.75 5.875 6 8 C4.125 9.3125 4.125 9.3125 2 10 C1.01 9.67 0.02 9.34 -1 9 C0.65 7.68 2.3 6.36 4 5 C3.34 4.360625 2.68 3.72125 2 3.0625 C0 1 0 1 0 0 Z " fill="#DB3264" transform="translate(96,13)"/>
<path d="M0 0 C0.33 0 0.66 0 1 0 C1.3125 2.25 1.3125 2.25 1 5 C-1.5 7.3125 -1.5 7.3125 -4 9 C-5.32 8.34 -6.64 7.68 -8 7 C-8 5.68 -8 4.36 -8 3 C-5.36 3.33 -2.72 3.66 0 4 C0 2.68 0 1.36 0 0 Z " fill="#E1676F" transform="translate(65,59)"/>
<path d="M0 0 C0.33 0.99 0.66 1.98 1 3 C-8.41002278 7.40774487 -8.41002278 7.40774487 -13 8 C-13 7.34 -13 6.68 -13 6 C-8.71 4.02 -4.42 2.04 0 0 Z " fill="#B5162C" transform="translate(65,44)"/>
<path d="M0 0 C0.23053497 2.84326464 0.35903101 4.46145349 -1.25 6.875 C-3 8 -3 8 -5.1875 7.6875 C-5.785625 7.460625 -6.38375 7.23375 -7 7 C-2.53191489 0 -2.53191489 0 0 0 Z " fill="#E83B51" transform="translate(88,77)"/>
<path d="M0 0 C1.2065625 0.2475 1.2065625 0.2475 2.4375 0.5 C2.4375 0.83 2.4375 1.16 2.4375 1.5 C1.47328125 1.56058594 0.5090625 1.62117188 -0.484375 1.68359375 C-1.74765625 1.76738281 -3.0109375 1.85117187 -4.3125 1.9375 C-5.56546875 2.01871094 -6.8184375 2.09992187 -8.109375 2.18359375 C-10.74567553 2.42515522 -13.04287294 2.74283934 -15.5625 3.5 C-15.5625 2.84 -15.5625 2.18 -15.5625 1.5 C-10.72657087 -1.72395275 -5.60533751 -0.78671404 0 0 Z " fill="#AD1B38" transform="translate(66.5625,29.5)"/>
<path d="M0 0 C0.28875 0.639375 0.5775 1.27875 0.875 1.9375 C1.82823451 4.15206079 1.82823451 4.15206079 4 5 C4.33 3.68 4.66 2.36 5 1 C5.66 1 6.32 1 7 1 C6.37240135 3.92879371 5.41377341 6.36095629 4 9 C2.68 8.34 1.36 7.68 0 7 C0 4.69 0 2.38 0 0 Z " fill="#DC1D37" transform="translate(49,61)"/>
<path d="M0 0 C2.97 0 5.94 0 9 0 C1.3875 5.075 1.3875 5.075 -2.3125 4.875 C-4 4 -4 4 -5 1 C-4.34 1 -3.68 1 -3 1 C-3 1.66 -3 2.32 -3 3 C-1.68 3 -0.36 3 1 3 C0.67 2.01 0.34 1.02 0 0 Z " fill="#E44363" transform="translate(18,93)"/>
<path d="M0 0 C2.31 0 4.62 0 7 0 C4.48169253 3.12270126 3.2738451 3.94523098 -0.75 4.75 C-2.35875 4.87375 -2.35875 4.87375 -4 5 C-4 4.34 -4 3.68 -4 3 C-2.68 3 -1.36 3 0 3 C0 2.01 0 1.02 0 0 Z " fill="#B8020C" transform="translate(48,28)"/>
<path d="M0 0 C1.32 0.33 2.64 0.66 4 1 C4 1.99 4 2.98 4 4 C4.350625 4.825 4.70125 5.65 5.0625 6.5 C6 9 6 9 5 12 C4.16180842 10.37750059 3.3295884 8.75191503 2.5 7.125 C2.0359375 6.22007813 1.571875 5.31515625 1.09375 4.3828125 C0 2 0 2 0 0 Z " fill="#E31A59" transform="translate(7,82)"/>
<path d="M0 0 C0.66 0 1.32 0 2 0 C3.11445498 2.22890995 3.16480286 3.53055106 3.1875 6 C3.20167969 6.70125 3.21585937 7.4025 3.23046875 8.125 C3 10 3 10 1 12 C0.22596442 7.93631321 -0.0984702 4.13574827 0 0 Z " fill="#CF253B" transform="translate(89,56)"/>
<path d="M0 0 C-2.31941506 1.54627671 -4.52979752 2.86182828 -7 4.125 C-7.680625 4.47820313 -8.36125 4.83140625 -9.0625 5.1953125 C-11 6 -11 6 -14 6 C-14 5.34 -14 4.68 -14 4 C-12.68 4 -11.36 4 -10 4 C-10 3.34 -10 2.68 -10 2 C-6.5980513 -0.09350689 -3.94727588 -0.17942163 0 0 Z " fill="#DA1F5A" transform="translate(92,25)"/>
<path d="M0 0 C0.66 0.66 1.32 1.32 2 2 C-0.64738916 3.4606285 -1.89448334 4 -5 4 C-5 4.66 -5 5.32 -5 6 C-5.99 6.33 -6.98 6.66 -8 7 C-8.99 6.34 -9.98 5.68 -11 5 C-7.37 3.35 -3.74 1.7 0 0 Z " fill="#E1374D" transform="translate(48,75)"/>
<path d="M0 0 C3.13107836 3.38583802 3.33550778 5.71109462 3.1875 10.25 C3.16042969 11.32765625 3.13335938 12.4053125 3.10546875 13.515625 C3.07066406 14.33546875 3.03585938 15.1553125 3 16 C2.01 15.67 1.02 15.34 0 15 C0.66 15 1.32 15 2 15 C1.855625 14.41992188 1.71125 13.83984375 1.5625 13.2421875 C0.49110572 8.73340325 -0.23945936 4.66945753 0 0 Z " fill="#FC244E" transform="translate(13,78)"/>
<path d="M0 0 C0.556875 0.28875 1.11375 0.5775 1.6875 0.875 C4.08494645 2.0413253 6.51596939 3.0339881 9 4 C9 4.66 9 5.32 9 6 C6.69 5.67 4.38 5.34 2 5 C1.34 3.35 0.68 1.7 0 0 Z " fill="#EA0F57" transform="translate(141,88)"/>
<path d="M0 0 C-4.29 1.65 -8.58 3.3 -13 5 C-13 4.01 -13 3.02 -13 2 C-11.59308393 1.27249212 -10.17393978 0.56859647 -8.75 -0.125 C-7.96109375 -0.51945312 -7.1721875 -0.91390625 -6.359375 -1.3203125 C-4 -2 -4 -2 0 0 Z " fill="#BA1C34" transform="translate(84,45)"/>
<path d="M0 0 C0.33 0.99 0.66 1.98 1 3 C0.01 4.485 0.01 4.485 -1 6 C-1.66 6 -2.32 6 -3 6 C-3 6.66 -3 7.32 -3 8 C-4.32 8.33 -5.64 8.66 -7 9 C-7 7 -7 7 -4.625 4.5 C-3.75875 3.675 -2.8925 2.85 -2 2 C-1.34 1.34 -0.68 0.68 0 0 Z M-9 9 C-7 10 -7 10 -7 10 Z " fill="#FA0B46" transform="translate(103,83)"/>
<path d="M0 0 C0.66 0 1.32 0 2 0 C3 3 3 3 2.22265625 4.82421875 C1.1484375 6.54947917 0.07421875 8.27473958 -1 10 C-2.16553292 6.50340123 -1.77297578 4.55568859 -1 1 C-0.67 0.67 -0.34 0.34 0 0 Z " fill="#F81444" transform="translate(106,72)"/>
<path d="M0 0 C5.52677733 -0.19392201 9.75614911 0.2520497 15 2 C14.34 2.66 13.68 3.32 13 4 C8.51499802 3.58279051 4.29806056 2.28941817 0 1 C0 0.67 0 0.34 0 0 Z " fill="#DC225A" transform="translate(63,29)"/>
<path d="M0 0 C-3.78756477 3.61139896 -3.78756477 3.61139896 -6 5 C-8.875 4.8125 -8.875 4.8125 -11 4 C-3.77464789 -1.88732394 -3.77464789 -1.88732394 0 0 Z " fill="#BC182D" transform="translate(78,40)"/>
<path d="M0 0 C0.66 0.33 1.32 0.66 2 1 C0.02 3.31 -1.96 5.62 -4 8 C-4.99 7.67 -5.98 7.34 -7 7 C-5.625 5.5 -5.625 5.5 -4 4 C-3.34 4 -2.68 4 -2 4 C-2 3.34 -2 2.68 -2 2 C-1.34 2 -0.68 2 0 2 C0 1.34 0 0.68 0 0 Z " fill="#CB324A" transform="translate(73,67)"/>
<path d="M0 0 C2.0625 0.4375 2.0625 0.4375 4 1 C3.1875 3.4375 3.1875 3.4375 2 6 C1.01 6.33 0.02 6.66 -1 7 C-1.33 6.34 -1.66 5.68 -2 5 C-1.34 5 -0.68 5 0 5 C-0.2784375 4.0409375 -0.2784375 4.0409375 -0.5625 3.0625 C-0.7790625 2.0415625 -0.7790625 2.0415625 -1 1 C-0.67 0.67 -0.34 0.34 0 0 Z " fill="#F30E58" transform="translate(93,18)"/>
<path d="M0 0 C-0.66 1.65 -1.32 3.3 -2 5 C-4.97 4.505 -4.97 4.505 -8 4 C-6.4425489 0.88509781 -3.40085499 0 0 0 Z " fill="#DD1E58" transform="translate(39,95)"/>
<path d="M0 0 C1.08667969 0.29197266 1.08667969 0.29197266 2.1953125 0.58984375 C2.74960937 0.74582031 3.30390625 0.90179688 3.875 1.0625 C3.875 1.7225 3.875 2.3825 3.875 3.0625 C0.15611761 2.55537967 -2.85954239 1.94641785 -6.125 0.0625 C-3.57797384 -1.21101308 -2.6967055 -0.73941925 0 0 Z " fill="#D42C61" transform="translate(49.125,91.9375)"/>
<path d="M0 0 C0 0.66 0 1.32 0 2 C-0.66 2 -1.32 2 -2 2 C-2.33 2.99 -2.66 3.98 -3 5 C-4.32 5 -5.64 5 -7 5 C-6 2 -6 2 -4.0625 0.8125 C-2 0 -2 0 0 0 Z " fill="#E64454" transform="translate(76,89)"/>
<path d="M0 0 C0.99 0 1.98 0 3 0 C3.66 1.98 4.32 3.96 5 6 C3.35 5.67 1.7 5.34 0 5 C0 3.35 0 1.7 0 0 Z " fill="#E72C44" transform="translate(32,74)"/>
<path d="M0 0 C0.33 0.99 0.66 1.98 1 3 C-0.65 4.65 -2.3 6.3 -4 8 C-4.66 7.67 -5.32 7.34 -6 7 C-4.02 4.69 -2.04 2.38 0 0 Z " fill="#DD1E60" transform="translate(20,19)"/>
<path d="M0 0 C0 0.99 0 1.98 0 3 C-2.70879335 4.35439668 -5.00933268 4.06501451 -8 4 C-2.7826087 0 -2.7826087 0 0 0 Z " fill="#B31029" transform="translate(86,35)"/>
<path d="M0 0 C0.99 0.33 1.98 0.66 3 1 C2.34 1 1.68 1 1 1 C0.34 2.32 -0.32 3.64 -1 5 C-2.32 4.67 -3.64 4.34 -5 4 C-2.6875 1.9375 -2.6875 1.9375 0 0 Z " fill="#DA0226" transform="translate(29,29)"/>
<path d="M0 0 C0.33 0.99 0.66 1.98 1 3 C2.65 3 4.3 3 6 3 C5.67 3.99 5.34 4.98 5 6 C3.35 5.67 1.7 5.34 0 5 C0 3.35 0 1.7 0 0 Z " fill="#C33C43" transform="translate(55,66)"/>
<path d="M0 0 C3 3.625 3 3.625 3 7 C2.01 6.67 1.02 6.34 0 6 C-0.38218767 4.34385343 -0.71395102 2.67542976 -1 1 C-0.67 0.67 -0.34 0.34 0 0 Z " fill="#E51C57" transform="translate(142,58)"/>
</svg>
