<?xml version="1.0" encoding="UTF-8"?>
<svg version="1.1" xmlns="http://www.w3.org/2000/svg" width="122" height="125">
<path d="M0 0 C2.08617763 1.53910308 4.16723077 3.08385585 6.234375 4.6484375 C6.08276367 6.45776367 6.08276367 6.45776367 5.234375 8.6484375 C1.81919717 10.88003832 -1.90253422 12.45945241 -5.61987305 14.13208008 C-7.43851433 14.95433166 -9.24188512 15.8100879 -11.04492188 16.66601562 C-12.19412109 17.19259766 -13.34332031 17.71917969 -14.52734375 18.26171875 C-15.57881592 18.74423096 -16.63028809 19.22674316 -17.71362305 19.72387695 C-21.21329133 20.78405164 -23.24368368 20.48167653 -26.765625 19.6484375 C-37.15968848 18.71744995 -45.03227014 19.67081942 -53.765625 25.6484375 C-56.45472016 28.03668724 -57.61825134 29.20631653 -58.765625 32.6484375 C-59.425625 32.6484375 -60.085625 32.6484375 -60.765625 32.6484375 C-64.03259898 42.70216101 -65.40983564 51.6211298 -61.51953125 61.67578125 C-60.765625 63.6484375 -60.765625 63.6484375 -59.765625 67.6484375 C-54.815625 65.3384375 -49.865625 63.0284375 -44.765625 60.6484375 C-46.085625 58.6684375 -47.405625 56.6884375 -48.765625 54.6484375 C-50.21678891 49.77667294 -49.64525253 46.34750632 -47.765625 41.6484375 C-43.82267563 36.91841186 -39.44511663 34.73945484 -33.953125 32.2734375 C-33.11434814 31.88623535 -32.27557129 31.4990332 -31.41137695 31.10009766 C-25.48029136 28.3769889 -19.50590162 25.74991121 -13.50170898 23.19213867 C-10.19873541 21.77179728 -6.98005196 20.27077441 -3.80078125 18.58984375 C-3.16374268 18.25484863 -2.5267041 17.91985352 -1.87036133 17.57470703 C-0.12440843 16.64393051 1.61010496 15.69178602 3.34375 14.73828125 C6.234375 13.6484375 6.234375 13.6484375 8.4375 14.19140625 C16.21054664 20.4943332 19.75896495 33.10745252 21.234375 42.6484375 C21.75150789 52.37451378 21.71386404 61.41957815 18.234375 70.6484375 C17.94433594 71.42445312 17.65429688 72.20046875 17.35546875 73 C14.12207562 80.87378579 9.56149771 87.9238979 3.234375 93.6484375 C2.68394531 94.19113281 2.13351563 94.73382813 1.56640625 95.29296875 C-9.51153383 105.77703988 -24.68330683 110.75756812 -39.79296875 110.62109375 C-54.32448588 109.91266069 -67.99886654 104.54221554 -78.765625 94.6484375 C-78.60961914 92.84130859 -78.60961914 92.84130859 -77.765625 90.6484375 C-73.84962671 88.02917807 -69.48027036 86.23331543 -65.203125 84.2734375 C-64.03458984 83.70238281 -62.86605469 83.13132812 -61.66210938 82.54296875 C-51.95846937 78.04415765 -51.95846937 78.04415765 -47.35546875 79.30078125 C-46.17082031 79.74550781 -44.98617187 80.19023438 -43.765625 80.6484375 C-34.54322706 81.05075687 -27.66068443 79.23967049 -19.765625 74.6484375 C-18.775625 74.3184375 -17.785625 73.9884375 -16.765625 73.6484375 C-15.75646467 71.88251863 -15.75646467 71.88251863 -14.765625 69.6484375 C-14.105625 68.6790625 -13.445625 67.7096875 -12.765625 66.7109375 C-8.63538954 60.38651445 -6.98883994 54.07836387 -8.3046875 46.57421875 C-9.48394611 41.73211143 -10.90987066 37.28782336 -12.765625 32.6484375 C-16.725625 34.2984375 -20.685625 35.9484375 -24.765625 37.6484375 C-23.775625 39.1025 -23.775625 39.1025 -22.765625 40.5859375 C-20.31888276 44.90268988 -19.86975984 48.77883379 -20.765625 53.6484375 C-23.92983172 59.54040863 -27.04896172 62.58555319 -33.21484375 65 C-39.42529774 67.49688077 -45.50227537 70.21721039 -51.578125 73.0234375 C-52.61549805 73.4987793 -53.65287109 73.97412109 -54.72167969 74.46386719 C-59.34000437 76.58424815 -63.94649317 78.72044591 -68.51171875 80.953125 C-69.19967529 81.28650879 -69.88763184 81.61989258 -70.59643555 81.96337891 C-72.38153305 82.83310584 -74.1598169 83.71677959 -75.9375 84.6015625 C-78.765625 85.6484375 -78.765625 85.6484375 -80.96875 85.58984375 C-87.42607779 82.2067655 -89.96355008 71.85837048 -92.00390625 65.41015625 C-96.21909605 50.12739119 -94.18650031 34.03022151 -87.140625 19.8984375 C-83.57417225 13.81717832 -78.92226525 8.44337097 -73.765625 3.6484375 C-73.105625 3.6484375 -72.445625 3.6484375 -71.765625 3.6484375 C-71.765625 2.9884375 -71.765625 2.3284375 -71.765625 1.6484375 C-48.79039529 -12.73726864 -23.21434251 -15.93282514 0 0 Z " fill="#FB0251" transform="translate(96.765625,12.3515625)"/>
<path d="M0 0 C3 1 3 1 4.71875 3.73828125 C12.42721774 19.20593034 16.42238545 35.61339921 10.91015625 52.5859375 C10.60980469 53.38257813 10.30945313 54.17921875 10 55 C9.70996094 55.77601562 9.41992188 56.55203125 9.12109375 57.3515625 C5.88770062 65.22534829 1.32712271 72.2754604 -5 78 C-5.55042969 78.54269531 -6.10085937 79.08539063 -6.66796875 79.64453125 C-17.74590883 90.12860238 -32.91768183 95.10913062 -48.02734375 94.97265625 C-62.55886088 94.26422319 -76.23324154 88.89377804 -87 79 C-86.84399414 77.19287109 -86.84399414 77.19287109 -86 75 C-82.08400171 72.38074057 -77.71464536 70.58487793 -73.4375 68.625 C-72.26896484 68.05394531 -71.10042969 67.48289062 -69.89648438 66.89453125 C-60.19284437 62.39572015 -60.19284437 62.39572015 -55.58984375 63.65234375 C-54.40519531 64.09707031 -53.22054687 64.54179688 -52 65 C-42.77760206 65.40231937 -35.89505943 63.59123299 -28 59 C-27.01 58.67 -26.02 58.34 -25 58 C-23.99083967 56.23408113 -23.99083967 56.23408113 -23 54 C-22.34 53.030625 -21.68 52.06125 -21 51.0625 C-17.57741386 45.82166498 -16.6597671 41.38711697 -16.375 35.1875 C-16.33632812 34.49462891 -16.29765625 33.80175781 -16.2578125 33.08789062 C-16.16426432 31.39232985 -16.08107636 29.69620288 -16 28 C-15.34 28 -14.68 28 -14 28 C-11.36736314 33.26527373 -12.40119071 41.23479787 -13.61328125 46.83203125 C-15.90537237 53.243828 -19.85348644 58.5531056 -25 63 C-27.75390625 64.25 -27.75390625 64.25 -30 65 C-30 65.66 -30 66.32 -30 67 C-21.23244988 66.71206732 -15.00862858 66.08413357 -8.71875 59.67578125 C2.35920593 47.06921127 4.02917079 33.20626348 3 17 C2.31552234 11.27588778 1.19849154 5.63576381 0 0 Z " fill="#FB0453" transform="translate(105,28)"/>
<path d="M0 0 C0.66666667 4 1.33333333 8 2 12 C2.18304688 12.93714844 2.36609375 13.87429687 2.5546875 14.83984375 C3.12537855 18.88974777 3.18411019 22.85278012 3.1875 26.9375 C3.19974609 27.71029297 3.21199219 28.48308594 3.22460938 29.27929688 C3.23709412 34.20244682 2.58432793 38.28690936 1 43 C0.75121094 43.81984375 0.50242188 44.6396875 0.24609375 45.484375 C-2.6817815 53.68808344 -7.99491098 61.67486625 -15.3125 66.625 C-20.47967317 68.55174254 -25.5195956 68.82001956 -31 69 C-31 67.68 -31 66.36 -31 65 C-30.13375 64.649375 -29.2675 64.29875 -28.375 63.9375 C-21.5780782 60.03556341 -18.16166216 54.55283788 -15.6796875 47.19921875 C-14.39819766 41.16737863 -14.70183382 35.1372538 -15 29 C-15.99 29 -16.98 29 -18 29 C-18.47985967 27.72942818 -18.9588593 26.45853152 -19.4375 25.1875 C-19.70433594 24.47980469 -19.97117188 23.77210937 -20.24609375 23.04296875 C-20.86225186 21.37327604 -21.43719235 19.68842296 -22 18 C-27.94 20.475 -27.94 20.475 -34 23 C-33.34 23.969375 -32.68 24.93875 -32 25.9375 C-29.48683524 30.25589579 -29.6021488 34.12632275 -30 39 C-31.485 39.495 -31.485 39.495 -33 40 C-33 40.66 -33 41.32 -33 42 C-33.66 42 -34.32 42 -35 42 C-35 42.66 -35 43.32 -35 44 C-37.35438733 45.42944945 -38.48032433 46.08661261 -41.25 45.625 C-41.8275 45.41875 -42.405 45.2125 -43 45 C-41.19354839 39.32258065 -41.19354839 39.32258065 -39.875 37.125 C-38.49361286 33.77020265 -38.87982238 30.60532853 -39 27 C-41.31 27 -43.62 27 -46 27 C-46.33 28.32 -46.66 29.64 -47 31 C-47.66 31 -48.32 31 -49 31 C-49.12375 32.051875 -49.2475 33.10375 -49.375 34.1875 C-49.91140782 37.45958771 -50.63880035 40.00536076 -52 43 C-55.94477066 40.37015289 -56.02667201 38.56715441 -57 34 C-57.4375 30.375 -57.4375 30.375 -57 27 C-53.13594074 22.23483602 -48.64963484 20.07761102 -43.1875 17.625 C-42.34872314 17.23779785 -41.50994629 16.8505957 -40.64575195 16.45166016 C-34.71482032 13.72862208 -28.73877138 11.10734475 -22.73828125 8.54150391 C-16.93711824 6.03953173 -11.36438924 3.16234362 -5.79296875 0.1875 C-3 -1 -3 -1 0 0 Z " fill="#DE122B" transform="translate(106,27)"/>
<path d="M0 0 C0.85529297 -0.01764404 1.71058594 -0.03528809 2.59179688 -0.0534668 C8.09746703 -0.04758467 11.9056923 0.79601811 16.8125 3.3125 C16.8125 3.6425 16.8125 3.9725 16.8125 4.3125 C16.15765625 4.31507812 15.5028125 4.31765625 14.828125 4.3203125 C6.03652763 4.69283781 -1.79261203 7.44349606 -8.47265625 13.32421875 C-10.39333942 15.29646075 -10.39333942 15.29646075 -11.1875 18.3125 C-11.8475 18.3125 -12.5075 18.3125 -13.1875 18.3125 C-16.47461753 28.42821288 -17.77039805 37.25183153 -13.921875 47.36328125 C-13.06319322 49.64244193 -12.57485485 51.91089996 -12.1875 54.3125 C-10.2075 54.3125 -8.2275 54.3125 -6.1875 54.3125 C-5.8575 54.9725 -5.5275 55.6325 -5.1875 56.3125 C-6.09242187 56.71082031 -6.09242187 56.71082031 -7.015625 57.1171875 C-7.81484375 57.47039062 -8.6140625 57.82359375 -9.4375 58.1875 C-10.22640625 58.53554687 -11.0153125 58.88359375 -11.828125 59.2421875 C-14.17981522 60.26655348 -14.17981522 60.26655348 -16.296875 61.5078125 C-18.1875 62.3125 -18.1875 62.3125 -21.1875 61.3125 C-21.1875 61.9725 -21.1875 62.6325 -21.1875 63.3125 C-22.5075 63.3125 -23.8275 63.3125 -25.1875 63.3125 C-25.6825 64.3025 -25.6825 64.3025 -26.1875 65.3125 C-31.9375 63.6875 -31.9375 63.6875 -34.1875 60.3125 C-34.1875 58.3125 -34.1875 56.3125 -34.1875 54.3125 C-34.8475 53.3225 -35.5075 52.3325 -36.1875 51.3125 C-37.33141486 43.69359534 -37.29407431 35.8228501 -37.375 28.125 C-37.38805176 27.39458496 -37.40110352 26.66416992 -37.41455078 25.91162109 C-37.42072471 22.15522651 -37.32512646 20.51893969 -35.1875 17.3125 C-34.5275 17.3125 -33.8675 17.3125 -33.1875 17.3125 C-32.8575 15.9925 -32.5275 14.6725 -32.1875 13.3125 C-31.5275 13.3125 -30.8675 13.3125 -30.1875 13.3125 C-29.8575 12.3225 -29.5275 11.3325 -29.1875 10.3125 C-20.39668249 0.80891351 -12.49802605 0.14905694 0 0 Z " fill="#DE132B" transform="translate(49.1875,26.6875)"/>
<path d="M0 0 C-0.33 1.98 -0.66 3.96 -1 6 C-1.495 5.01 -1.495 5.01 -2 4 C-4.97 4.66 -7.94 5.32 -11 6 C-11 6.99 -11 7.98 -11 9 C-11.66 9.33 -12.32 9.66 -13 10 C-12.505 10.99 -12.505 10.99 -12 12 C-12.94875 12.433125 -13.8975 12.86625 -14.875 13.3125 C-18.20041937 14.79302201 -18.20041937 14.79302201 -20 18 C-22.2421875 18.84375 -22.2421875 18.84375 -24.875 19.5 C-28.59101493 20.43177688 -31.0510437 21.53110635 -34 24 C-33.01 25.2065625 -33.01 25.2065625 -32 26.4375 C-29.27790404 30.43438034 -29.62661728 34.33271604 -30 39 C-31.485 39.495 -31.485 39.495 -33 40 C-33 40.66 -33 41.32 -33 42 C-33.66 42 -34.32 42 -35 42 C-35 42.66 -35 43.32 -35 44 C-37.35438733 45.42944945 -38.48032433 46.08661261 -41.25 45.625 C-41.8275 45.41875 -42.405 45.2125 -43 45 C-41.19354839 39.32258065 -41.19354839 39.32258065 -39.875 37.125 C-38.49361286 33.77020265 -38.87982238 30.60532853 -39 27 C-41.31 27 -43.62 27 -46 27 C-46.33 28.32 -46.66 29.64 -47 31 C-47.66 31 -48.32 31 -49 31 C-49.12375 32.051875 -49.2475 33.10375 -49.375 34.1875 C-49.91140782 37.45958771 -50.63880035 40.00536076 -52 43 C-55.94477066 40.37015289 -56.02667201 38.56715441 -57 34 C-57.4375 30.375 -57.4375 30.375 -57 27 C-53.13594074 22.23483602 -48.64963484 20.07761102 -43.1875 17.625 C-42.34872314 17.23779785 -41.50994629 16.8505957 -40.64575195 16.45166016 C-34.71482032 13.72862208 -28.73877138 11.10734475 -22.73828125 8.54150391 C-16.93711824 6.03953173 -11.36438924 3.16234362 -5.79296875 0.1875 C-3 -1 -3 -1 0 0 Z " fill="#C70A26" transform="translate(106,27)"/>
<path d="M0 0 C1 1 1 1 1.25 4.75 C1.21514403 8.66084004 0.20330823 10.73910383 -2 14 C-2.70670728 16.69254991 -2.70670728 16.69254991 -3 19 C-0.69 18.67 1.62 18.34 4 18 C4 17.34 4 16.68 4 16 C4.66 16 5.32 16 6 16 C6 15.34 6 14.68 6 14 C6.66 14.33 7.32 14.66 8 15 C4.6156864 19.79444427 2.00999401 22.28065171 -3.49609375 24.40234375 C-9.69860372 26.86917647 -15.75355606 29.57658105 -21.8125 32.375 C-22.84987305 32.8503418 -23.88724609 33.32568359 -24.95605469 33.81542969 C-29.57437937 35.93581065 -34.18086817 38.07200841 -38.74609375 40.3046875 C-39.43405029 40.63807129 -40.12200684 40.97145508 -40.83081055 41.31494141 C-42.61590805 42.18466834 -44.3941919 43.06834209 -46.171875 43.953125 C-49.07545708 45.02793163 -50.1893501 45.17337811 -53 44 C-53.33 42.68 -53.66 41.36 -54 40 C-53.34 40 -52.68 40 -52 40 C-52.144375 39.41992188 -52.28875 38.83984375 -52.4375 38.2421875 C-53.50889428 33.73340325 -54.23945936 29.66945753 -54 25 C-51.221279 28.12606112 -50.78827822 29.87142536 -51 34 C-50.67 34.99 -50.34 35.98 -50 37 C-45.98195309 37.84098656 -42.98196457 38.05404945 -39 37 C-39 36.34 -39 35.68 -39 35 C-37.63875 34.8453125 -37.63875 34.8453125 -36.25 34.6875 C-32.87873774 33.97434837 -31.61792551 33.11123025 -29 31 C-27.35202764 30.28837557 -25.68834592 29.60968047 -24 29 C-25.98 28.67 -27.96 28.34 -30 28 C-26.9377256 25.51372483 -23.8542946 23.90010596 -20.25 22.3125 C-19.26515625 21.87550781 -18.2803125 21.43851563 -17.265625 20.98828125 C-16.14414063 20.49908203 -16.14414063 20.49908203 -15 20 C-15.639375 19.13375 -16.27875 18.2675 -16.9375 17.375 C-19.54959189 13.10066781 -20.31548766 10.07320465 -19.5625 5.125 C-19.2840625 4.073125 -19.2840625 4.073125 -19 3 C-18.67 3 -18.34 3 -18 3 C-17.79503906 3.85464844 -17.59007812 4.70929687 -17.37890625 5.58984375 C-17.10949219 6.69457031 -16.84007812 7.79929687 -16.5625 8.9375 C-16.29566406 10.03964844 -16.02882812 11.14179687 -15.75390625 12.27734375 C-15.27004275 14.89421254 -15.27004275 14.89421254 -14 16 C-12.68 12.37 -11.36 8.74 -10 5 C-9.34 5 -8.68 5 -8 5 C-7.814375 4.0409375 -7.814375 4.0409375 -7.625 3.0625 C-7.41875 2.381875 -7.2125 1.70125 -7 1 C-4.51588385 -0.24205807 -2.74800896 -0.14092354 0 0 Z " fill="#CE293F" transform="translate(67,53)"/>
<path d="M0 0 C1.65 0 3.3 0 5 0 C5.22786458 2.05078125 5.45572917 4.1015625 5.68359375 6.15234375 C5.81886614 8.01140229 5.81886614 8.01140229 7 9 C7.59842362 16.65291748 7.06114268 24.03979652 5.6875 31.5625 C5.51105957 32.56132202 5.51105957 32.56132202 5.33105469 33.58032227 C4.54010105 37.56492822 3.44002337 40.73199955 1 44 C0.34 44 -0.32 44 -1 44 C-1.33 45.32 -1.66 46.64 -2 48 C-3.485 47.505 -3.485 47.505 -5 47 C-4.67 46.01 -4.34 45.02 -4 44 C-4.56460938 44.30550781 -5.12921875 44.61101562 -5.7109375 44.92578125 C-8.02301727 46.01080162 -10.13624183 46.63398021 -12.625 47.1875 C-13.40101562 47.36667969 -14.17703125 47.54585937 -14.9765625 47.73046875 C-17 48 -17 48 -19 47 C-18.25878906 46.43410156 -17.51757812 45.86820313 -16.75390625 45.28515625 C-7.786827 37.84438836 -2.83448583 28.43277778 -1 17 C-0.74857014 14.06544916 -0.58789126 11.12875859 -0.4375 8.1875 C-0.39431641 7.39923828 -0.35113281 6.61097656 -0.30664062 5.79882812 C-0.20121679 3.86605785 -0.10016906 1.93304974 0 0 Z " fill="#FC0250" transform="translate(109,46)"/>
<path d="M0 0 C0.66 0 1.32 0 2 0 C4.63263686 5.26527373 3.59880929 13.23479787 2.38671875 18.83203125 C0.09462763 25.243828 -3.85348644 30.5531056 -9 35 C-11.75390625 36.25 -11.75390625 36.25 -14 37 C-14 37.66 -14 38.32 -14 39 C-9.05 38.67 -4.1 38.34 1 38 C-3.6172783 42.6172783 -11.65865801 42.41663323 -17.875 42.4375 C-19.08990112 42.44330078 -19.08990112 42.44330078 -20.3293457 42.44921875 C-29.32370674 42.28231846 -37.52524057 39.83504497 -46 37 C-44.375 35.875 -44.375 35.875 -42 35 C-39.98679245 35.62565152 -37.98768163 36.29745735 -36 37 C-26.79104662 37.42553221 -19.87495651 35.57954249 -12 31 C-11.01 30.67 -10.02 30.34 -9 30 C-7.99083967 28.23408113 -7.99083967 28.23408113 -7 26 C-6.34 25.030625 -5.68 24.06125 -5 23.0625 C-1.57741386 17.82166498 -0.6597671 13.38711697 -0.375 7.1875 C-0.33632812 6.49462891 -0.29765625 5.80175781 -0.2578125 5.08789062 C-0.16426432 3.39232985 -0.08107636 1.69620288 0 0 Z " fill="#CF243B" transform="translate(89,56)"/>
<path d="M0 0 C3 1 3 1 4.71875 3.73828125 C12.42721774 19.20593034 16.42238545 35.61339921 10.91015625 52.5859375 C10.60980469 53.38257813 10.30945313 54.17921875 10 55 C9.70996094 55.77601562 9.41992188 56.55203125 9.12109375 57.3515625 C5.2200214 66.85124496 -0.54555106 75.05057297 -9 81 C-8.43079137 77.18802702 -6.75324861 75.36877602 -4.125 72.625 C-0.97994016 69.21503368 1.24469802 66.27854858 3 62 C3.66 62 4.32 62 5 62 C8.77720394 50.39139323 10.32438892 39.17877875 11 27 C10.34 26.67 9.68 26.34 9 26 C8.59270772 23.67843403 8.25561323 21.3431213 8 19 C6.68 18.67 5.36 18.34 4 18 C2.15730278 12.07704464 1.0388092 6.1112924 0 0 Z " fill="#E5225F" transform="translate(105,28)"/>
<path d="M0 0 C-1.32 1.32 -2.64 2.64 -4 4 C-3.01 5.2065625 -3.01 5.2065625 -2 6.4375 C0.72209596 10.43438034 0.37338272 14.33271604 0 19 C-0.99 19.33 -1.98 19.66 -3 20 C-3 20.66 -3 21.32 -3 22 C-3.66 22 -4.32 22 -5 22 C-5 22.66 -5 23.32 -5 24 C-7.35438733 25.42944945 -8.48032433 26.08661261 -11.25 25.625 C-12.11625 25.315625 -12.11625 25.315625 -13 25 C-11.19354839 19.32258065 -11.19354839 19.32258065 -9.875 17.125 C-8.49361286 13.77020265 -8.87982238 10.60532853 -9 7 C-10.65 6.67 -12.3 6.34 -14 6 C-9.26000189 2.05000157 -6.29562136 -0.34975674 0 0 Z " fill="#DB1633" transform="translate(76,47)"/>
<path d="M0 0 C2.778721 3.12606112 3.21172178 4.87142536 3 9 C3.33 9.99 3.66 10.98 4 12 C8.01804691 12.84098656 11.01803543 13.05404945 15 12 C15 11.34 15 10.68 15 10 C15.9075 9.896875 16.815 9.79375 17.75 9.6875 C20.93754821 9.25360243 20.93754821 9.25360243 22.85546875 7.59765625 C25.32651968 5.75674581 27.6716302 4.80408586 30.5625 3.75 C31.51253906 3.39421875 32.46257813 3.0384375 33.44140625 2.671875 C36 2 36 2 39 3 C38.34 3 37.68 3 37 3 C37 3.66 37 4.32 37 5 C35.94683594 5.49628906 34.89367188 5.99257812 33.80859375 6.50390625 C33.11789795 6.8294751 32.42720215 7.15504395 31.71557617 7.49047852 C30.18654263 8.21001407 28.65674575 8.9279296 27.1262207 9.64428711 C23.29209629 11.44020701 19.46930246 13.25258424 15.671875 15.125 C14.66362671 15.61504517 14.66362671 15.61504517 13.63500977 16.11499023 C12.36003997 16.73529333 11.089449 17.3646987 9.82397461 18.00415039 C7.21786946 19.26047707 5.49553028 20.06484322 2.58203125 19.68359375 C2.05996094 19.45800781 1.53789062 19.23242188 1 19 C0.67 17.68 0.34 16.36 0 15 C0.66 15 1.32 15 2 15 C1.855625 14.41992188 1.71125 13.83984375 1.5625 13.2421875 C0.49110572 8.73340325 -0.23945936 4.66945753 0 0 Z " fill="#FA3952" transform="translate(13,78)"/>
<path d="M0 0 C-0.33 1.98 -0.66 3.96 -1 6 C-1.33 5.34 -1.66 4.68 -2 4 C-4.97 4.66 -7.94 5.32 -11 6 C-11 6.99 -11 7.98 -11 9 C-11.99 9.495 -11.99 9.495 -13 10 C-12.67 10.66 -12.34 11.32 -12 12 C-19.29533679 15.8134715 -19.29533679 15.8134715 -22 16 C-23.8125 14.8125 -23.8125 14.8125 -25 13 C-24.86083984 11.05004883 -24.86083984 11.05004883 -24 9 C-22.00634766 7.61206055 -22.00634766 7.61206055 -19.4140625 6.38671875 C-18.48335938 5.94392578 -17.55265625 5.50113281 -16.59375 5.04492188 C-15.12421875 4.37299805 -15.12421875 4.37299805 -13.625 3.6875 C-12.65304688 3.22021484 -11.68109375 2.75292969 -10.6796875 2.27148438 C-3.39842403 -1.13280801 -3.39842403 -1.13280801 0 0 Z " fill="#BC030E" transform="translate(106,27)"/>
<path d="M0 0 C0.88880859 -0.00926514 1.77761719 -0.01853027 2.69335938 -0.02807617 C3.53576172 -0.02396729 4.37816406 -0.0198584 5.24609375 -0.015625 C6.38389282 -0.01224121 6.38389282 -0.01224121 7.54467773 -0.00878906 C9.5625 0.25 9.5625 0.25 12.5625 2.25 C11.386875 2.353125 10.21125 2.45625 9 2.5625 C5.98425691 2.92610023 3.51601945 3.55951683 0.75 4.8125 C-2.4375 6.25 -2.4375 6.25 -5.4375 6.25 C-5.4375 5.59 -5.4375 4.93 -5.4375 4.25 C-4.1175 4.25 -2.7975 4.25 -1.4375 4.25 C-1.4375 3.26 -1.4375 2.27 -1.4375 1.25 C-13.52898969 3.13929526 -21.28486986 5.58465068 -29.6875 14.6875 C-31.79247611 17.76978645 -33.07592068 20.77797275 -34.4375 24.25 C-35.57393966 20.84068103 -35.30497764 20.24664544 -34 17.0625 C-33.71253906 16.34707031 -33.42507812 15.63164063 -33.12890625 14.89453125 C-32.78666016 14.08048828 -32.78666016 14.08048828 -32.4375 13.25 C-31.7775 13.25 -31.1175 13.25 -30.4375 13.25 C-30.1075 12.26 -29.7775 11.27 -29.4375 10.25 C-20.56412312 0.65716013 -12.60943346 0.0843779 0 0 Z " fill="#C80018" transform="translate(49.4375,26.75)"/>
<path d="M0 0 C0.79148437 -0.01417969 1.58296875 -0.02835938 2.3984375 -0.04296875 C4.625 0.1875 4.625 0.1875 7.625 2.1875 C6.97015625 2.19007812 6.3153125 2.19265625 5.640625 2.1953125 C-3.15097237 2.56783781 -10.98011203 5.31849606 -17.66015625 11.19921875 C-19.58083942 13.17146075 -19.58083942 13.17146075 -20.375 16.1875 C-21.035 16.1875 -21.695 16.1875 -22.375 16.1875 C-24.77883999 24.59677879 -24.77883999 24.59677879 -26.375 33.1875 C-26.705 33.1875 -27.035 33.1875 -27.375 33.1875 C-27.42923638 31.27114783 -27.46789963 29.35435075 -27.5 27.4375 C-27.52320312 26.37015625 -27.54640625 25.3028125 -27.5703125 24.203125 C-27.37715766 21.22081432 -26.79178411 19.74685193 -25.375 17.1875 C-25.67305007 14.99002869 -25.67305007 14.99002869 -26.375 13.1875 C-25.385 12.8575 -24.395 12.5275 -23.375 12.1875 C-22.10835745 10.99130172 -22.10835745 10.99130172 -20.5625 8.375 C-17.2594519 4.29764685 -12.80850603 3.3615743 -7.921875 1.94921875 C-1.44353731 0.0116791 -1.44353731 0.0116791 0 0 Z " fill="#BB0C21" transform="translate(58.375,28.8125)"/>
<path d="M0 0 C1 1 1 1 1.3125 4.8125 C1.26842879 7.89197567 1.15485428 8.78205694 -0.6875 11.375 C-3.05955194 13.04184731 -5.25521995 14.08507332 -8 15 C-8.66 14.34 -9.32 13.68 -10 13 C-9.4591195 4.6163522 -9.4591195 4.6163522 -7 1 C-4.51588385 -0.24205807 -2.74800896 -0.14092354 0 0 Z " fill="#EC727A" transform="translate(67,53)"/>
<path d="M0 0 C0.77321882 2.98241547 1.41196203 5.97580475 2 9 C4.31 8.01 6.62 7.02 9 6 C8.34 8.64 7.68 11.28 7 14 C10.465 13.505 10.465 13.505 14 13 C14 12.34 14 11.68 14 11 C14.66 11 15.32 11 16 11 C16 10.34 16 9.68 16 9 C16.66 9.33 17.32 9.66 18 10 C13.08861875 16.9577901 7.8419851 19.08383005 0 22 C-0.71929687 22.39574219 -1.43859375 22.79148437 -2.1796875 23.19921875 C-4 24 -4 24 -7 23 C-3.98112756 19.51668565 -1.43090471 18.20842856 3 17 C2.34 16.34 1.68 15.68 1 15 C1.99 14.67 2.98 14.34 4 14 C4.33 13.01 4.66 12.02 5 11 C3.35 11 1.7 11 0 11 C-1.125 9.4375 -1.125 9.4375 -2 7 C-1.125 3.25 -1.125 3.25 0 0 Z " fill="#E33049" transform="translate(57,58)"/>
<path d="M0 0 C0.33 0 0.66 0 1 0 C3.20494473 17.14738271 3.20494473 17.14738271 3.00390625 23.99609375 C2.9966921 27.69695056 3.53435495 31.33304526 4 35 C2.515 35.495 2.515 35.495 1 36 C0.16180842 34.37750059 -0.6704116 32.75191503 -1.5 31.125 C-1.9640625 30.22007813 -2.428125 29.31515625 -2.90625 28.3828125 C-4 26 -4 26 -4 24 C-3.01 23.67 -2.02 23.34 -1 23 C-1 22.01 -1 21.02 -1 20 C-0.34 20 0.32 20 1 20 C0.83628906 19.16210938 0.67257813 18.32421875 0.50390625 17.4609375 C-0.02987283 13.79482693 -0.09743025 10.32760615 -0.0625 6.625 C-0.05347656 5.37976562 -0.04445313 4.13453125 -0.03515625 2.8515625 C-0.01775391 1.44003906 -0.01775391 1.44003906 0 0 Z " fill="#F50947" transform="translate(11,58)"/>
<path d="M0 0 C3.57715025 1.19238342 4.08594537 2.47481798 5.75195312 5.72265625 C6.06068359 6.35042969 6.36941406 6.97820313 6.6875 7.625 C7.00783203 8.22957031 7.32816406 8.83414063 7.65820312 9.45703125 C9.82893329 13.79849157 10.32801043 17.18505438 10 22 C9.34 21.01 8.68 20.02 8 19 C5.94074861 18.27617533 5.94074861 18.27617533 4 18 C2.15730278 12.07704464 1.0388092 6.1112924 0 0 Z " fill="#F2135A" transform="translate(105,28)"/>
<path d="M0 0 C2.9725761 0.52327893 5.45778466 0.35213969 8.453125 0.02734375 C9.91685547 -0.12541016 9.91685547 -0.12541016 11.41015625 -0.28125 C12.51423828 -0.40693359 12.51423828 -0.40693359 13.640625 -0.53515625 C9.30877354 3.79669521 2.35758578 3.71948288 -3.47460938 3.73828125 C-4.68600586 3.72667969 -4.68600586 3.72667969 -5.921875 3.71484375 C-6.73333984 3.72257812 -7.54480469 3.7303125 -8.38085938 3.73828125 C-13.41756659 3.72202069 -17.58600678 3.07945958 -22.359375 1.46484375 C-22.359375 1.13484375 -22.359375 0.80484375 -22.359375 0.46484375 C-5.06640113 -1.14916714 -5.06640113 -1.14916714 0 0 Z " fill="#FE2F55" transform="translate(76.359375,94.53515625)"/>
<path d="M0 0 C1.65 0 3.3 0 5 0 C5.33 2.64 5.66 5.28 6 8 C5.01 8.66 4.02 9.32 3 10 C2.45524022 12.59270699 2.07599851 15.00451945 1.8125 17.625 C1.73064453 18.33140625 1.64878906 19.0378125 1.56445312 19.765625 C1.36419275 21.5090683 1.18050599 23.25440086 1 25 C-0.32 25 -1.64 25 -3 25 C-2.68289062 23.865625 -2.36578125 22.73125 -2.0390625 21.5625 C-0.90842964 17.03996855 -0.56820384 12.64494223 -0.375 8 C-0.33632812 7.22527344 -0.29765625 6.45054688 -0.2578125 5.65234375 C-0.16478643 3.76856585 -0.08136825 1.88431744 0 0 Z " fill="#F40445" transform="translate(109,46)"/>
<path d="M0 0 C1.19302734 -0.00797607 1.19302734 -0.00797607 2.41015625 -0.01611328 C7.67376333 0.04618439 12.25246622 0.86099317 17.3125 2.3125 C17.3125 2.6425 17.3125 2.9725 17.3125 3.3125 C16.29881348 3.29678955 16.29881348 3.29678955 15.26464844 3.28076172 C12.19730358 3.23914024 9.13001822 3.21315427 6.0625 3.1875 C4.99902344 3.17074219 3.93554688 3.15398438 2.83984375 3.13671875 C1.30263672 3.12705078 1.30263672 3.12705078 -0.265625 3.1171875 C-1.20825195 3.10671387 -2.15087891 3.09624023 -3.12207031 3.08544922 C-5.78701941 3.32130787 -7.40613092 3.95588341 -9.6875 5.3125 C-10.0175 4.9825 -10.3475 4.6525 -10.6875 4.3125 C-15.12327642 4.10127255 -19.31094926 4.61225188 -23.6875 5.3125 C-16.48413876 0.51025917 -8.43793098 0.02784255 0 0 Z " fill="#DF1959" transform="translate(62.6875,1.6875)"/>
<path d="M0 0 C1 3 1 3 0 6 C-2.5 7.125 -2.5 7.125 -5 8 C-5.33 8.33 -5.66 8.66 -6 9 C-11.56250387 9.86952666 -17.00115993 10.18244259 -22.625 10.1875 C-23.34945312 10.19974609 -24.07390625 10.21199219 -24.8203125 10.22460938 C-29.27238623 10.2367074 -32.80366084 9.67456436 -37 8 C-35.375 6.875 -35.375 6.875 -33 6 C-31.65035156 6.46986328 -31.65035156 6.46986328 -30.2734375 6.94921875 C-22.75811902 9.36165392 -14.3012505 8.03121905 -7.3125 4.5625 C-4.78652005 3.14030961 -2.41430062 1.60953375 0 0 Z " fill="#E64052" transform="translate(80,85)"/>
<path d="M0 0 C2.9375 0.375 2.9375 0.375 6 1 C6.33 1.66 6.66 2.32 7 3 C5.07073454 3.71078201 3.14129923 4.42110695 1.2109375 5.12890625 C-1.24518312 6.05597626 -1.24518312 6.05597626 -4.4375 7.75 C-8.96231613 9.33765478 -12.36417769 8.87250171 -17 8 C-13.24150206 4.40491501 -8.91353969 3.95156579 -4 3 C-2.66454223 2.67528253 -1.33043888 2.34470462 0 2 C0 1.34 0 0.68 0 0 Z " fill="#F62B42" transform="translate(54,73)"/>
<path d="M0 0 C0 0.66 0 1.32 0 2 C-2.75 4.6875 -2.75 4.6875 -6 7 C-8.375 6.8125 -8.375 6.8125 -10 6 C-10.0825 6.5775 -10.165 7.155 -10.25 7.75 C-11.2233811 10.6701433 -12.67613275 12.01787793 -15 14 C-15.99 14.33 -16.98 14.66 -18 15 C-19.70586575 16.62652316 -21.3777546 18.29006566 -23 20 C-23.66 19.67 -24.32 19.34 -25 19 C-23.5484451 17.32742645 -22.08855591 15.66208242 -20.625 14 C-19.81289063 13.071875 -19.00078125 12.14375 -18.1640625 11.1875 C-17.44992188 10.465625 -16.73578125 9.74375 -16 9 C-15.34 9 -14.68 9 -14 9 C-14 8.34 -14 7.68 -14 7 C-11.4453125 5.2734375 -11.4453125 5.2734375 -8.125 3.375 C-7.03445312 2.74335938 -5.94390625 2.11171875 -4.8203125 1.4609375 C-2 0 -2 0 0 0 Z " fill="#F01559" transform="translate(39,7)"/>
<path d="M0 0 C0 1.32 0 2.64 0 4 C1.65 4.66 3.3 5.32 5 6 C4.67 6.66 4.34 7.32 4 8 C1.71484375 8.6328125 1.71484375 8.6328125 -1.0625 9.125 C-1.98160156 9.29257812 -2.90070313 9.46015625 -3.84765625 9.6328125 C-4.91306641 9.81457031 -4.91306641 9.81457031 -6 10 C-5.67 8.35 -5.34 6.7 -5 5 C-6.6396875 5.7425 -6.6396875 5.7425 -8.3125 6.5 C-12 8 -12 8 -15 8 C-15 7.34 -15 6.68 -15 6 C-12.87717331 4.99539469 -10.75166979 3.99644398 -8.625 3 C-7.44164063 2.443125 -6.25828125 1.88625 -5.0390625 1.3125 C-2 0 -2 0 0 0 Z " fill="#C00D26" transform="translate(82,37)"/>
<path d="M0 0 C2.49361571 1.20381448 4.68143083 2.45428722 7 4 C6.90234375 5.79296875 6.90234375 5.79296875 6 8 C3.12890625 9.73828125 3.12890625 9.73828125 -0.4375 11.3125 C-2.19900391 12.11107422 -2.19900391 12.11107422 -3.99609375 12.92578125 C-4.98738281 13.28027344 -5.97867188 13.63476562 -7 14 C-7.66 13.67 -8.32 13.34 -9 13 C-7.68 12.67 -6.36 12.34 -5 12 C-5 11.34 -5 10.68 -5 10 C-4.34 10 -3.68 10 -3 10 C-3.33 8.68 -3.66 7.36 -4 6 C-2.35 5.34 -0.7 4.68 1 4 C0.67 2.68 0.34 1.36 0 0 Z " fill="#EE1056" transform="translate(96,13)"/>
<path d="M0 0 C0.33 0 0.66 0 1 0 C1.18175781 1.15757813 1.36351562 2.31515625 1.55078125 3.5078125 C1.80417733 5.04695908 2.05811219 6.58601702 2.3125 8.125 C2.43044922 8.88554688 2.54839844 9.64609375 2.66992188 10.4296875 C3.45871026 15.1219671 4.70716933 18.77399838 7 23 C7 23.66 7 24.32 7 25 C5.35 24.67 3.7 24.34 2 24 C1.87625 23.113125 1.7525 22.22625 1.625 21.3125 C1.15592077 18.09371942 1.15592077 18.09371942 -0.0625 15.6875 C-1.84097792 10.58919664 -1.46062728 5.15309305 0 0 Z " fill="#DC2942" transform="translate(30,55)"/>
<path d="M0 0 C-0.66 0 -1.32 0 -2 0 C-2 0.66 -2 1.32 -2 2 C-4.74793818 3.31697037 -7.49817185 4.62870369 -10.25 5.9375 C-11.02730469 6.31068359 -11.80460937 6.68386719 -12.60546875 7.06835938 C-13.35957031 7.42607422 -14.11367188 7.78378906 -14.890625 8.15234375 C-15.92751465 8.6472229 -15.92751465 8.6472229 -16.98535156 9.15209961 C-18.97427999 9.98917528 -20.89580682 10.53583974 -23 11 C-22.34 10.67 -21.68 10.34 -21 10 C-20.67 9.01 -20.34 8.02 -20 7 C-14.91440233 2.85122295 -6.49586171 -2.16528724 0 0 Z " fill="#E54155" transform="translate(52,81)"/>
<path d="M0 0 C0 0.66 0 1.32 0 2 C-0.99 2 -1.98 2 -3 2 C-3 3.98 -3 5.96 -3 8 C-2.278125 8.061875 -1.55625 8.12375 -0.8125 8.1875 C2.84657625 9.24456647 4.49211602 11.20550071 7 14 C6.01 14.495 6.01 14.495 5 15 C2.46875 13.63671875 2.46875 13.63671875 -0.5 11.6875 C-1.4796875 11.05199219 -2.459375 10.41648437 -3.46875 9.76171875 C-6 8 -6 8 -8 6 C-7.9375 4 -7.9375 4 -7 2 C-4.55683729 0.74709605 -2.75474605 0 0 0 Z " fill="#E22260" transform="translate(26,101)"/>
<path d="M0 0 C1.51708428 9.41002278 1.51708428 9.41002278 -1 14 C-4 12 -4 12 -5 9 C-5.03954234 6.66700175 -5.04401732 4.33291811 -5 2 C-1.125 0 -1.125 0 0 0 Z " fill="#DD072A" transform="translate(55,56)"/>
<path d="M0 0 C0.99 0.33 1.98 0.66 3 1 C2.34 1 1.68 1 1 1 C0.79375 1.556875 0.5875 2.11375 0.375 2.6875 C-1.18214766 5.30633924 -3.12179284 6.83456775 -5.48046875 8.72265625 C-9.90478866 12.44181464 -11.94182826 16.75166207 -14 22 C-15.13643966 18.59068103 -14.86747764 17.99664544 -13.5625 14.8125 C-13.27503906 14.09707031 -12.98757812 13.38164063 -12.69140625 12.64453125 C-12.34916016 11.83048828 -12.34916016 11.83048828 -12 11 C-11.34 11 -10.68 11 -10 11 C-9.67 10.01 -9.34 9.02 -9 8 C-6.25713918 5.03474506 -3.47949662 2.08769797 0 0 Z " fill="#D0001F" transform="translate(29,29)"/>
<path d="M0 0 C2.0625 0.4375 2.0625 0.4375 4 1 C-1.13215292 4.59599831 -6.03797399 7.97291116 -12 10 C-12.99 9.67 -13.98 9.34 -15 9 C-11.77298281 4.89288721 -7.89691388 3.57851447 -3.14453125 1.83203125 C-1.05134751 1.18583512 -1.05134751 1.18583512 0 0 Z " fill="#E52360" transform="translate(92,109)"/>
<path d="M0 0 C0.5534764 2.07553648 1 3.84365964 1 6 C0.34 6.66 -0.32 7.32 -1 8 C-4.1834534 11.59868645 -5.43251907 15.52148307 -7 20 C-8.0943977 17.22396681 -8.00889467 16.02871263 -7.109375 13.125 C-6.66078125 12.09375 -6.2121875 11.0625 -5.75 10 C-5.31171875 8.96875 -4.8734375 7.9375 -4.421875 6.875 C-3.1514507 4.30623 -1.80731889 2.21130782 0 0 Z " fill="#DB1559" transform="translate(13,28)"/>
<path d="M0 0 C0.67578125 1.765625 0.67578125 1.765625 1 4 C-0.14453125 5.921875 -0.14453125 5.921875 -1.8125 7.75 C-2.35519531 8.36359375 -2.89789063 8.9771875 -3.45703125 9.609375 C-5 11 -5 11 -7 11 C-7 11.66 -7 12.32 -7 13 C-8.98 13.66 -10.96 14.32 -13 15 C-8.70214922 9.96836982 -4.36574458 4.97281557 0 0 Z " fill="#FE284C" transform="translate(103,79)"/>
<path d="M0 0 C1.89488952 1.89488952 1.18019112 4.57139146 1.23046875 7.08984375 C1 9 1 9 -1 11 C-1.33 8.69 -1.66 6.38 -2 4 C-3.98 4.33 -5.96 4.66 -8 5 C-7.625 3.0625 -7.625 3.0625 -7 1 C-4.51588385 -0.24205807 -2.74800896 -0.14092354 0 0 Z " fill="#D24C58" transform="translate(67,53)"/>
<path d="M0 0 C0.79148437 -0.01417969 1.58296875 -0.02835938 2.3984375 -0.04296875 C4.625 0.1875 4.625 0.1875 7.625 2.1875 C6.93535156 2.21328125 6.24570313 2.2390625 5.53515625 2.265625 C-0.54641229 2.63268812 -5.18869992 3.60878929 -10.59765625 6.4453125 C-11.18417969 6.69023438 -11.77070312 6.93515625 -12.375 7.1875 C-13.035 6.8575 -13.695 6.5275 -14.375 6.1875 C-14.375 5.5275 -14.375 4.8675 -14.375 4.1875 C-13.73691406 3.98253906 -13.09882812 3.77757812 -12.44140625 3.56640625 C-11.61511719 3.29699219 -10.78882813 3.02757812 -9.9375 2.75 C-9.11378906 2.48316406 -8.29007813 2.21632813 -7.44140625 1.94140625 C-2.16822467 0.01754227 -2.16822467 0.01754227 0 0 Z " fill="#AB1631" transform="translate(58.375,28.8125)"/>
<path d="M0 0 C-0.33 1.65 -0.66 3.3 -1 5 C-3.97 5.66 -6.94 6.32 -10 7 C-9 3 -9 3 -6.125 1.25 C-3 0 -3 0 0 0 Z " fill="#C8041B" transform="translate(77,42)"/>
<path d="M0 0 C2.9375 0.375 2.9375 0.375 6 1 C6.33 1.66 6.66 2.32 7 3 C5.42085985 3.53341184 3.83645613 4.05125763 2.25 4.5625 C1.36828125 4.85253906 0.4865625 5.14257812 -0.421875 5.44140625 C-3.07834316 6.01697435 -4.47031106 5.89248371 -7 5 C-3.375 2 -3.375 2 0 2 C0 1.34 0 0.68 0 0 Z " fill="#EF263B" transform="translate(54,73)"/>
<path d="M0 0 C0.33 0.66 0.66 1.32 1 2 C0.34 2 -0.32 2 -1 2 C-3.40383999 10.40927879 -3.40383999 10.40927879 -5 19 C-5.33 19 -5.66 19 -6 19 C-6.57251908 5.8956743 -6.57251908 5.8956743 -3 1 C-2.01 0.67 -1.02 0.34 0 0 Z " fill="#BC1C36" transform="translate(37,43)"/>
<path d="M0 0 C-0.33 1.98 -0.66 3.96 -1 6 C-1.33 5.34 -1.66 4.68 -2 4 C-5.63 4.33 -9.26 4.66 -13 5 C-4.38461538 -1.46153846 -4.38461538 -1.46153846 0 0 Z " fill="#B21528" transform="translate(106,27)"/>
<path d="M0 0 C6.30214697 0.33169195 10.85216936 3.67323988 16 7 C14 8 14 8 10.875 7.0625 C9.92625 6.711875 8.9775 6.36125 8 6 C8 5.34 8 4.68 8 4 C5.69 3.67 3.38 3.34 1 3 C0.67 2.01 0.34 1.02 0 0 Z " fill="#DD205B" transform="translate(80,5)"/>
<path d="M0 0 C-5.30396476 5.49339207 -5.30396476 5.49339207 -8 7 C-11.25 6.6875 -11.25 6.6875 -14 6 C-9.26000189 2.05000157 -6.29562136 -0.34975674 0 0 Z " fill="#C32033" transform="translate(76,47)"/>
<path d="M0 0 C0.66 0 1.32 0 2 0 C1.7834375 0.80050781 1.7834375 0.80050781 1.5625 1.6171875 C0.09631589 7.50228763 -0.22734497 12.95009776 0 19 C-0.66 19.33 -1.32 19.66 -2 20 C-2.05392397 17.22890693 -2.09363455 14.45886182 -2.125 11.6875 C-2.14175781 10.90181641 -2.15851562 10.11613281 -2.17578125 9.30664062 C-2.18544922 8.1706543 -2.18544922 8.1706543 -2.1953125 7.01171875 C-2.20578613 6.31522217 -2.21625977 5.61872559 -2.22705078 4.90112305 C-2 3 -2 3 0 0 Z " fill="#E60236" transform="translate(14,44)"/>
<path d="M0 0 C1.2065625 0.0309375 1.2065625 0.0309375 2.4375 0.0625 C0.35556813 2.14443187 -1.28229715 3.02825384 -3.9375 4.25 C-4.70835938 4.61480469 -5.47921875 4.97960937 -6.2734375 5.35546875 C-8.87257759 6.15827482 -10.08981203 6.1790221 -12.5625 5.0625 C-12.8925 4.0725 -13.2225 3.0825 -13.5625 2.0625 C-12.9025 2.0625 -12.2425 2.0625 -11.5625 2.0625 C-11.5625 2.7225 -11.5625 3.3825 -11.5625 4.0625 C-10.2425 4.0625 -8.9225 4.0625 -7.5625 4.0625 C-7.8925 3.0725 -8.2225 2.0825 -8.5625 1.0625 C-7.3559375 1.0934375 -7.3559375 1.0934375 -6.125 1.125 C-3.0866539 1.050894 -3.0383461 0.074106 0 0 Z " fill="#E44362" transform="translate(26.5625,91.9375)"/>
<path d="M0 0 C0.77321882 2.98241547 1.41196203 5.97580475 2 9 C4.31 8.01 6.62 7.02 9 6 C7.125 9.875 7.125 9.875 6 11 C4.00041636 11.04080783 1.99954746 11.04254356 0 11 C-1.125 9.4375 -1.125 9.4375 -2 7 C-1.125 3.25 -1.125 3.25 0 0 Z " fill="#D94C58" transform="translate(57,58)"/>
<path d="M0 0 C0 1.65 0 3.3 0 5 C-0.804375 5.268125 -1.60875 5.53625 -2.4375 5.8125 C-3.283125 6.204375 -4.12875 6.59625 -5 7 C-5.33 7.99 -5.66 8.98 -6 10 C-6.25 6.6875 -6.25 6.6875 -6 3 C-3.96080228 0.89282902 -2.95416573 0 0 0 Z " fill="#CB0F30" transform="translate(55,51)"/>
<path d="M0 0 C2.49361571 1.20381448 4.68143083 2.45428722 7 4 C6.75 5.875 6.75 5.875 6 8 C4.125 9.3125 4.125 9.3125 2 10 C1.01 9.67 0.02 9.34 -1 9 C0.65 7.68 2.3 6.36 4 5 C3.34 4.360625 2.68 3.72125 2 3.0625 C0 1 0 1 0 0 Z " fill="#DA3164" transform="translate(96,13)"/>
<path d="M0 0 C0.33 0 0.66 0 1 0 C1.3125 2.25 1.3125 2.25 1 5 C-1.5 7.3125 -1.5 7.3125 -4 9 C-5.32 8.34 -6.64 7.68 -8 7 C-8 5.68 -8 4.36 -8 3 C-5.36 3.33 -2.72 3.66 0 4 C0 2.68 0 1.36 0 0 Z " fill="#E1676F" transform="translate(65,59)"/>
<path d="M0 0 C0.33 0.66 0.66 1.32 1 2 C-0.77479455 7.22578394 -2.81188075 10.2646504 -7 14 C-7.66 13.67 -8.32 13.34 -9 13 C-8.67 11.35 -8.34 9.7 -8 8 C-6.68 8 -5.36 8 -4 8 C-3.67 6.68 -3.34 5.36 -3 4 C-2.34 4 -1.68 4 -1 4 C-0.67 2.68 -0.34 1.36 0 0 Z " fill="#F93147" transform="translate(88,76)"/>
<path d="M0 0 C0 0.66 0 1.32 0 2 C-4.89795918 6.89795918 -4.89795918 6.89795918 -9.375 7.3125 C-10.674375 7.1578125 -10.674375 7.1578125 -12 7 C-8.8380314 3.47318887 -4.98182478 0 0 0 Z " fill="#E32563" transform="translate(39,7)"/>
<path d="M0 0 C1.9061808 0.43474299 3.81085389 0.88313276 5.69140625 1.41796875 C9.4108295 2.35569136 13.18620566 2.66452735 17 3 C17 3.33 17 3.66 17 4 C14.95863605 4.05451714 12.91684144 4.09302485 10.875 4.125 C9.16957031 4.15980469 9.16957031 4.15980469 7.4296875 4.1953125 C3.94242233 3.99672109 1.2446138 3.2524801 -2 2 C-1.34 1.34 -0.68 0.68 0 0 Z " fill="#D62F5F" transform="translate(45,91)"/>
<path d="M0 0 C-0.66 0 -1.32 0 -2 0 C-2 0.66 -2 1.32 -2 2 C-5.90028225 4.60018816 -9.47434569 4.15085514 -14 4 C-11.58592302 2.39061535 -9.65955563 1.34509262 -7 0.3125 C-5.9790625 -0.09548828 -5.9790625 -0.09548828 -4.9375 -0.51171875 C-3 -1 -3 -1 0 0 Z " fill="#EF3C51" transform="translate(52,81)"/>
<path d="M0 0 C0.33 0 0.66 0 1 0 C1.20140476 3.62528568 0.85776765 5.86501708 -1 9 C-1.66 9 -2.32 9 -3 9 C-3.33 10.65 -3.66 12.3 -4 14 C-4.99 13.67 -5.98 13.34 -7 13 C-6.66226563 12.48050781 -6.32453125 11.96101563 -5.9765625 11.42578125 C-3.60108299 7.71151993 -1.44237185 4.19599085 0 0 Z " fill="#D44053" transform="translate(88,71)"/>
<path d="M0 0 C2.31 0 4.62 0 7 0 C4.48169253 3.12270126 3.2738451 3.94523098 -0.75 4.75 C-2.35875 4.87375 -2.35875 4.87375 -4 5 C-4 4.34 -4 3.68 -4 3 C-2.68 3 -1.36 3 0 3 C0 2.01 0 1.02 0 0 Z " fill="#B7020C" transform="translate(48,28)"/>
<path d="M0 0 C1.32 0.33 2.64 0.66 4 1 C4 1.99 4 2.98 4 4 C4.350625 4.825 4.70125 5.65 5.0625 6.5 C6 9 6 9 5 12 C4.16180842 10.37750059 3.3295884 8.75191503 2.5 7.125 C2.0359375 6.22007813 1.571875 5.31515625 1.09375 4.3828125 C0 2 0 2 0 0 Z " fill="#E31A58" transform="translate(7,82)"/>
<path d="M0 0 C5.52677733 -0.19392201 9.75614911 0.2520497 15 2 C14.34 2.66 13.68 3.32 13 4 C10.72265625 3.828125 10.72265625 3.828125 8.0625 3.25 C7.18722656 3.06953125 6.31195313 2.8890625 5.41015625 2.703125 C3 2 3 2 0 0 Z " fill="#D9235A" transform="translate(63,29)"/>
<path d="M0 0 C3.13107836 3.38583802 3.33550778 5.71109462 3.1875 10.25 C3.16042969 11.32765625 3.13335938 12.4053125 3.10546875 13.515625 C3.07066406 14.33546875 3.03585938 15.1553125 3 16 C2.01 15.67 1.02 15.34 0 15 C0.66 15 1.32 15 2 15 C1.855625 14.41992188 1.71125 13.83984375 1.5625 13.2421875 C0.49110572 8.73340325 -0.23945936 4.66945753 0 0 Z " fill="#FC244E" transform="translate(13,78)"/>
<path d="M0 0 C0.66 0 1.32 0 2 0 C2 0.99 2 1.98 2 3 C3.32 2.67 4.64 2.34 6 2 C6 2.99 6 3.98 6 5 C4.1875 5.6875 4.1875 5.6875 2 6 C0.25 4.5625 0.25 4.5625 -1 3 C-0.67 2.01 -0.34 1.02 0 0 Z " fill="#C40114" transform="translate(82,37)"/>
<path d="M0 0 C4.42679007 1.47559669 4.91432696 3.90057368 7 8 C7 8.66 7 9.32 7 10 C6.34 10 5.68 10 5 10 C3.7109375 8.3203125 3.7109375 8.3203125 2.375 6.125 C1.92898437 5.40570313 1.48296875 4.68640625 1.0234375 3.9453125 C0 2 0 2 0 0 Z " fill="#E02858" transform="translate(105,28)"/>
<path d="M0 0 C0.33 0.99 0.66 1.98 1 3 C0.01 4.485 0.01 4.485 -1 6 C-1.66 6 -2.32 6 -3 6 C-3 6.66 -3 7.32 -3 8 C-4.32 8.33 -5.64 8.66 -7 9 C-7 7 -7 7 -4.625 4.5 C-3.75875 3.675 -2.8925 2.85 -2 2 C-1.34 1.34 -0.68 0.68 0 0 Z M-9 9 C-7 10 -7 10 -7 10 Z " fill="#FA0B46" transform="translate(103,83)"/>
<path d="M0 0 C0.66 0 1.32 0 2 0 C3 3 3 3 2.22265625 4.82421875 C1.1484375 6.54947917 0.07421875 8.27473958 -1 10 C-2.16553292 6.50340123 -1.77297578 4.55568859 -1 1 C-0.67 0.67 -0.34 0.34 0 0 Z " fill="#F81444" transform="translate(106,72)"/>
<path d="M0 0 C3.36585366 6.73170732 3.36585366 6.73170732 2.0625 11.25 C1.711875 12.1575 1.36125 13.065 1 14 C0.67 14 0.34 14 0 14 C0 9.38 0 4.76 0 0 Z " fill="#DD2D43" transform="translate(89,64)"/>
<path d="M0 0 C0.66 0.33 1.32 0.66 2 1 C0.73461631 1.84158536 -0.53753779 2.67299748 -1.8125 3.5 C-2.87404297 4.19609375 -2.87404297 4.19609375 -3.95703125 4.90625 C-6 6 -6 6 -9 6 C-9 5.34 -9 4.68 -9 4 C-7.54618103 3.30300448 -6.08677047 2.61766134 -4.625 1.9375 C-3.40683594 1.36322266 -3.40683594 1.36322266 -2.1640625 0.77734375 C-1.44992188 0.52082031 -0.73578125 0.26429687 0 0 Z " fill="#BA1A2E" transform="translate(76,39)"/>
<path d="M0 0 C0.66 0.33 1.32 0.66 2 1 C0.02 3.31 -1.96 5.62 -4 8 C-4.99 7.67 -5.98 7.34 -7 7 C-5.625 5.5 -5.625 5.5 -4 4 C-3.34 4 -2.68 4 -2 4 C-2 3.34 -2 2.68 -2 2 C-1.34 2 -0.68 2 0 2 C0 1.34 0 0.68 0 0 Z " fill="#CB3249" transform="translate(73,67)"/>
<path d="M0 0 C4 4 4 4 4.171875 6.359375 C4.03265625 7.14828125 3.8934375 7.9371875 3.75 8.75 C3.62109375 9.54921875 3.4921875 10.3484375 3.359375 11.171875 C3.24078125 11.77515625 3.1221875 12.3784375 3 13 C2.67 13 2.34 13 2 13 C1.34 8.71 0.68 4.42 0 0 Z " fill="#F00642" transform="translate(106,32)"/>
<path d="M0 0 C0.99 0 1.98 0 3 0 C3.66 1.98 4.32 3.96 5 6 C3.35 5.67 1.7 5.34 0 5 C0 3.35 0 1.7 0 0 Z " fill="#E62C43" transform="translate(32,74)"/>
<path d="M0 0 C0.99 0.495 0.99 0.495 2 1 C2 1.66 2 2.32 2 3 C3.32 3.33 4.64 3.66 6 4 C5.67 4.66 5.34 5.32 5 6 C3.35 5.67 1.7 5.34 0 5 C0 3.35 0 1.7 0 0 Z " fill="#C43D44" transform="translate(55,66)"/>
<path d="M0 0 C0.66 0 1.32 0 2 0 C1.37240135 2.92879371 0.41377341 5.36095629 -1 8 C-1.66 6.68 -2.32 5.36 -3 4 C-2.34 4 -1.68 4 -1 4 C-0.67 2.68 -0.34 1.36 0 0 Z " fill="#DC1834" transform="translate(54,62)"/>
<path d="M0 0 C0.33 0.99 0.66 1.98 1 3 C-0.65 4.65 -2.3 6.3 -4 8 C-4.66 7.67 -5.32 7.34 -6 7 C-4.02 4.69 -2.04 2.38 0 0 Z " fill="#DD1E60" transform="translate(20,19)"/>
<path d="M0 0 C0 0.66 0 1.32 0 2 C-0.99 2 -1.98 2 -3 2 C-3 2.66 -3 3.32 -3 4 C-3.99 4.33 -4.98 4.66 -6 5 C-6.99 4.34 -7.98 3.68 -9 3 C-2.25 0 -2.25 0 0 0 Z " fill="#E0374B" transform="translate(46,77)"/>
<path d="M0 0 C0.99 0 1.98 0 3 0 C3.33 2.97 3.66 5.94 4 9 C2.00902154 6.01353231 1.05875074 3.40312738 0 0 Z " fill="#C2203A" transform="translate(85,46)"/>
<path d="M0 0 C0.66 0.33 1.32 0.66 2 1 C-0.06756277 3.7972908 -1.14440371 4.02692273 -4.6875 4.6875 C-5.780625 4.790625 -6.87375 4.89375 -8 5 C-5.45378681 2.99940392 -3.01962385 1.20784954 0 0 Z " fill="#AC0E25" transform="translate(90,32)"/>
<path d="M0 0 C0.99 0.33 1.98 0.66 3 1 C2.34 1 1.68 1 1 1 C0.34 2.32 -0.32 3.64 -1 5 C-2.32 4.67 -3.64 4.34 -5 4 C-2.6875 1.9375 -2.6875 1.9375 0 0 Z " fill="#DA0226" transform="translate(29,29)"/>
<path d="M0 0 C2.64 0 5.28 0 8 0 C5.06171403 2.50298434 2.82097239 3.46930939 -1 4 C-0.67 2.68 -0.34 1.36 0 0 Z " fill="#DB1B59" transform="translate(79,27)"/>
<path d="M0 0 C0.33 0.66 0.66 1.32 1 2 C0.34 2 -0.32 2 -1 2 C-1.66 3.98 -2.32 5.96 -3 8 C-3.66 6.68 -4.32 5.36 -5 4 C-3 1 -3 1 0 0 Z " fill="#B12134" transform="translate(37,43)"/>
</svg>
